<svg xmlns="http://www.w3.org/2000/svg" xmlns:xlink="http://www.w3.org/1999/xlink" contentStyleType="text/css" data-diagram-type="SEQUENCE" height="1074px" preserveAspectRatio="none" style="width:2208px;height:1074px;background:#FFFFFF;" version="1.1" viewBox="0 0 2208 1074" width="2208px" zoomAndPan="magnify"><title>VibeMatch - System Architecture Overview</title><defs/><g><text fill="#000000" font-family="sans-serif" font-size="14" font-weight="bold" lengthAdjust="spacing" textLength="310.1738" x="948.2422" y="28.5352">VibeMatch - System Architecture Overview</text><g><title>React Web App</title><rect fill="#000000" fill-opacity="0.00000" height="964.627" width="8" x="58.7603" y="73.9766"/><line style="stroke:#181818;stroke-width:0.5;stroke-dasharray:5,5;" x1="62" x2="62" y1="73.9766" y2="1038.6035"/></g><g><title>Express API</title><rect fill="#000000" fill-opacity="0.00000" height="964.627" width="8" x="181.5552" y="73.9766"/><line style="stroke:#181818;stroke-width:0.5;stroke-dasharray:5,5;" x1="185.2314" x2="185.2314" y1="73.9766" y2="1038.6035"/></g><g><title>WebSocket Server</title><rect fill="#000000" fill-opacity="0.00000" height="964.627" width="8" x="304.5737" y="73.9766"/><line style="stroke:#181818;stroke-width:0.5;stroke-dasharray:5,5;" x1="307.8789" x2="307.8789" y1="73.9766" y2="1038.6035"/></g><g><title>Auth Service</title><rect fill="#000000" fill-opacity="0.00000" height="964.627" width="8" x="430.2856" y="73.9766"/><line style="stroke:#181818;stroke-width:0.5;stroke-dasharray:5,5;" x1="434.2686" x2="434.2686" y1="73.9766" y2="1038.6035"/></g><g><title>Profile Service</title><rect fill="#000000" fill-opacity="0.00000" height="964.627" width="8" x="543.7373" y="73.9766"/><line style="stroke:#181818;stroke-width:0.5;stroke-dasharray:5,5;" x1="547.3027" x2="547.3027" y1="73.9766" y2="1038.6035"/></g><g><title>Matching Engine</title><rect fill="#000000" fill-opacity="0.00000" height="964.627" width="8" x="671.3325" y="73.9766"/><line style="stroke:#181818;stroke-width:0.5;stroke-dasharray:5,5;" x1="675.1719" x2="675.1719" y1="73.9766" y2="1038.6035"/></g><g><title>Messaging Service</title><rect fill="#000000" fill-opacity="0.00000" height="964.627" width="8" x="813.4028" y="73.9766"/><line style="stroke:#181818;stroke-width:0.5;stroke-dasharray:5,5;" x1="816.4932" x2="816.4932" y1="73.9766" y2="1038.6035"/></g><g><title>Community Service</title><rect fill="#000000" fill-opacity="0.00000" height="964.627" width="8" x="964.394" y="73.9766"/><line style="stroke:#181818;stroke-width:0.5;stroke-dasharray:5,5;" x1="968.3125" x2="968.3125" y1="73.9766" y2="1038.6035"/></g><g><title>Personality AI</title><rect fill="#000000" fill-opacity="0.00000" height="964.627" width="8" x="1099.5703" y="73.9766"/><line style="stroke:#181818;stroke-width:0.5;stroke-dasharray:5,5;" x1="1103.4756" x2="1103.4756" y1="73.9766" y2="1038.6035"/></g><g><title>Content AI</title><rect fill="#000000" fill-opacity="0.00000" height="964.627" width="8" x="1205.6938" y="73.9766"/><line style="stroke:#181818;stroke-width:0.5;stroke-dasharray:5,5;" x1="1209.665" x2="1209.665" y1="73.9766" y2="1038.6035"/></g><g><title>Conversation AI</title><rect fill="#000000" fill-opacity="0.00000" height="964.627" width="8" x="1319.3779" y="73.9766"/><line style="stroke:#181818;stroke-width:0.5;stroke-dasharray:5,5;" x1="1322.7227" x2="1322.7227" y1="73.9766" y2="1038.6035"/></g><g><title>Azure Cosmos DB</title><rect fill="#000000" fill-opacity="0.00000" height="964.627" width="8" x="1457.7979" y="73.9766"/><line style="stroke:#181818;stroke-width:0.5;stroke-dasharray:5,5;" x1="1461.0332" x2="1461.0332" y1="73.9766" y2="1038.6035"/></g><g><title>Redis Cache</title><rect fill="#000000" fill-opacity="0.00000" height="964.627" width="8" x="1583.6396" y="73.9766"/><line style="stroke:#181818;stroke-width:0.5;stroke-dasharray:5,5;" x1="1587.5625" x2="1587.5625" y1="73.9766" y2="1038.6035"/></g><g><title>Azure Blob Storage</title><rect fill="#000000" fill-opacity="0.00000" height="964.627" width="8" x="1713.5352" y="73.9766"/><line style="stroke:#181818;stroke-width:0.5;stroke-dasharray:5,5;" x1="1716.7168" x2="1716.7168" y1="73.9766" y2="1038.6035"/></g><g><title>Google Gemini API</title><rect fill="#000000" fill-opacity="0.00000" height="964.627" width="8" x="1865.3296" y="73.9766"/><line style="stroke:#181818;stroke-width:0.5;stroke-dasharray:5,5;" x1="1868.3535" x2="1868.3535" y1="73.9766" y2="1038.6035"/></g><g><title>Azure AD B2C</title><rect fill="#000000" fill-opacity="0.00000" height="964.627" width="8" x="2000.0547" y="73.9766"/><line style="stroke:#181818;stroke-width:0.5;stroke-dasharray:5,5;" x1="2003.3057" x2="2003.3057" y1="73.9766" y2="1038.6035"/></g><g><title>GoHighLevel CRM</title><rect fill="#000000" fill-opacity="0.00000" height="964.627" width="8" x="2131.731" y="73.9766"/><line style="stroke:#181818;stroke-width:0.5;stroke-dasharray:5,5;" x1="2134.8037" x2="2134.8037" y1="73.9766" y2="1038.6035"/></g><g class="participant participant-head" data-participant="ReactApp"><rect fill="#E2E2F0" height="30.4883" rx="2.5" ry="2.5" style="stroke:#181818;stroke-width:0.5;" width="115.5205" x="5" y="42.4883"/><text fill="#000000" font-family="sans-serif" font-size="14" lengthAdjust="spacing" textLength="101.5205" x="12" y="63.0234">React Web App</text></g><g class="participant participant-tail" data-participant="ReactApp"><rect fill="#E2E2F0" height="30.4883" rx="2.5" ry="2.5" style="stroke:#181818;stroke-width:0.5;" width="115.5205" x="5" y="1037.6035"/><text fill="#000000" font-family="sans-serif" font-size="14" lengthAdjust="spacing" textLength="101.5205" x="12" y="1058.1387">React Web App</text></g><g class="participant participant-head" data-participant="API"><rect fill="#E2E2F0" height="30.4883" rx="2.5" ry="2.5" style="stroke:#181818;stroke-width:0.5;" width="92.6475" x="139.2314" y="42.4883"/><text fill="#000000" font-family="sans-serif" font-size="14" lengthAdjust="spacing" textLength="78.6475" x="146.2314" y="63.0234">Express API</text></g><g class="participant participant-tail" data-participant="API"><rect fill="#E2E2F0" height="30.4883" rx="2.5" ry="2.5" style="stroke:#181818;stroke-width:0.5;" width="92.6475" x="139.2314" y="1037.6035"/><text fill="#000000" font-family="sans-serif" font-size="14" lengthAdjust="spacing" textLength="78.6475" x="146.2314" y="1058.1387">Express API</text></g><g class="participant participant-head" data-participant="WS"><rect fill="#E2E2F0" height="30.4883" rx="2.5" ry="2.5" style="stroke:#181818;stroke-width:0.5;" width="133.3896" x="241.8789" y="42.4883"/><text fill="#000000" font-family="sans-serif" font-size="14" lengthAdjust="spacing" textLength="119.3896" x="248.8789" y="63.0234">WebSocket Server</text></g><g class="participant participant-tail" data-participant="WS"><rect fill="#E2E2F0" height="30.4883" rx="2.5" ry="2.5" style="stroke:#181818;stroke-width:0.5;" width="133.3896" x="241.8789" y="1037.6035"/><text fill="#000000" font-family="sans-serif" font-size="14" lengthAdjust="spacing" textLength="119.3896" x="248.8789" y="1058.1387">WebSocket Server</text></g><g class="participant participant-head" data-participant="AuthService"><rect fill="#E2E2F0" height="30.4883" rx="2.5" ry="2.5" style="stroke:#181818;stroke-width:0.5;" width="98.0342" x="385.2686" y="42.4883"/><text fill="#000000" font-family="sans-serif" font-size="14" lengthAdjust="spacing" textLength="84.0342" x="392.2686" y="63.0234">Auth Service</text></g><g class="participant participant-tail" data-participant="AuthService"><rect fill="#E2E2F0" height="30.4883" rx="2.5" ry="2.5" style="stroke:#181818;stroke-width:0.5;" width="98.0342" x="385.2686" y="1037.6035"/><text fill="#000000" font-family="sans-serif" font-size="14" lengthAdjust="spacing" textLength="84.0342" x="392.2686" y="1058.1387">Auth Service</text></g><g class="participant participant-head" data-participant="ProfileService"><rect fill="#E2E2F0" height="30.4883" rx="2.5" ry="2.5" style="stroke:#181818;stroke-width:0.5;" width="108.8691" x="493.3027" y="42.4883"/><text fill="#000000" font-family="sans-serif" font-size="14" lengthAdjust="spacing" textLength="94.8691" x="500.3027" y="63.0234">Profile Service</text></g><g class="participant participant-tail" data-participant="ProfileService"><rect fill="#E2E2F0" height="30.4883" rx="2.5" ry="2.5" style="stroke:#181818;stroke-width:0.5;" width="108.8691" x="493.3027" y="1037.6035"/><text fill="#000000" font-family="sans-serif" font-size="14" lengthAdjust="spacing" textLength="94.8691" x="500.3027" y="1058.1387">Profile Service</text></g><g class="participant participant-head" data-participant="MatchingEngine"><rect fill="#E2E2F0" height="30.4883" rx="2.5" ry="2.5" style="stroke:#181818;stroke-width:0.5;" width="126.3213" x="612.1719" y="42.4883"/><text fill="#000000" font-family="sans-serif" font-size="14" lengthAdjust="spacing" textLength="112.3213" x="619.1719" y="63.0234">Matching Engine</text></g><g class="participant participant-tail" data-participant="MatchingEngine"><rect fill="#E2E2F0" height="30.4883" rx="2.5" ry="2.5" style="stroke:#181818;stroke-width:0.5;" width="126.3213" x="612.1719" y="1037.6035"/><text fill="#000000" font-family="sans-serif" font-size="14" lengthAdjust="spacing" textLength="112.3213" x="619.1719" y="1058.1387">Matching Engine</text></g><g class="participant participant-head" data-participant="MessagingService"><rect fill="#E2E2F0" height="30.4883" rx="2.5" ry="2.5" style="stroke:#181818;stroke-width:0.5;" width="137.8193" x="748.4932" y="42.4883"/><text fill="#000000" font-family="sans-serif" font-size="14" lengthAdjust="spacing" textLength="123.8193" x="755.4932" y="63.0234">Messaging Service</text></g><g class="participant participant-tail" data-participant="MessagingService"><rect fill="#E2E2F0" height="30.4883" rx="2.5" ry="2.5" style="stroke:#181818;stroke-width:0.5;" width="137.8193" x="748.4932" y="1037.6035"/><text fill="#000000" font-family="sans-serif" font-size="14" lengthAdjust="spacing" textLength="123.8193" x="755.4932" y="1058.1387">Messaging Service</text></g><g class="participant participant-head" data-participant="CommunityService"><rect fill="#E2E2F0" height="30.4883" rx="2.5" ry="2.5" style="stroke:#181818;stroke-width:0.5;" width="144.1631" x="896.3125" y="42.4883"/><text fill="#000000" font-family="sans-serif" font-size="14" lengthAdjust="spacing" textLength="130.1631" x="903.3125" y="63.0234">Community Service</text></g><g class="participant participant-tail" data-participant="CommunityService"><rect fill="#E2E2F0" height="30.4883" rx="2.5" ry="2.5" style="stroke:#181818;stroke-width:0.5;" width="144.1631" x="896.3125" y="1037.6035"/><text fill="#000000" font-family="sans-serif" font-size="14" lengthAdjust="spacing" textLength="130.1631" x="903.3125" y="1058.1387">Community Service</text></g><g class="participant participant-head" data-participant="PersonalityAI"><rect fill="#E2E2F0" height="30.4883" rx="2.5" ry="2.5" style="stroke:#181818;stroke-width:0.5;" width="106.1895" x="1050.4756" y="42.4883"/><text fill="#000000" font-family="sans-serif" font-size="14" lengthAdjust="spacing" textLength="92.1895" x="1057.4756" y="63.0234">Personality AI</text></g><g class="participant participant-tail" data-participant="PersonalityAI"><rect fill="#E2E2F0" height="30.4883" rx="2.5" ry="2.5" style="stroke:#181818;stroke-width:0.5;" width="106.1895" x="1050.4756" y="1037.6035"/><text fill="#000000" font-family="sans-serif" font-size="14" lengthAdjust="spacing" textLength="92.1895" x="1057.4756" y="1058.1387">Personality AI</text></g><g class="participant participant-head" data-participant="ContentAI"><rect fill="#E2E2F0" height="30.4883" rx="2.5" ry="2.5" style="stroke:#181818;stroke-width:0.5;" width="86.0576" x="1166.665" y="42.4883"/><text fill="#000000" font-family="sans-serif" font-size="14" lengthAdjust="spacing" textLength="72.0576" x="1173.665" y="63.0234">Content AI</text></g><g class="participant participant-tail" data-participant="ContentAI"><rect fill="#E2E2F0" height="30.4883" rx="2.5" ry="2.5" style="stroke:#181818;stroke-width:0.5;" width="86.0576" x="1166.665" y="1037.6035"/><text fill="#000000" font-family="sans-serif" font-size="14" lengthAdjust="spacing" textLength="72.0576" x="1173.665" y="1058.1387">Content AI</text></g><g class="participant participant-head" data-participant="ConversationAI"><rect fill="#E2E2F0" height="30.4883" rx="2.5" ry="2.5" style="stroke:#181818;stroke-width:0.5;" width="121.3105" x="1262.7227" y="42.4883"/><text fill="#000000" font-family="sans-serif" font-size="14" lengthAdjust="spacing" textLength="107.3105" x="1269.7227" y="63.0234">Conversation AI</text></g><g class="participant participant-tail" data-participant="ConversationAI"><rect fill="#E2E2F0" height="30.4883" rx="2.5" ry="2.5" style="stroke:#181818;stroke-width:0.5;" width="121.3105" x="1262.7227" y="1037.6035"/><text fill="#000000" font-family="sans-serif" font-size="14" lengthAdjust="spacing" textLength="107.3105" x="1269.7227" y="1058.1387">Conversation AI</text></g><g class="participant participant-head" data-participant="CosmosDB"><rect fill="#E2E2F0" height="30.4883" rx="2.5" ry="2.5" style="stroke:#181818;stroke-width:0.5;" width="135.5293" x="1394.0332" y="42.4883"/><text fill="#000000" font-family="sans-serif" font-size="14" lengthAdjust="spacing" textLength="121.5293" x="1401.0332" y="63.0234">Azure Cosmos DB</text></g><g class="participant participant-tail" data-participant="CosmosDB"><rect fill="#E2E2F0" height="30.4883" rx="2.5" ry="2.5" style="stroke:#181818;stroke-width:0.5;" width="135.5293" x="1394.0332" y="1037.6035"/><text fill="#000000" font-family="sans-serif" font-size="14" lengthAdjust="spacing" textLength="121.5293" x="1401.0332" y="1058.1387">Azure Cosmos DB</text></g><g class="participant participant-head" data-participant="Redis"><rect fill="#E2E2F0" height="30.4883" rx="2.5" ry="2.5" style="stroke:#181818;stroke-width:0.5;" width="96.1543" x="1539.5625" y="42.4883"/><text fill="#000000" font-family="sans-serif" font-size="14" lengthAdjust="spacing" textLength="82.1543" x="1546.5625" y="63.0234">Redis Cache</text></g><g class="participant participant-tail" data-participant="Redis"><rect fill="#E2E2F0" height="30.4883" rx="2.5" ry="2.5" style="stroke:#181818;stroke-width:0.5;" width="96.1543" x="1539.5625" y="1037.6035"/><text fill="#000000" font-family="sans-serif" font-size="14" lengthAdjust="spacing" textLength="82.1543" x="1546.5625" y="1058.1387">Redis Cache</text></g><g class="participant participant-head" data-participant="BlobStorage"><rect fill="#E2E2F0" height="30.4883" rx="2.5" ry="2.5" style="stroke:#181818;stroke-width:0.5;" width="143.6367" x="1645.7168" y="42.4883"/><text fill="#000000" font-family="sans-serif" font-size="14" lengthAdjust="spacing" textLength="129.6367" x="1652.7168" y="63.0234">Azure Blob Storage</text></g><g class="participant participant-tail" data-participant="BlobStorage"><rect fill="#E2E2F0" height="30.4883" rx="2.5" ry="2.5" style="stroke:#181818;stroke-width:0.5;" width="143.6367" x="1645.7168" y="1037.6035"/><text fill="#000000" font-family="sans-serif" font-size="14" lengthAdjust="spacing" textLength="129.6367" x="1652.7168" y="1058.1387">Azure Blob Storage</text></g><g class="participant participant-head" data-participant="GeminiAPI"><rect fill="#E2E2F0" height="30.4883" rx="2.5" ry="2.5" style="stroke:#181818;stroke-width:0.5;" width="139.9521" x="1799.3535" y="42.4883"/><text fill="#000000" font-family="sans-serif" font-size="14" lengthAdjust="spacing" textLength="125.9521" x="1806.3535" y="63.0234">Google Gemini API</text></g><g class="participant participant-tail" data-participant="GeminiAPI"><rect fill="#E2E2F0" height="30.4883" rx="2.5" ry="2.5" style="stroke:#181818;stroke-width:0.5;" width="139.9521" x="1799.3535" y="1037.6035"/><text fill="#000000" font-family="sans-serif" font-size="14" lengthAdjust="spacing" textLength="125.9521" x="1806.3535" y="1058.1387">Google Gemini API</text></g><g class="participant participant-head" data-participant="AzureAD"><rect fill="#E2E2F0" height="30.4883" rx="2.5" ry="2.5" style="stroke:#181818;stroke-width:0.5;" width="109.498" x="1949.3057" y="42.4883"/><text fill="#000000" font-family="sans-serif" font-size="14" lengthAdjust="spacing" textLength="95.498" x="1956.3057" y="63.0234">Azure AD B2C</text></g><g class="participant participant-tail" data-participant="AzureAD"><rect fill="#E2E2F0" height="30.4883" rx="2.5" ry="2.5" style="stroke:#181818;stroke-width:0.5;" width="109.498" x="1949.3057" y="1037.6035"/><text fill="#000000" font-family="sans-serif" font-size="14" lengthAdjust="spacing" textLength="95.498" x="1956.3057" y="1058.1387">Azure AD B2C</text></g><g class="participant participant-head" data-participant="GHL"><rect fill="#E2E2F0" height="30.4883" rx="2.5" ry="2.5" style="stroke:#181818;stroke-width:0.5;" width="133.8545" x="2068.8037" y="42.4883"/><text fill="#000000" font-family="sans-serif" font-size="14" lengthAdjust="spacing" textLength="119.8545" x="2075.8037" y="63.0234">GoHighLevel CRM</text></g><g class="participant participant-tail" data-participant="GHL"><rect fill="#E2E2F0" height="30.4883" rx="2.5" ry="2.5" style="stroke:#181818;stroke-width:0.5;" width="133.8545" x="2068.8037" y="1037.6035"/><text fill="#000000" font-family="sans-serif" font-size="14" lengthAdjust="spacing" textLength="119.8545" x="2075.8037" y="1058.1387">GoHighLevel CRM</text></g><path d="M15,88.9766 L15,113.9766 L110,113.9766 L110,98.9766 L100,88.9766 L15,88.9766" fill="#FEFFDD" style="stroke:#181818;stroke-width:0.5;"/><path d="M100,88.9766 L100,98.9766 L110,98.9766 L100,88.9766" fill="#FEFFDD" style="stroke:#181818;stroke-width:0.5;"/><text fill="#000000" font-family="sans-serif" font-size="13" lengthAdjust="spacing" textLength="74.2612" x="21" y="106.5449">Client Layer</text><path d="M131,124.2871 L131,149.2871 L362,149.2871 L362,134.2871 L352,124.2871 L131,124.2871" fill="#FEFFDD" style="stroke:#181818;stroke-width:0.5;"/><path d="M352,124.2871 L352,134.2871 L362,134.2871 L352,124.2871" fill="#FEFFDD" style="stroke:#181818;stroke-width:0.5;"/><text fill="#000000" font-family="sans-serif" font-size="13" lengthAdjust="spacing" textLength="76.6797" x="203.6787" y="141.8555">API Gateway</text><path d="M376,159.5977 L376,184.5977 L1026,184.5977 L1026,169.5977 L1016,159.5977 L376,159.5977" fill="#FEFFDD" style="stroke:#181818;stroke-width:0.5;"/><path d="M1016,159.5977 L1016,169.5977 L1026,169.5977 L1016,159.5977" fill="#FEFFDD" style="stroke:#181818;stroke-width:0.5;"/><text fill="#000000" font-family="sans-serif" font-size="13" lengthAdjust="spacing" textLength="84.2334" x="654.4868" y="177.166">Core Services</text><path d="M1049,194.9082 L1049,219.9082 L1377,219.9082 L1377,204.9082 L1367,194.9082 L1049,194.9082" fill="#FEFFDD" style="stroke:#181818;stroke-width:0.5;"/><path d="M1367,194.9082 L1367,204.9082 L1377,204.9082 L1367,194.9082" fill="#FEFFDD" style="stroke:#181818;stroke-width:0.5;"/><text fill="#000000" font-family="sans-serif" font-size="13" lengthAdjust="spacing" textLength="75.2388" x="1171.1594" y="212.4766">AI/ML Layer</text><path d="M1394,230.2188 L1394,255.2188 L1784,255.2188 L1784,240.2188 L1774,230.2188 L1394,230.2188" fill="#FEFFDD" style="stroke:#181818;stroke-width:0.5;"/><path d="M1774,230.2188 L1774,240.2188 L1784,240.2188 L1774,230.2188" fill="#FEFFDD" style="stroke:#181818;stroke-width:0.5;"/><text fill="#000000" font-family="sans-serif" font-size="13" lengthAdjust="spacing" textLength="80.7676" x="1544.2764" y="247.7871">Data Storage</text><path d="M1803,265.5293 L1803,290.5293 L2201,290.5293 L2201,275.5293 L2191,265.5293 L1803,265.5293" fill="#FEFFDD" style="stroke:#181818;stroke-width:0.5;"/><path d="M2191,265.5293 L2191,275.5293 L2201,275.5293 L2191,265.5293" fill="#FEFFDD" style="stroke:#181818;stroke-width:0.5;"/><text fill="#000000" font-family="sans-serif" font-size="13" lengthAdjust="spacing" textLength="106.1392" x="1944.5828" y="283.0977">External Services</text><g class="message" data-participant-1="ReactApp" data-participant-2="API"><polygon fill="#181818" points="173.5552,313.1504,183.5552,317.1504,173.5552,321.1504,177.5552,317.1504" style="stroke:#181818;stroke-width:1;"/><line style="stroke:#181818;stroke-width:1;" x1="62.7603" x2="179.5552" y1="317.1504" y2="317.1504"/><text fill="#000000" font-family="sans-serif" font-size="13" lengthAdjust="spacing" textLength="98.7949" x="69.7603" y="312.4082">HTTPS REST API</text></g><g class="message" data-participant-1="ReactApp" data-participant-2="WS"><polygon fill="#181818" points="296.5737,342.4609,306.5737,346.4609,296.5737,350.4609,300.5737,346.4609" style="stroke:#181818;stroke-width:1;"/><line style="stroke:#181818;stroke-width:1;" x1="62.7603" x2="302.5737" y1="346.4609" y2="346.4609"/><text fill="#000000" font-family="sans-serif" font-size="13" lengthAdjust="spacing" textLength="143.6982" x="69.7603" y="341.7188">WebSocket Connection</text></g><g class="message" data-participant-1="API" data-participant-2="AuthService"><polygon fill="#181818" points="422.2856,371.7715,432.2856,375.7715,422.2856,379.7715,426.2856,375.7715" style="stroke:#181818;stroke-width:1;"/><line style="stroke:#181818;stroke-width:1;" x1="185.5552" x2="428.2856" y1="375.7715" y2="375.7715"/><text fill="#000000" font-family="sans-serif" font-size="13" lengthAdjust="spacing" textLength="92.4092" x="192.5552" y="371.0293">Authentication</text></g><g class="message" data-participant-1="API" data-participant-2="ProfileService"><polygon fill="#181818" points="535.7373,401.082,545.7373,405.082,535.7373,409.082,539.7373,405.082" style="stroke:#181818;stroke-width:1;"/><line style="stroke:#181818;stroke-width:1;" x1="185.5552" x2="541.7373" y1="405.082" y2="405.082"/><text fill="#000000" font-family="sans-serif" font-size="13" lengthAdjust="spacing" textLength="125.4233" x="192.5552" y="400.3398">Profile Management</text></g><g class="message" data-participant-1="API" data-participant-2="MatchingEngine"><polygon fill="#181818" points="663.3325,430.3926,673.3325,434.3926,663.3325,438.3926,667.3325,434.3926" style="stroke:#181818;stroke-width:1;"/><line style="stroke:#181818;stroke-width:1;" x1="185.5552" x2="669.3325" y1="434.3926" y2="434.3926"/><text fill="#000000" font-family="sans-serif" font-size="13" lengthAdjust="spacing" textLength="95.4497" x="192.5552" y="429.6504">Matching Logic</text></g><g class="message" data-participant-1="API" data-participant-2="MessagingService"><polygon fill="#181818" points="805.4028,459.7031,815.4028,463.7031,805.4028,467.7031,809.4028,463.7031" style="stroke:#181818;stroke-width:1;"/><line style="stroke:#181818;stroke-width:1;" x1="185.5552" x2="811.4028" y1="463.7031" y2="463.7031"/><text fill="#000000" font-family="sans-serif" font-size="13" lengthAdjust="spacing" textLength="115.0068" x="192.5552" y="458.9609">Message Handling</text></g><g class="message" data-participant-1="API" data-participant-2="CommunityService"><polygon fill="#181818" points="956.394,489.0137,966.394,493.0137,956.394,497.0137,960.394,493.0137" style="stroke:#181818;stroke-width:1;"/><line style="stroke:#181818;stroke-width:1;" x1="185.5552" x2="962.394" y1="493.0137" y2="493.0137"/><text fill="#000000" font-family="sans-serif" font-size="13" lengthAdjust="spacing" textLength="130.4253" x="192.5552" y="488.2715">Community Features</text></g><g class="message" data-participant-1="WS" data-participant-2="MessagingService"><polygon fill="#181818" points="805.4028,518.3242,815.4028,522.3242,805.4028,526.3242,809.4028,522.3242" style="stroke:#181818;stroke-width:1;"/><line style="stroke:#181818;stroke-width:1;" x1="308.5737" x2="811.4028" y1="522.3242" y2="522.3242"/><text fill="#000000" font-family="sans-serif" font-size="13" lengthAdjust="spacing" textLength="126.8833" x="315.5737" y="517.582">Real-time Messages</text></g><g class="message" data-participant-1="WS" data-participant-2="MatchingEngine"><polygon fill="#181818" points="663.3325,547.6348,673.3325,551.6348,663.3325,555.6348,667.3325,551.6348" style="stroke:#181818;stroke-width:1;"/><line style="stroke:#181818;stroke-width:1;" x1="308.5737" x2="669.3325" y1="551.6348" y2="551.6348"/><text fill="#000000" font-family="sans-serif" font-size="13" lengthAdjust="spacing" textLength="121.9639" x="315.5737" y="546.8926">Match Notifications</text></g><g class="message" data-participant-1="MatchingEngine" data-participant-2="PersonalityAI"><polygon fill="#181818" points="1091.5703,576.9453,1101.5703,580.9453,1091.5703,584.9453,1095.5703,580.9453" style="stroke:#181818;stroke-width:1;"/><line style="stroke:#181818;stroke-width:1;" x1="675.3325" x2="1097.5703" y1="580.9453" y2="580.9453"/><text fill="#000000" font-family="sans-serif" font-size="13" lengthAdjust="spacing" textLength="140.0991" x="682.3325" y="576.2031">Compatibility Analysis</text></g><g class="message" data-participant-1="ProfileService" data-participant-2="ContentAI"><polygon fill="#181818" points="1197.6938,606.2559,1207.6938,610.2559,1197.6938,614.2559,1201.6938,610.2559" style="stroke:#181818;stroke-width:1;"/><line style="stroke:#181818;stroke-width:1;" x1="547.7373" x2="1203.6938" y1="610.2559" y2="610.2559"/><text fill="#000000" font-family="sans-serif" font-size="13" lengthAdjust="spacing" textLength="125.9756" x="554.7373" y="605.5137">Content Moderation</text></g><g class="message" data-participant-1="MessagingService" data-participant-2="ConversationAI"><polygon fill="#181818" points="1311.3779,635.5664,1321.3779,639.5664,1311.3779,643.5664,1315.3779,639.5664" style="stroke:#181818;stroke-width:1;"/><line style="stroke:#181818;stroke-width:1;" x1="817.4028" x2="1317.3779" y1="639.5664" y2="639.5664"/><text fill="#000000" font-family="sans-serif" font-size="13" lengthAdjust="spacing" textLength="93.2788" x="824.4028" y="634.8242">AI Suggestions</text></g><g class="message" data-participant-1="AuthService" data-participant-2="CosmosDB"><polygon fill="#181818" points="1449.7979,664.877,1459.7979,668.877,1449.7979,672.877,1453.7979,668.877" style="stroke:#181818;stroke-width:1;"/><line style="stroke:#181818;stroke-width:1;" x1="434.2856" x2="1455.7979" y1="668.877" y2="668.877"/><text fill="#000000" font-family="sans-serif" font-size="13" lengthAdjust="spacing" textLength="61.2676" x="441.2856" y="664.1348">User Data</text></g><g class="message" data-participant-1="ProfileService" data-participant-2="CosmosDB"><polygon fill="#181818" points="1449.7979,694.1875,1459.7979,698.1875,1449.7979,702.1875,1453.7979,698.1875" style="stroke:#181818;stroke-width:1;"/><line style="stroke:#181818;stroke-width:1;" x1="547.7373" x2="1455.7979" y1="698.1875" y2="698.1875"/><text fill="#000000" font-family="sans-serif" font-size="13" lengthAdjust="spacing" textLength="73.0996" x="554.7373" y="693.4453">Profile Data</text></g><g class="message" data-participant-1="MatchingEngine" data-participant-2="CosmosDB"><polygon fill="#181818" points="1449.7979,723.498,1459.7979,727.498,1449.7979,731.498,1453.7979,727.498" style="stroke:#181818;stroke-width:1;"/><line style="stroke:#181818;stroke-width:1;" x1="675.3325" x2="1455.7979" y1="727.498" y2="727.498"/><text fill="#000000" font-family="sans-serif" font-size="13" lengthAdjust="spacing" textLength="71.0366" x="682.3325" y="722.7559">Match Data</text></g><g class="message" data-participant-1="MessagingService" data-participant-2="CosmosDB"><polygon fill="#181818" points="1449.7979,752.8086,1459.7979,756.8086,1449.7979,760.8086,1453.7979,756.8086" style="stroke:#181818;stroke-width:1;"/><line style="stroke:#181818;stroke-width:1;" x1="817.4028" x2="1455.7979" y1="756.8086" y2="756.8086"/><text fill="#000000" font-family="sans-serif" font-size="13" lengthAdjust="spacing" textLength="87.293" x="824.4028" y="752.0664">Message Data</text></g><g class="message" data-participant-1="CommunityService" data-participant-2="CosmosDB"><polygon fill="#181818" points="1449.7979,782.1191,1459.7979,786.1191,1449.7979,790.1191,1453.7979,786.1191" style="stroke:#181818;stroke-width:1;"/><line style="stroke:#181818;stroke-width:1;" x1="968.394" x2="1455.7979" y1="786.1191" y2="786.1191"/><text fill="#000000" font-family="sans-serif" font-size="13" lengthAdjust="spacing" textLength="105.8726" x="975.394" y="781.377">Community Data</text></g><g class="message" data-participant-1="AuthService" data-participant-2="Redis"><polygon fill="#181818" points="1575.6396,811.4297,1585.6396,815.4297,1575.6396,819.4297,1579.6396,815.4297" style="stroke:#181818;stroke-width:1;"/><line style="stroke:#181818;stroke-width:1;" x1="434.2856" x2="1581.6396" y1="815.4297" y2="815.4297"/><text fill="#000000" font-family="sans-serif" font-size="13" lengthAdjust="spacing" textLength="89.5654" x="441.2856" y="810.6875">Session Cache</text></g><g class="message" data-participant-1="MatchingEngine" data-participant-2="Redis"><polygon fill="#181818" points="1575.6396,840.7402,1585.6396,844.7402,1575.6396,848.7402,1579.6396,844.7402" style="stroke:#181818;stroke-width:1;"/><line style="stroke:#181818;stroke-width:1;" x1="675.3325" x2="1581.6396" y1="844.7402" y2="844.7402"/><text fill="#000000" font-family="sans-serif" font-size="13" lengthAdjust="spacing" textLength="80.2217" x="682.3325" y="839.998">Match Cache</text></g><g class="message" data-participant-1="MessagingService" data-participant-2="Redis"><polygon fill="#181818" points="1575.6396,870.0508,1585.6396,874.0508,1575.6396,878.0508,1579.6396,874.0508" style="stroke:#181818;stroke-width:1;"/><line style="stroke:#181818;stroke-width:1;" x1="817.4028" x2="1581.6396" y1="874.0508" y2="874.0508"/><text fill="#000000" font-family="sans-serif" font-size="13" lengthAdjust="spacing" textLength="104.1777" x="824.4028" y="869.3086">Real-time Cache</text></g><g class="message" data-participant-1="ProfileService" data-participant-2="BlobStorage"><polygon fill="#181818" points="1705.5352,899.3613,1715.5352,903.3613,1705.5352,907.3613,1709.5352,903.3613" style="stroke:#181818;stroke-width:1;"/><line style="stroke:#181818;stroke-width:1;" x1="547.7373" x2="1711.5352" y1="903.3613" y2="903.3613"/><text fill="#000000" font-family="sans-serif" font-size="13" lengthAdjust="spacing" textLength="87.4771" x="554.7373" y="898.6191">Video Storage</text></g><g class="message" data-participant-1="AuthService" data-participant-2="AzureAD"><polygon fill="#181818" points="1992.0547,928.6719,2002.0547,932.6719,1992.0547,936.6719,1996.0547,932.6719" style="stroke:#181818;stroke-width:1;"/><line style="stroke:#181818;stroke-width:1;" x1="434.2856" x2="1998.0547" y1="932.6719" y2="932.6719"/><text fill="#000000" font-family="sans-serif" font-size="13" lengthAdjust="spacing" textLength="132.9072" x="441.2856" y="927.9297">Identity Management</text></g><g class="message" data-participant-1="PersonalityAI" data-participant-2="GeminiAPI"><polygon fill="#181818" points="1857.3296,957.9824,1867.3296,961.9824,1857.3296,965.9824,1861.3296,961.9824" style="stroke:#181818;stroke-width:1;"/><line style="stroke:#181818;stroke-width:1;" x1="1103.5703" x2="1863.3296" y1="961.9824" y2="961.9824"/><text fill="#000000" font-family="sans-serif" font-size="13" lengthAdjust="spacing" textLength="84.4048" x="1110.5703" y="957.2402">AI Processing</text></g><g class="message" data-participant-1="ConversationAI" data-participant-2="GeminiAPI"><polygon fill="#181818" points="1857.3296,987.293,1867.3296,991.293,1857.3296,995.293,1861.3296,991.293" style="stroke:#181818;stroke-width:1;"/><line style="stroke:#181818;stroke-width:1;" x1="1323.3779" x2="1863.3296" y1="991.293" y2="991.293"/><text fill="#000000" font-family="sans-serif" font-size="13" lengthAdjust="spacing" textLength="84.4048" x="1330.3779" y="986.5508">AI Processing</text></g><g class="message" data-participant-1="ProfileService" data-participant-2="GHL"><polygon fill="#181818" points="2123.731,1016.6035,2133.731,1020.6035,2123.731,1024.6035,2127.731,1020.6035" style="stroke:#181818;stroke-width:1;"/><line style="stroke:#181818;stroke-width:1;" x1="547.7373" x2="2129.731" y1="1020.6035" y2="1020.6035"/><text fill="#000000" font-family="sans-serif" font-size="13" lengthAdjust="spacing" textLength="101.7212" x="554.7373" y="1015.8613">CRM Integration</text></g><!--SRC=[VPHBRzim3CVl_XJ4pYa6xDZ30EUn9a2o5NNNdXM7TOJPLY0fRRDFF-fboxAmKoBw9ugFFwcvRX5U-14FJDTdk8FgfZHsKChwp3NM-YeHVhsZVEVuKHGN9ZMl-ONr6huy8QirlE8Hoilb2p05raA7ARVvl4XK2ih7dQNeTmgGYqhKVr13HG-XjDHhDONAgpxRxxn6vuOC_Zmb7wLuuvHM37jRbhUfyxw1JT_mtl71vam9Jycmnbo8NnYisJTMekkkFTUtoPt1ciy3fH8zQysjqfKkCfMxz8LU8_tnf3zcA2gmOfgBFa87MygNVuq0La9rGi5wwNbpMYzJDPmuVMFr6RqMw9npjcp54Iej96iSQGp-FEKVX6YeZm_OyPuFyd77cOYSyt8DosyhfmzZADUfoorlpdjynnPMJmVdSBilYbve145r64GCzx1gkIdfdjrGHWIzlI1z4a3_u85f_62t-FkepCMinyQja8CwLNHlqjr5qXVpskxhOJ-B9hHZ4HUIw3NJBDGvmeVoBKpYn6q-DKfwTOoe64fmzzscU0_Rv-V72fusrRCTtnYmXHX7cABkQMzGp4LXxXeNOprC5dIYglBQ9XQOwO0I5gRum7fAeACR0PtE9g730Ez5m-i1ImRIWDQ4i6NzgQKl0StsA0pi3sHc2r9PADEyNof7UwTvX-455TXigF1JQFxc2q1-4yfK8rQ2Y-P2z96xPK1VRegcAocQpSIFlRtaDi91d52wOizYTrTIcK5rRIW97rxSFiixlH7vMv6WZCwoaGnOQAKbvyb6f2kFuxAXZgHlfMLd_PkoOoyjdIRaDjSzwLyfinRj3il46JWNfASoKGPkL8LZCqMQJkmBFw4OHZODq-ypudOdCp-KJZGRKyKGFiovwoYzNPlyIFH9m__BpaDsIuDs9-n8NeqNrZy0]--></g></svg>