<svg xmlns="http://www.w3.org/2000/svg" xmlns:xlink="http://www.w3.org/1999/xlink" contentStyleType="text/css" data-diagram-type="SEQUENCE" height="850px" preserveAspectRatio="none" style="width:1437px;height:850px;background:#FFFFFF;" version="1.1" viewBox="0 0 1437 850" width="1437px" zoomAndPan="magnify"><title>VibeMatch - Matching Algorithm Flow</title><defs/><g><text fill="#000000" font-family="sans-serif" font-size="14" font-weight="bold" lengthAdjust="spacing" textLength="274.7227" x="578.0056" y="28.5352">VibeMatch - Matching Algorithm Flow</text><g><title>SwipeComponent</title><rect fill="#FFFFFF" height="692.1426" style="stroke:#181818;stroke-width:1;" width="10" x="243.5039" y="105.2871"/></g><g><title>MatchingAPI</title><rect fill="#FFFFFF" height="633.5215" style="stroke:#181818;stroke-width:1;" width="10" x="458.0313" y="134.5977"/></g><g><title>MatchingEngine</title><rect fill="#FFFFFF" height="574.9004" style="stroke:#181818;stroke-width:1;" width="10" x="673.0239" y="163.9082"/></g><g><title>RedisCache</title><rect fill="#FFFFFF" height="29.3105" style="stroke:#181818;stroke-width:1;" width="10" x="907.4956" y="193.2188"/></g><g><title>CosmosDB</title><rect fill="#FFFFFF" height="29.3105" style="stroke:#181818;stroke-width:1;" width="10" x="1006.7422" y="287.1504"/></g><g><title>CosmosDB</title><rect fill="#FFFFFF" height="29.3105" style="stroke:#181818;stroke-width:1;" width="10" x="1006.7422" y="469.0137"/></g><g><title>CosmosDB</title><rect fill="#FFFFFF" height="29.3105" style="stroke:#181818;stroke-width:1;" width="10" x="1006.7422" y="527.6348"/></g><g><title>CosmosDB</title><rect fill="#FFFFFF" height="29.3105" style="stroke:#181818;stroke-width:1;" width="10" x="1006.7422" y="680.1875"/></g><g><title>GeminiAI</title><rect fill="#FFFFFF" height="32.3105" style="stroke:#181818;stroke-width:1;" width="10" x="1097.8574" y="407.3926"/></g><g><title>GeminiAI</title><rect fill="#FFFFFF" height="29.3105" style="stroke:#181818;stroke-width:1;" width="10" x="1097.8574" y="621.5664"/></g><g><title>User</title><rect fill="#000000" fill-opacity="0.00000" height="741.4531" width="8" x="23.1826" y="73.9766"/><line style="stroke:#181818;stroke-width:0.5;stroke-dasharray:5,5;" x1="27" x2="27" y1="73.9766" y2="815.4297"/></g><g><title>SwipeComponent</title><rect fill="#000000" fill-opacity="0.00000" height="741.4531" width="8" x="244.5039" y="73.9766"/><line style="stroke:#181818;stroke-width:0.5;stroke-dasharray:5,5;" x1="248.4209" x2="248.4209" y1="73.9766" y2="815.4297"/></g><g><title>MatchingAPI</title><rect fill="#000000" fill-opacity="0.00000" height="741.4531" width="8" x="459.0313" y="73.9766"/><line style="stroke:#181818;stroke-width:0.5;stroke-dasharray:5,5;" x1="462.1406" x2="462.1406" y1="73.9766" y2="815.4297"/></g><g><title>MatchingEngine</title><rect fill="#000000" fill-opacity="0.00000" height="741.4531" width="8" x="674.0239" y="73.9766"/><line style="stroke:#181818;stroke-width:0.5;stroke-dasharray:5,5;" x1="677.0781" x2="677.0781" y1="73.9766" y2="815.4297"/></g><g><title>RedisCache</title><rect fill="#000000" fill-opacity="0.00000" height="741.4531" width="8" x="908.4956" y="73.9766"/><line style="stroke:#181818;stroke-width:0.5;stroke-dasharray:5,5;" x1="911.6333" x2="911.6333" y1="73.9766" y2="815.4297"/></g><g><title>CosmosDB</title><rect fill="#000000" fill-opacity="0.00000" height="741.4531" width="8" x="1007.7422" y="73.9766"/><line style="stroke:#181818;stroke-width:0.5;stroke-dasharray:5,5;" x1="1011.3579" x2="1011.3579" y1="73.9766" y2="815.4297"/></g><g><title>GeminiAI</title><rect fill="#000000" fill-opacity="0.00000" height="741.4531" width="8" x="1098.8574" y="73.9766"/><line style="stroke:#181818;stroke-width:0.5;stroke-dasharray:5,5;" x1="1102.1265" x2="1102.1265" y1="73.9766" y2="815.4297"/></g><g class="participant participant-head" data-participant="User"><rect fill="#E2E2F0" height="30.4883" rx="2.5" ry="2.5" style="stroke:#181818;stroke-width:0.5;" width="44.3652" x="5" y="42.4883"/><text fill="#000000" font-family="sans-serif" font-size="14" lengthAdjust="spacing" textLength="30.3652" x="12" y="63.0234">User</text></g><g class="participant participant-tail" data-participant="User"><rect fill="#E2E2F0" height="30.4883" rx="2.5" ry="2.5" style="stroke:#181818;stroke-width:0.5;" width="44.3652" x="5" y="814.4297"/><text fill="#000000" font-family="sans-serif" font-size="14" lengthAdjust="spacing" textLength="30.3652" x="12" y="834.9648">User</text></g><g class="participant participant-head" data-participant="SwipeComponent"><rect fill="#E2E2F0" height="30.4883" rx="2.5" ry="2.5" style="stroke:#181818;stroke-width:0.5;" width="132.166" x="182.4209" y="42.4883"/><text fill="#000000" font-family="sans-serif" font-size="14" lengthAdjust="spacing" textLength="118.166" x="189.4209" y="63.0234">SwipeComponent</text></g><g class="participant participant-tail" data-participant="SwipeComponent"><rect fill="#E2E2F0" height="30.4883" rx="2.5" ry="2.5" style="stroke:#181818;stroke-width:0.5;" width="132.166" x="182.4209" y="814.4297"/><text fill="#000000" font-family="sans-serif" font-size="14" lengthAdjust="spacing" textLength="118.166" x="189.4209" y="834.9648">SwipeComponent</text></g><g class="participant participant-head" data-participant="MatchingAPI"><rect fill="#E2E2F0" height="30.4883" rx="2.5" ry="2.5" style="stroke:#181818;stroke-width:0.5;" width="97.7813" x="414.1406" y="42.4883"/><text fill="#000000" font-family="sans-serif" font-size="14" lengthAdjust="spacing" textLength="83.7813" x="421.1406" y="63.0234">MatchingAPI</text></g><g class="participant participant-tail" data-participant="MatchingAPI"><rect fill="#E2E2F0" height="30.4883" rx="2.5" ry="2.5" style="stroke:#181818;stroke-width:0.5;" width="97.7813" x="414.1406" y="814.4297"/><text fill="#000000" font-family="sans-serif" font-size="14" lengthAdjust="spacing" textLength="83.7813" x="421.1406" y="834.9648">MatchingAPI</text></g><g class="participant participant-head" data-participant="MatchingEngine"><rect fill="#E2E2F0" height="30.4883" rx="2.5" ry="2.5" style="stroke:#181818;stroke-width:0.5;" width="121.8916" x="617.0781" y="42.4883"/><text fill="#000000" font-family="sans-serif" font-size="14" lengthAdjust="spacing" textLength="107.8916" x="624.0781" y="63.0234">MatchingEngine</text></g><g class="participant participant-tail" data-participant="MatchingEngine"><rect fill="#E2E2F0" height="30.4883" rx="2.5" ry="2.5" style="stroke:#181818;stroke-width:0.5;" width="121.8916" x="617.0781" y="814.4297"/><text fill="#000000" font-family="sans-serif" font-size="14" lengthAdjust="spacing" textLength="107.8916" x="624.0781" y="834.9648">MatchingEngine</text></g><g class="participant participant-head" data-participant="RedisCache"><rect fill="#E2E2F0" height="30.4883" rx="2.5" ry="2.5" style="stroke:#181818;stroke-width:0.5;" width="91.7246" x="866.6333" y="42.4883"/><text fill="#000000" font-family="sans-serif" font-size="14" lengthAdjust="spacing" textLength="77.7246" x="873.6333" y="63.0234">RedisCache</text></g><g class="participant participant-tail" data-participant="RedisCache"><rect fill="#E2E2F0" height="30.4883" rx="2.5" ry="2.5" style="stroke:#181818;stroke-width:0.5;" width="91.7246" x="866.6333" y="814.4297"/><text fill="#000000" font-family="sans-serif" font-size="14" lengthAdjust="spacing" textLength="77.7246" x="873.6333" y="834.9648">RedisCache</text></g><g class="participant participant-head" data-participant="CosmosDB"><rect fill="#E2E2F0" height="30.4883" rx="2.5" ry="2.5" style="stroke:#181818;stroke-width:0.5;" width="86.7686" x="968.3579" y="42.4883"/><text fill="#000000" font-family="sans-serif" font-size="14" lengthAdjust="spacing" textLength="72.7686" x="975.3579" y="63.0234">CosmosDB</text></g><g class="participant participant-tail" data-participant="CosmosDB"><rect fill="#E2E2F0" height="30.4883" rx="2.5" ry="2.5" style="stroke:#181818;stroke-width:0.5;" width="86.7686" x="968.3579" y="814.4297"/><text fill="#000000" font-family="sans-serif" font-size="14" lengthAdjust="spacing" textLength="72.7686" x="975.3579" y="834.9648">CosmosDB</text></g><g class="participant participant-head" data-participant="GeminiAI"><rect fill="#E2E2F0" height="30.4883" rx="2.5" ry="2.5" style="stroke:#181818;stroke-width:0.5;" width="75.4619" x="1065.1265" y="42.4883"/><text fill="#000000" font-family="sans-serif" font-size="14" lengthAdjust="spacing" textLength="61.4619" x="1072.1265" y="63.0234">GeminiAI</text></g><g class="participant participant-tail" data-participant="GeminiAI"><rect fill="#E2E2F0" height="30.4883" rx="2.5" ry="2.5" style="stroke:#181818;stroke-width:0.5;" width="75.4619" x="1065.1265" y="814.4297"/><text fill="#000000" font-family="sans-serif" font-size="14" lengthAdjust="spacing" textLength="61.4619" x="1072.1265" y="834.9648">GeminiAI</text></g><g><title>SwipeComponent</title><rect fill="#FFFFFF" height="692.1426" style="stroke:#181818;stroke-width:1;" width="10" x="243.5039" y="105.2871"/></g><g><title>MatchingAPI</title><rect fill="#FFFFFF" height="633.5215" style="stroke:#181818;stroke-width:1;" width="10" x="458.0313" y="134.5977"/></g><g><title>MatchingEngine</title><rect fill="#FFFFFF" height="574.9004" style="stroke:#181818;stroke-width:1;" width="10" x="673.0239" y="163.9082"/></g><g><title>RedisCache</title><rect fill="#FFFFFF" height="29.3105" style="stroke:#181818;stroke-width:1;" width="10" x="907.4956" y="193.2188"/></g><g><title>CosmosDB</title><rect fill="#FFFFFF" height="29.3105" style="stroke:#181818;stroke-width:1;" width="10" x="1006.7422" y="287.1504"/></g><g><title>CosmosDB</title><rect fill="#FFFFFF" height="29.3105" style="stroke:#181818;stroke-width:1;" width="10" x="1006.7422" y="469.0137"/></g><g><title>CosmosDB</title><rect fill="#FFFFFF" height="29.3105" style="stroke:#181818;stroke-width:1;" width="10" x="1006.7422" y="527.6348"/></g><g><title>CosmosDB</title><rect fill="#FFFFFF" height="29.3105" style="stroke:#181818;stroke-width:1;" width="10" x="1006.7422" y="680.1875"/></g><g><title>GeminiAI</title><rect fill="#FFFFFF" height="32.3105" style="stroke:#181818;stroke-width:1;" width="10" x="1097.8574" y="407.3926"/></g><g><title>GeminiAI</title><rect fill="#FFFFFF" height="29.3105" style="stroke:#181818;stroke-width:1;" width="10" x="1097.8574" y="621.5664"/></g><g class="message" data-participant-1="User" data-participant-2="SwipeComponent"><polygon fill="#181818" points="231.5039,101.2871,241.5039,105.2871,231.5039,109.2871,235.5039,105.2871" style="stroke:#181818;stroke-width:1;"/><line style="stroke:#181818;stroke-width:1;" x1="27.1826" x2="237.5039" y1="105.2871" y2="105.2871"/><text fill="#000000" font-family="sans-serif" font-size="13" lengthAdjust="spacing" textLength="135.7319" x="34.1826" y="100.5449">Swipe right on profile</text></g><g class="message" data-participant-1="SwipeComponent" data-participant-2="MatchingAPI"><polygon fill="#181818" points="446.0313,130.5977,456.0313,134.5977,446.0313,138.5977,450.0313,134.5977" style="stroke:#181818;stroke-width:1;"/><line style="stroke:#181818;stroke-width:1;" x1="253.5039" x2="452.0313" y1="134.5977" y2="134.5977"/><text fill="#000000" font-family="sans-serif" font-size="13" lengthAdjust="spacing" textLength="181.2256" x="260.5039" y="129.8555">POST /api/matches/evaluate</text></g><g class="message" data-participant-1="MatchingAPI" data-participant-2="MatchingEngine"><polygon fill="#181818" points="661.0239,159.9082,671.0239,163.9082,661.0239,167.9082,665.0239,163.9082" style="stroke:#181818;stroke-width:1;"/><line style="stroke:#181818;stroke-width:1;" x1="468.0313" x2="667.0239" y1="163.9082" y2="163.9082"/><text fill="#000000" font-family="sans-serif" font-size="13" lengthAdjust="spacing" textLength="185.9927" x="475.0313" y="159.166">calculateMatchCompatibility()</text></g><g class="message" data-participant-1="MatchingEngine" data-participant-2="RedisCache"><polygon fill="#181818" points="895.4956,189.2188,905.4956,193.2188,895.4956,197.2188,899.4956,193.2188" style="stroke:#181818;stroke-width:1;"/><line style="stroke:#181818;stroke-width:1;" x1="683.0239" x2="901.4956" y1="193.2188" y2="193.2188"/><text fill="#000000" font-family="sans-serif" font-size="13" lengthAdjust="spacing" textLength="154.5972" x="690.0239" y="188.4766">getUserPersonalityData()</text></g><g class="message" data-participant-1="RedisCache" data-participant-2="MatchingEngine"><polygon fill="#181818" points="694.0239,218.5293,684.0239,222.5293,694.0239,226.5293,690.0239,222.5293" style="stroke:#181818;stroke-width:1;"/><line style="stroke:#181818;stroke-width:1;stroke-dasharray:2,2;" x1="688.0239" x2="911.4956" y1="222.5293" y2="222.5293"/><text fill="#000000" font-family="sans-serif" font-size="13" lengthAdjust="spacing" textLength="200.4717" x="700.0239" y="217.7871">personalityData (cached or null)</text></g><path d="M559,235.5293 L559,260.5293 L796,260.5293 L796,245.5293 L786,235.5293 L559,235.5293" fill="#FEFFDD" style="stroke:#181818;stroke-width:0.5;"/><path d="M786,235.5293 L786,245.5293 L796,245.5293 L786,235.5293" fill="#FEFFDD" style="stroke:#181818;stroke-width:0.5;"/><text fill="#000000" font-family="sans-serif" font-size="13" lengthAdjust="spacing" textLength="216.6265" x="565" y="253.0977">If cache miss, fetch from database</text><g class="message" data-participant-1="MatchingEngine" data-participant-2="CosmosDB"><polygon fill="#181818" points="994.7422,283.1504,1004.7422,287.1504,994.7422,291.1504,998.7422,287.1504" style="stroke:#181818;stroke-width:1;"/><line style="stroke:#181818;stroke-width:1;" x1="683.0239" x2="1000.7422" y1="287.1504" y2="287.1504"/><text fill="#000000" font-family="sans-serif" font-size="13" lengthAdjust="spacing" textLength="155.4985" x="690.0239" y="282.4082">fetchPersonalityProfiles()</text></g><g class="message" data-participant-1="CosmosDB" data-participant-2="MatchingEngine"><polygon fill="#181818" points="694.0239,312.4609,684.0239,316.4609,694.0239,320.4609,690.0239,316.4609" style="stroke:#181818;stroke-width:1;"/><line style="stroke:#181818;stroke-width:1;stroke-dasharray:2,2;" x1="688.0239" x2="1010.7422" y1="316.4609" y2="316.4609"/><text fill="#000000" font-family="sans-serif" font-size="13" lengthAdjust="spacing" textLength="116.4287" x="700.0239" y="311.7188">personalityProfiles</text></g><g class="message" data-participant-1="MatchingEngine" data-participant-2="RedisCache"><polygon fill="#181818" points="900.4956,341.7715,910.4956,345.7715,900.4956,349.7715,904.4956,345.7715" style="stroke:#181818;stroke-width:1;"/><line style="stroke:#181818;stroke-width:1;" x1="683.0239" x2="906.4956" y1="345.7715" y2="345.7715"/><text fill="#000000" font-family="sans-serif" font-size="13" lengthAdjust="spacing" textLength="138.2266" x="690.0239" y="341.0293">storePersonalityData()</text></g><g class="message" data-participant-1="RedisCache" data-participant-2="MatchingEngine"><polygon fill="#181818" points="694.0239,371.082,684.0239,375.082,694.0239,379.082,690.0239,375.082" style="stroke:#181818;stroke-width:1;"/><line style="stroke:#181818;stroke-width:1;stroke-dasharray:2,2;" x1="688.0239" x2="911.4956" y1="375.082" y2="375.082"/><text fill="#000000" font-family="sans-serif" font-size="13" lengthAdjust="spacing" textLength="43.9893" x="700.0239" y="370.3398">cached</text></g><g class="message" data-participant-1="MatchingEngine" data-participant-2="GeminiAI"><polygon fill="#181818" points="1085.8574,403.3926,1095.8574,407.3926,1085.8574,411.3926,1089.8574,407.3926" style="stroke:#181818;stroke-width:1;"/><line style="stroke:#181818;stroke-width:1;" x1="683.0239" x2="1091.8574" y1="407.3926" y2="407.3926"/><text fill="#000000" font-family="sans-serif" font-size="13" lengthAdjust="spacing" textLength="182.2349" x="690.0239" y="402.6504">calculateCompatibilityScore()</text></g><path d="M1112,388.082 L1112,413.082 L1430,413.082 L1430,398.082 L1420,388.082 L1112,388.082" fill="#FEFFDD" style="stroke:#181818;stroke-width:0.5;"/><path d="M1420,388.082 L1420,398.082 L1430,398.082 L1420,388.082" fill="#FEFFDD" style="stroke:#181818;stroke-width:0.5;"/><text fill="#000000" font-family="sans-serif" font-size="13" lengthAdjust="spacing" textLength="297.8765" x="1118" y="405.6504">Send personality profiles to Gemini for analysis</text><g class="message" data-participant-1="GeminiAI" data-participant-2="MatchingEngine"><polygon fill="#181818" points="694.0239,435.7031,684.0239,439.7031,694.0239,443.7031,690.0239,439.7031" style="stroke:#181818;stroke-width:1;"/><line style="stroke:#181818;stroke-width:1;stroke-dasharray:2,2;" x1="688.0239" x2="1101.8574" y1="439.7031" y2="439.7031"/><text fill="#000000" font-family="sans-serif" font-size="13" lengthAdjust="spacing" textLength="115.3623" x="700.0239" y="434.9609">score and insights</text></g><g class="message" data-participant-1="MatchingEngine" data-participant-2="CosmosDB"><polygon fill="#181818" points="994.7422,465.0137,1004.7422,469.0137,994.7422,473.0137,998.7422,469.0137" style="stroke:#181818;stroke-width:1;"/><line style="stroke:#181818;stroke-width:1;" x1="683.0239" x2="1000.7422" y1="469.0137" y2="469.0137"/><text fill="#000000" font-family="sans-serif" font-size="13" lengthAdjust="spacing" textLength="116.9111" x="690.0239" y="464.2715">recordInteraction()</text></g><g class="message" data-participant-1="CosmosDB" data-participant-2="MatchingEngine"><polygon fill="#181818" points="694.0239,494.3242,684.0239,498.3242,694.0239,502.3242,690.0239,498.3242" style="stroke:#181818;stroke-width:1;"/><line style="stroke:#181818;stroke-width:1;stroke-dasharray:2,2;" x1="688.0239" x2="1010.7422" y1="498.3242" y2="498.3242"/><text fill="#000000" font-family="sans-serif" font-size="13" lengthAdjust="spacing" textLength="126.7944" x="700.0239" y="493.582">interactionRecorded</text></g><g class="message" data-participant-1="MatchingEngine" data-participant-2="CosmosDB"><polygon fill="#181818" points="994.7422,523.6348,1004.7422,527.6348,994.7422,531.6348,998.7422,527.6348" style="stroke:#181818;stroke-width:1;"/><line style="stroke:#181818;stroke-width:1;" x1="683.0239" x2="1000.7422" y1="527.6348" y2="527.6348"/><text fill="#000000" font-family="sans-serif" font-size="13" lengthAdjust="spacing" textLength="125.7788" x="690.0239" y="522.8926">checkMutualMatch()</text></g><g class="message" data-participant-1="CosmosDB" data-participant-2="MatchingEngine"><polygon fill="#181818" points="694.0239,552.9453,684.0239,556.9453,694.0239,560.9453,690.0239,556.9453" style="stroke:#181818;stroke-width:1;"/><line style="stroke:#181818;stroke-width:1;stroke-dasharray:2,2;" x1="688.0239" x2="1010.7422" y1="556.9453" y2="556.9453"/><text fill="#000000" font-family="sans-serif" font-size="13" lengthAdjust="spacing" textLength="120.8149" x="700.0239" y="552.2031">mutualMatchResult</text></g><path d="M597,569.9453 L597,594.9453 L758,594.9453 L758,579.9453 L748,569.9453 L597,569.9453" fill="#FEFFDD" style="stroke:#181818;stroke-width:0.5;"/><path d="M748,569.9453 L748,579.9453 L758,579.9453 L748,569.9453" fill="#FEFFDD" style="stroke:#181818;stroke-width:0.5;"/><text fill="#000000" font-family="sans-serif" font-size="13" lengthAdjust="spacing" textLength="140.9243" x="603" y="587.5137">If mutual match found</text><g class="message" data-participant-1="MatchingEngine" data-participant-2="GeminiAI"><polygon fill="#181818" points="1085.8574,617.5664,1095.8574,621.5664,1085.8574,625.5664,1089.8574,621.5664" style="stroke:#181818;stroke-width:1;"/><line style="stroke:#181818;stroke-width:1;" x1="683.0239" x2="1091.8574" y1="621.5664" y2="621.5664"/><text fill="#000000" font-family="sans-serif" font-size="13" lengthAdjust="spacing" textLength="151.5439" x="690.0239" y="616.8242">generateMatchInsights()</text></g><g class="message" data-participant-1="GeminiAI" data-participant-2="MatchingEngine"><polygon fill="#181818" points="694.0239,646.877,684.0239,650.877,694.0239,654.877,690.0239,650.877" style="stroke:#181818;stroke-width:1;"/><line style="stroke:#181818;stroke-width:1;stroke-dasharray:2,2;" x1="688.0239" x2="1101.8574" y1="650.877" y2="650.877"/><text fill="#000000" font-family="sans-serif" font-size="13" lengthAdjust="spacing" textLength="236.6597" x="700.0239" y="646.1348">icebreakers and conversation starters</text></g><g class="message" data-participant-1="MatchingEngine" data-participant-2="CosmosDB"><polygon fill="#181818" points="994.7422,676.1875,1004.7422,680.1875,994.7422,684.1875,998.7422,680.1875" style="stroke:#181818;stroke-width:1;"/><line style="stroke:#181818;stroke-width:1;" x1="683.0239" x2="1000.7422" y1="680.1875" y2="680.1875"/><text fill="#000000" font-family="sans-serif" font-size="13" lengthAdjust="spacing" textLength="128.5337" x="690.0239" y="675.4453">createMatchRecord()</text></g><g class="message" data-participant-1="CosmosDB" data-participant-2="MatchingEngine"><polygon fill="#181818" points="694.0239,705.498,684.0239,709.498,694.0239,713.498,690.0239,709.498" style="stroke:#181818;stroke-width:1;"/><line style="stroke:#181818;stroke-width:1;stroke-dasharray:2,2;" x1="688.0239" x2="1010.7422" y1="709.498" y2="709.498"/><text fill="#000000" font-family="sans-serif" font-size="13" lengthAdjust="spacing" textLength="87.9277" x="700.0239" y="704.7559">matchCreated</text></g><g class="message" data-participant-1="MatchingEngine" data-participant-2="MatchingAPI"><polygon fill="#181818" points="479.0313,734.8086,469.0313,738.8086,479.0313,742.8086,475.0313,738.8086" style="stroke:#181818;stroke-width:1;"/><line style="stroke:#181818;stroke-width:1;stroke-dasharray:2,2;" x1="473.0313" x2="677.0239" y1="738.8086" y2="738.8086"/><text fill="#000000" font-family="sans-serif" font-size="13" lengthAdjust="spacing" textLength="77.6826" x="485.0313" y="734.0664">matchResult</text></g><g class="message" data-participant-1="MatchingAPI" data-participant-2="SwipeComponent"><polygon fill="#181818" points="264.5039,764.1191,254.5039,768.1191,264.5039,772.1191,260.5039,768.1191" style="stroke:#181818;stroke-width:1;"/><line style="stroke:#181818;stroke-width:1;stroke-dasharray:2,2;" x1="258.5039" x2="462.0313" y1="768.1191" y2="768.1191"/><text fill="#000000" font-family="sans-serif" font-size="13" lengthAdjust="spacing" textLength="180.5273" x="270.5039" y="763.377">match result with AI insights</text></g><g class="message" data-participant-1="SwipeComponent" data-participant-2="User"><polygon fill="#181818" points="38.1826,793.4297,28.1826,797.4297,38.1826,801.4297,34.1826,797.4297" style="stroke:#181818;stroke-width:1;"/><line style="stroke:#181818;stroke-width:1;stroke-dasharray:2,2;" x1="32.1826" x2="247.5039" y1="797.4297" y2="797.4297"/><text fill="#000000" font-family="sans-serif" font-size="13" lengthAdjust="spacing" textLength="192.3213" x="44.1826" y="792.6875">Show match result or continue</text></g><!--SRC=[dPLDZnen38Rl-HK-xaf5t7keHDbsnM5L16tl8MC6QpF9ACc0zj_NoV2H6L9OSK8uuoVswuy42XhXBstmJGQrWmcaNp8rp7Hj7OLT0p-rFGZHIXT8KIjDW3yUtS2mFb2BSzkqrg09WwCJSBPS5Eq_J4q61qShhCZFfTeDpNFh6-jVlW-ChzYGeTb2Y1WKJBwDOe6llG4SrRi0ra3hx9Oq2ga2xMN0SV1Y161abWFpbh_Mls4gMvesqOv-YdkfEqPTc7dM8dVFQ7tc35HIgqwpMpg9Dyj06z8KFfwUhvb7nSI8m-IBS4ojCKH9bkYyDJB2NcIGEJ3JEVESb49iXnHuKl7R2gm3qsdzB2eiOOMnRB1xhimLSh651866lFy2MumDk7MsWOfls4YFXGnFFS3-oI7BRjdNrUSPdblcx7SlknCbJ-XCkIUv3zRXjU3tnEsrBD5FtPqtoQ0_reflp3C-pqDIlczw7W4qLPxbQGWy17jqWItNKlBnXoSlpXSN0_RnLlwu0Z8-NZ6GwpAID-lda2dLmWHqqTMQ1mf75-zLmh6CdonS5WchhzxVkj19dRvx893cuhr2t-bG3kFsEFGGI5k5oz6PwdPBr6Wu- -FQM1mhKMo6s-KaXHk7yftx8nLLMSCXUXbbvPxcRSl_7gYmOkWnkhuwZmYRLc82VRAqL_kwALVbV-iqRUdIEzBNnIKG7FXf11QqD023vJz-JPYSNYeUofqz3A4yWQnz8DDXpXizKFy0]--></g></svg>