<svg xmlns="http://www.w3.org/2000/svg" xmlns:xlink="http://www.w3.org/1999/xlink" contentStyleType="text/css" data-diagram-type="SEQUENCE" height="958px" preserveAspectRatio="none" style="width:1528px;height:958px;background:#FFFFFF;" version="1.1" viewBox="0 0 1528 958" width="1528px" zoomAndPan="magnify"><title>VibeMatch - Real-Time Messaging System</title><defs/><g><text fill="#000000" font-family="sans-serif" font-size="14" font-weight="bold" lengthAdjust="spacing" textLength="306.7695" x="609.9126" y="28.5352">VibeMatch - Real-Time Messaging System</text><g><title>React Chat Component</title><rect fill="#FFFFFF" height="799.3848" style="stroke:#181818;stroke-width:1;" width="10" x="208.6963" y="105.2871"/></g><g><title>WebSocket Client A</title><rect fill="#FFFFFF" height="770.0742" style="stroke:#181818;stroke-width:1;" width="10" x="382.7319" y="134.5977"/></g><g><title>WebSocket Server</title><rect fill="#FFFFFF" height="740.7637" style="stroke:#181818;stroke-width:1;" width="10" x="587.3887" y="163.9082"/></g><g><title>Messaging Service</title><rect fill="#FFFFFF" height="183.8633" style="stroke:#181818;stroke-width:1;" width="10" x="748.0752" y="193.2188"/></g><g><title>Conversation AI</title><rect fill="#FFFFFF" height="32.3105" style="stroke:#181818;stroke-width:1;" width="10" x="892.2788" y="249.8398"/></g><g><title>Cosmos DB</title><rect fill="#FFFFFF" height="29.3105" style="stroke:#181818;stroke-width:1;" width="10" x="1008.5332" y="318.4609"/></g><g><title>WebSocket Client B</title><rect fill="#FFFFFF" height="58.6211" style="stroke:#181818;stroke-width:1;" width="10" x="1135.8994" y="406.3926"/></g><g><title>React Chat Component</title><rect fill="#FFFFFF" height="29.3105" style="stroke:#181818;stroke-width:1;" width="10" x="1302.7534" y="435.7031"/></g><rect fill="none" height="81.9316" style="stroke:#000000;stroke-width:1.5;" width="532.8413" x="674.1655" y="208.2188"/><g><title>User A .Sarah.</title><rect fill="#000000" fill-opacity="0.00000" height="848.6953" width="8" x="55.7046" y="73.9766"/><line style="stroke:#181818;stroke-width:0.5;stroke-dasharray:5,5;" x1="59" x2="59" y1="73.9766" y2="922.6719"/></g><g><title>React Chat Component</title><rect fill="#000000" fill-opacity="0.00000" height="848.6953" width="8" x="209.6963" y="73.9766"/><line style="stroke:#181818;stroke-width:0.5;stroke-dasharray:5,5;" x1="213.6094" x2="213.6094" y1="73.9766" y2="922.6719"/></g><g><title>WebSocket Client A</title><rect fill="#000000" fill-opacity="0.00000" height="848.6953" width="8" x="383.7319" y="73.9766"/><line style="stroke:#181818;stroke-width:0.5;stroke-dasharray:5,5;" x1="387.1616" x2="387.1616" y1="73.9766" y2="922.6719"/></g><g><title>WebSocket Server</title><rect fill="#000000" fill-opacity="0.00000" height="848.6953" width="8" x="588.3887" y="73.9766"/><line style="stroke:#181818;stroke-width:0.5;stroke-dasharray:5,5;" x1="591.6938" x2="591.6938" y1="73.9766" y2="922.6719"/></g><g><title>Messaging Service</title><rect fill="#000000" fill-opacity="0.00000" height="848.6953" width="8" x="749.0752" y="73.9766"/><line style="stroke:#181818;stroke-width:0.5;stroke-dasharray:5,5;" x1="752.1655" x2="752.1655" y1="73.9766" y2="922.6719"/></g><g><title>Conversation AI</title><rect fill="#000000" fill-opacity="0.00000" height="848.6953" width="8" x="893.2788" y="73.9766"/><line style="stroke:#181818;stroke-width:0.5;stroke-dasharray:5,5;" x1="896.6235" x2="896.6235" y1="73.9766" y2="922.6719"/></g><g><title>Cosmos DB</title><rect fill="#000000" fill-opacity="0.00000" height="848.6953" width="8" x="1009.5332" y="73.9766"/><line style="stroke:#181818;stroke-width:0.5;stroke-dasharray:5,5;" x1="1012.9341" x2="1012.9341" y1="73.9766" y2="922.6719"/></g><g><title>WebSocket Client B</title><rect fill="#000000" fill-opacity="0.00000" height="848.6953" width="8" x="1136.8994" y="73.9766"/><line style="stroke:#181818;stroke-width:0.5;stroke-dasharray:5,5;" x1="1140.1323" x2="1140.1323" y1="73.9766" y2="922.6719"/></g><g><title>React Chat Component</title><rect fill="#000000" fill-opacity="0.00000" height="848.6953" width="8" x="1303.7534" y="73.9766"/><line style="stroke:#181818;stroke-width:0.5;stroke-dasharray:5,5;" x1="1307.6665" x2="1307.6665" y1="73.9766" y2="922.6719"/></g><g><title>User B .Taylor.</title><rect fill="#000000" fill-opacity="0.00000" height="848.6953" width="8" x="1462.2666" y="73.9766"/><line style="stroke:#181818;stroke-width:0.5;stroke-dasharray:5,5;" x1="1465.9385" x2="1465.9385" y1="73.9766" y2="922.6719"/></g><g class="participant participant-head" data-participant="UserA"><rect fill="#E2E2F0" height="30.4883" rx="2.5" ry="2.5" style="stroke:#181818;stroke-width:0.5;" width="109.4092" x="5" y="42.4883"/><text fill="#000000" font-family="sans-serif" font-size="14" lengthAdjust="spacing" textLength="95.4092" x="12" y="63.0234">User A (Sarah)</text></g><g class="participant participant-tail" data-participant="UserA"><rect fill="#E2E2F0" height="30.4883" rx="2.5" ry="2.5" style="stroke:#181818;stroke-width:0.5;" width="109.4092" x="5" y="921.6719"/><text fill="#000000" font-family="sans-serif" font-size="14" lengthAdjust="spacing" textLength="95.4092" x="12" y="942.207">User A (Sarah)</text></g><g class="participant participant-head" data-participant="ChatA"><rect fill="#E2E2F0" height="30.4883" rx="2.5" ry="2.5" style="stroke:#181818;stroke-width:0.5;" width="170.1738" x="128.6094" y="42.4883"/><text fill="#000000" font-family="sans-serif" font-size="14" lengthAdjust="spacing" textLength="156.1738" x="135.6094" y="63.0234">React Chat Component</text></g><g class="participant participant-tail" data-participant="ChatA"><rect fill="#E2E2F0" height="30.4883" rx="2.5" ry="2.5" style="stroke:#181818;stroke-width:0.5;" width="170.1738" x="128.6094" y="921.6719"/><text fill="#000000" font-family="sans-serif" font-size="14" lengthAdjust="spacing" textLength="156.1738" x="135.6094" y="942.207">React Chat Component</text></g><g class="participant participant-head" data-participant="WSA"><rect fill="#E2E2F0" height="30.4883" rx="2.5" ry="2.5" style="stroke:#181818;stroke-width:0.5;" width="145.1406" x="315.1616" y="42.4883"/><text fill="#000000" font-family="sans-serif" font-size="14" lengthAdjust="spacing" textLength="131.1406" x="322.1616" y="63.0234">WebSocket Client A</text></g><g class="participant participant-tail" data-participant="WSA"><rect fill="#E2E2F0" height="30.4883" rx="2.5" ry="2.5" style="stroke:#181818;stroke-width:0.5;" width="145.1406" x="315.1616" y="921.6719"/><text fill="#000000" font-family="sans-serif" font-size="14" lengthAdjust="spacing" textLength="131.1406" x="322.1616" y="942.207">WebSocket Client A</text></g><g class="participant participant-head" data-participant="WSServer"><rect fill="#E2E2F0" height="30.4883" rx="2.5" ry="2.5" style="stroke:#181818;stroke-width:0.5;" width="133.3896" x="525.6938" y="42.4883"/><text fill="#000000" font-family="sans-serif" font-size="14" lengthAdjust="spacing" textLength="119.3896" x="532.6938" y="63.0234">WebSocket Server</text></g><g class="participant participant-tail" data-participant="WSServer"><rect fill="#E2E2F0" height="30.4883" rx="2.5" ry="2.5" style="stroke:#181818;stroke-width:0.5;" width="133.3896" x="525.6938" y="921.6719"/><text fill="#000000" font-family="sans-serif" font-size="14" lengthAdjust="spacing" textLength="119.3896" x="532.6938" y="942.207">WebSocket Server</text></g><g class="participant participant-head" data-participant="MsgService"><rect fill="#E2E2F0" height="30.4883" rx="2.5" ry="2.5" style="stroke:#181818;stroke-width:0.5;" width="137.8193" x="684.1655" y="42.4883"/><text fill="#000000" font-family="sans-serif" font-size="14" lengthAdjust="spacing" textLength="123.8193" x="691.1655" y="63.0234">Messaging Service</text></g><g class="participant participant-tail" data-participant="MsgService"><rect fill="#E2E2F0" height="30.4883" rx="2.5" ry="2.5" style="stroke:#181818;stroke-width:0.5;" width="137.8193" x="684.1655" y="921.6719"/><text fill="#000000" font-family="sans-serif" font-size="14" lengthAdjust="spacing" textLength="123.8193" x="691.1655" y="942.207">Messaging Service</text></g><g class="participant participant-head" data-participant="AI"><rect fill="#E2E2F0" height="30.4883" rx="2.5" ry="2.5" style="stroke:#181818;stroke-width:0.5;" width="121.3105" x="836.6235" y="42.4883"/><text fill="#000000" font-family="sans-serif" font-size="14" lengthAdjust="spacing" textLength="107.3105" x="843.6235" y="63.0234">Conversation AI</text></g><g class="participant participant-tail" data-participant="AI"><rect fill="#E2E2F0" height="30.4883" rx="2.5" ry="2.5" style="stroke:#181818;stroke-width:0.5;" width="121.3105" x="836.6235" y="921.6719"/><text fill="#000000" font-family="sans-serif" font-size="14" lengthAdjust="spacing" textLength="107.3105" x="843.6235" y="942.207">Conversation AI</text></g><g class="participant participant-head" data-participant="DB"><rect fill="#E2E2F0" height="30.4883" rx="2.5" ry="2.5" style="stroke:#181818;stroke-width:0.5;" width="91.1982" x="967.9341" y="42.4883"/><text fill="#000000" font-family="sans-serif" font-size="14" lengthAdjust="spacing" textLength="77.1982" x="974.9341" y="63.0234">Cosmos DB</text></g><g class="participant participant-tail" data-participant="DB"><rect fill="#E2E2F0" height="30.4883" rx="2.5" ry="2.5" style="stroke:#181818;stroke-width:0.5;" width="91.1982" x="967.9341" y="921.6719"/><text fill="#000000" font-family="sans-serif" font-size="14" lengthAdjust="spacing" textLength="77.1982" x="974.9341" y="942.207">Cosmos DB</text></g><g class="participant participant-head" data-participant="WSB"><rect fill="#E2E2F0" height="30.4883" rx="2.5" ry="2.5" style="stroke:#181818;stroke-width:0.5;" width="143.5342" x="1069.1323" y="42.4883"/><text fill="#000000" font-family="sans-serif" font-size="14" lengthAdjust="spacing" textLength="129.5342" x="1076.1323" y="63.0234">WebSocket Client B</text></g><g class="participant participant-tail" data-participant="WSB"><rect fill="#E2E2F0" height="30.4883" rx="2.5" ry="2.5" style="stroke:#181818;stroke-width:0.5;" width="143.5342" x="1069.1323" y="921.6719"/><text fill="#000000" font-family="sans-serif" font-size="14" lengthAdjust="spacing" textLength="129.5342" x="1076.1323" y="942.207">WebSocket Client B</text></g><g class="participant participant-head" data-participant="ChatB"><rect fill="#E2E2F0" height="30.4883" rx="2.5" ry="2.5" style="stroke:#181818;stroke-width:0.5;" width="170.1738" x="1222.6665" y="42.4883"/><text fill="#000000" font-family="sans-serif" font-size="14" lengthAdjust="spacing" textLength="156.1738" x="1229.6665" y="63.0234">React Chat Component</text></g><g class="participant participant-tail" data-participant="ChatB"><rect fill="#E2E2F0" height="30.4883" rx="2.5" ry="2.5" style="stroke:#181818;stroke-width:0.5;" width="170.1738" x="1222.6665" y="921.6719"/><text fill="#000000" font-family="sans-serif" font-size="14" lengthAdjust="spacing" textLength="156.1738" x="1229.6665" y="942.207">React Chat Component</text></g><g class="participant participant-head" data-participant="UserB"><rect fill="#E2E2F0" height="30.4883" rx="2.5" ry="2.5" style="stroke:#181818;stroke-width:0.5;" width="112.6563" x="1409.9385" y="42.4883"/><text fill="#000000" font-family="sans-serif" font-size="14" lengthAdjust="spacing" textLength="98.6563" x="1416.9385" y="63.0234">User B (Taylor)</text></g><g class="participant participant-tail" data-participant="UserB"><rect fill="#E2E2F0" height="30.4883" rx="2.5" ry="2.5" style="stroke:#181818;stroke-width:0.5;" width="112.6563" x="1409.9385" y="921.6719"/><text fill="#000000" font-family="sans-serif" font-size="14" lengthAdjust="spacing" textLength="98.6563" x="1416.9385" y="942.207">User B (Taylor)</text></g><g><title>React Chat Component</title><rect fill="#FFFFFF" height="799.3848" style="stroke:#181818;stroke-width:1;" width="10" x="208.6963" y="105.2871"/></g><g><title>WebSocket Client A</title><rect fill="#FFFFFF" height="770.0742" style="stroke:#181818;stroke-width:1;" width="10" x="382.7319" y="134.5977"/></g><g><title>WebSocket Server</title><rect fill="#FFFFFF" height="740.7637" style="stroke:#181818;stroke-width:1;" width="10" x="587.3887" y="163.9082"/></g><g><title>Messaging Service</title><rect fill="#FFFFFF" height="183.8633" style="stroke:#181818;stroke-width:1;" width="10" x="748.0752" y="193.2188"/></g><g><title>Conversation AI</title><rect fill="#FFFFFF" height="32.3105" style="stroke:#181818;stroke-width:1;" width="10" x="892.2788" y="249.8398"/></g><g><title>Cosmos DB</title><rect fill="#FFFFFF" height="29.3105" style="stroke:#181818;stroke-width:1;" width="10" x="1008.5332" y="318.4609"/></g><g><title>WebSocket Client B</title><rect fill="#FFFFFF" height="58.6211" style="stroke:#181818;stroke-width:1;" width="10" x="1135.8994" y="406.3926"/></g><g><title>React Chat Component</title><rect fill="#FFFFFF" height="29.3105" style="stroke:#181818;stroke-width:1;" width="10" x="1302.7534" y="435.7031"/></g><g class="message" data-participant-1="UserA" data-participant-2="ChatA"><polygon fill="#181818" points="196.6963,101.2871,206.6963,105.2871,196.6963,109.2871,200.6963,105.2871" style="stroke:#181818;stroke-width:1;"/><line style="stroke:#181818;stroke-width:1;" x1="59.7046" x2="202.6963" y1="105.2871" y2="105.2871"/><text fill="#000000" font-family="sans-serif" font-size="13" lengthAdjust="spacing" textLength="89.7114" x="66.7046" y="100.5449">Type message</text></g><g class="message" data-participant-1="ChatA" data-participant-2="WSA"><polygon fill="#181818" points="370.7319,130.5977,380.7319,134.5977,370.7319,138.5977,374.7319,134.5977" style="stroke:#181818;stroke-width:1;"/><line style="stroke:#181818;stroke-width:1;" x1="218.6963" x2="376.7319" y1="134.5977" y2="134.5977"/><text fill="#000000" font-family="sans-serif" font-size="13" lengthAdjust="spacing" textLength="92.7964" x="225.6963" y="129.8555">sendMessage()</text></g><g class="message" data-participant-1="WSA" data-participant-2="WSServer"><polygon fill="#181818" points="575.3887,159.9082,585.3887,163.9082,575.3887,167.9082,579.3887,163.9082" style="stroke:#181818;stroke-width:1;"/><line style="stroke:#181818;stroke-width:1;" x1="392.7319" x2="581.3887" y1="163.9082" y2="163.9082"/><text fill="#000000" font-family="sans-serif" font-size="13" lengthAdjust="spacing" textLength="86.6772" x="399.7319" y="159.166">message data</text></g><g class="message" data-participant-1="WSServer" data-participant-2="MsgService"><polygon fill="#181818" points="736.0752,189.2188,746.0752,193.2188,736.0752,197.2188,740.0752,193.2188" style="stroke:#181818;stroke-width:1;"/><line style="stroke:#181818;stroke-width:1;" x1="597.3887" x2="742.0752" y1="193.2188" y2="193.2188"/><text fill="#000000" font-family="sans-serif" font-size="13" lengthAdjust="spacing" textLength="111.3188" x="604.3887" y="188.4766">processMessage()</text></g><path d="M674.1655,208.2188 L736.3042,208.2188 L736.3042,215.5293 L726.3042,225.5293 L674.1655,225.5293 L674.1655,208.2188" fill="#EEEEEE" style="stroke:#000000;stroke-width:1.5;"/><rect fill="none" height="81.9316" style="stroke:#000000;stroke-width:1.5;" width="532.8413" x="674.1655" y="208.2188"/><text fill="#000000" font-family="sans-serif" font-size="13" font-weight="bold" lengthAdjust="spacing" textLength="17.1387" x="689.1655" y="221.7871">alt</text><text fill="#000000" font-family="sans-serif" font-size="11" font-weight="bold" lengthAdjust="spacing" textLength="141.2383" x="751.3042" y="220.8535">[AI Suggestions Enabled]</text><g class="message" data-participant-1="MsgService" data-participant-2="AI"><polygon fill="#181818" points="880.2788,245.8398,890.2788,249.8398,880.2788,253.8398,884.2788,249.8398" style="stroke:#181818;stroke-width:1;"/><line style="stroke:#181818;stroke-width:1;" x1="758.0752" x2="886.2788" y1="249.8398" y2="249.8398"/><text fill="#000000" font-family="sans-serif" font-size="13" lengthAdjust="spacing" textLength="115.2036" x="765.0752" y="245.0977">enhanceMessage()</text></g><path d="M907,230.5293 L907,255.5293 L1196,255.5293 L1196,240.5293 L1186,230.5293 L907,230.5293" fill="#FEFFDD" style="stroke:#181818;stroke-width:0.5;"/><path d="M1186,230.5293 L1186,240.5293 L1196,240.5293 L1186,230.5293" fill="#FEFFDD" style="stroke:#181818;stroke-width:0.5;"/><text fill="#000000" font-family="sans-serif" font-size="13" lengthAdjust="spacing" textLength="268.728" x="913" y="248.0977">Check for tone and suggest improvements</text><g class="message" data-participant-1="AI" data-participant-2="MsgService"><polygon fill="#181818" points="769.0752,278.1504,759.0752,282.1504,769.0752,286.1504,765.0752,282.1504" style="stroke:#181818;stroke-width:1;"/><line style="stroke:#181818;stroke-width:1;stroke-dasharray:2,2;" x1="763.0752" x2="896.2788" y1="282.1504" y2="282.1504"/><text fill="#000000" font-family="sans-serif" font-size="13" lengthAdjust="spacing" textLength="76.0767" x="775.0752" y="277.4082">suggestions</text></g><g class="message" data-participant-1="MsgService" data-participant-2="DB"><polygon fill="#181818" points="996.5332,314.4609,1006.5332,318.4609,996.5332,322.4609,1000.5332,318.4609" style="stroke:#181818;stroke-width:1;"/><line style="stroke:#181818;stroke-width:1;" x1="758.0752" x2="1002.5332" y1="318.4609" y2="318.4609"/><text fill="#000000" font-family="sans-serif" font-size="13" lengthAdjust="spacing" textLength="90.4541" x="765.0752" y="313.7188">saveMessage()</text></g><g class="message" data-participant-1="DB" data-participant-2="MsgService"><polygon fill="#181818" points="769.0752,343.7715,759.0752,347.7715,769.0752,351.7715,765.0752,347.7715" style="stroke:#181818;stroke-width:1;"/><line style="stroke:#181818;stroke-width:1;stroke-dasharray:2,2;" x1="763.0752" x2="1012.5332" y1="347.7715" y2="347.7715"/><text fill="#000000" font-family="sans-serif" font-size="13" lengthAdjust="spacing" textLength="167.0386" x="775.0752" y="343.0293">messageSaved(messageId)</text></g><g class="message" data-participant-1="MsgService" data-participant-2="WSServer"><polygon fill="#181818" points="608.3887,373.082,598.3887,377.082,608.3887,381.082,604.3887,377.082" style="stroke:#181818;stroke-width:1;"/><line style="stroke:#181818;stroke-width:1;" x1="602.3887" x2="752.0752" y1="377.082" y2="377.082"/><text fill="#000000" font-family="sans-serif" font-size="13" lengthAdjust="spacing" textLength="126.6865" x="614.3887" y="372.3398">messageProcessed()</text></g><g class="message" data-participant-1="WSServer" data-participant-2="WSB"><polygon fill="#181818" points="1123.8994,402.3926,1133.8994,406.3926,1123.8994,410.3926,1127.8994,406.3926" style="stroke:#181818;stroke-width:1;"/><line style="stroke:#181818;stroke-width:1;" x1="597.3887" x2="1129.8994" y1="406.3926" y2="406.3926"/><text fill="#000000" font-family="sans-serif" font-size="13" lengthAdjust="spacing" textLength="79.5488" x="604.3887" y="401.6504">newMessage</text></g><g class="message" data-participant-1="WSB" data-participant-2="ChatB"><polygon fill="#181818" points="1290.7534,431.7031,1300.7534,435.7031,1290.7534,439.7031,1294.7534,435.7031" style="stroke:#181818;stroke-width:1;"/><line style="stroke:#181818;stroke-width:1;" x1="1145.8994" x2="1296.7534" y1="435.7031" y2="435.7031"/><text fill="#000000" font-family="sans-serif" font-size="13" lengthAdjust="spacing" textLength="107.1548" x="1152.8994" y="430.9609">displayMessage()</text></g><g class="message" data-participant-1="ChatB" data-participant-2="UserB"><polygon fill="#181818" points="1454.2666,461.0137,1464.2666,465.0137,1454.2666,469.0137,1458.2666,465.0137" style="stroke:#181818;stroke-width:1;"/><line style="stroke:#181818;stroke-width:1;stroke-dasharray:2,2;" x1="1307.7534" x2="1460.2666" y1="465.0137" y2="465.0137"/><text fill="#000000" font-family="sans-serif" font-size="13" lengthAdjust="spacing" textLength="92.3457" x="1314.7534" y="460.2715">Show message</text></g><g class="message" data-participant-1="UserB" data-participant-2="ChatB"><polygon fill="#181818" points="1318.7534,490.3242,1308.7534,494.3242,1318.7534,498.3242,1314.7534,494.3242" style="stroke:#181818;stroke-width:1;"/><line style="stroke:#181818;stroke-width:1;" x1="1312.7534" x2="1465.2666" y1="494.3242" y2="494.3242"/><text fill="#000000" font-family="sans-serif" font-size="13" lengthAdjust="spacing" textLength="134.5132" x="1324.7534" y="489.582">Start typing response</text></g><g class="message" data-participant-1="ChatB" data-participant-2="WSB"><polygon fill="#181818" points="1151.8994,519.6348,1141.8994,523.6348,1151.8994,527.6348,1147.8994,523.6348" style="stroke:#181818;stroke-width:1;"/><line style="stroke:#181818;stroke-width:1;" x1="1145.8994" x2="1306.7534" y1="523.6348" y2="523.6348"/><text fill="#000000" font-family="sans-serif" font-size="13" lengthAdjust="spacing" textLength="99.6519" x="1157.8994" y="518.8926">typing indicator</text></g><g class="message" data-participant-1="WSB" data-participant-2="WSServer"><polygon fill="#181818" points="608.3887,548.9453,598.3887,552.9453,608.3887,556.9453,604.3887,552.9453" style="stroke:#181818;stroke-width:1;"/><line style="stroke:#181818;stroke-width:1;" x1="602.3887" x2="1139.8994" y1="552.9453" y2="552.9453"/><text fill="#000000" font-family="sans-serif" font-size="13" lengthAdjust="spacing" textLength="82.1069" x="614.3887" y="548.2031">typing status</text></g><g class="message" data-participant-1="WSServer" data-participant-2="WSA"><polygon fill="#181818" points="403.7319,578.2559,393.7319,582.2559,403.7319,586.2559,399.7319,582.2559" style="stroke:#181818;stroke-width:1;"/><line style="stroke:#181818;stroke-width:1;" x1="397.7319" x2="586.3887" y1="582.2559" y2="582.2559"/><text fill="#000000" font-family="sans-serif" font-size="13" lengthAdjust="spacing" textLength="115.6035" x="409.7319" y="577.5137">typing notification</text></g><g class="message" data-participant-1="WSA" data-participant-2="ChatA"><polygon fill="#181818" points="229.6963,607.5664,219.6963,611.5664,229.6963,615.5664,225.6963,611.5664" style="stroke:#181818;stroke-width:1;"/><line style="stroke:#181818;stroke-width:1;" x1="223.6963" x2="381.7319" y1="611.5664" y2="611.5664"/><text fill="#000000" font-family="sans-serif" font-size="13" lengthAdjust="spacing" textLength="140.0356" x="235.6963" y="606.8242">showTypingIndicator()</text></g><g class="message" data-participant-1="ChatA" data-participant-2="UserA"><polygon fill="#181818" points="70.7046,636.877,60.7046,640.877,70.7046,644.877,66.7046,640.877" style="stroke:#181818;stroke-width:1;"/><line style="stroke:#181818;stroke-width:1;stroke-dasharray:2,2;" x1="64.7046" x2="207.6963" y1="640.877" y2="640.877"/><text fill="#000000" font-family="sans-serif" font-size="13" lengthAdjust="spacing" textLength="119.6851" x="76.7046" y="636.1348">"Taylor is typing..."</text></g><g class="message" data-participant-1="UserB" data-participant-2="ChatB"><polygon fill="#181818" points="1318.7534,666.1875,1308.7534,670.1875,1318.7534,674.1875,1314.7534,670.1875" style="stroke:#181818;stroke-width:1;"/><line style="stroke:#181818;stroke-width:1;" x1="1312.7534" x2="1465.2666" y1="670.1875" y2="670.1875"/><text fill="#000000" font-family="sans-serif" font-size="13" lengthAdjust="spacing" textLength="90.0986" x="1324.7534" y="665.4453">Read message</text></g><g class="message" data-participant-1="ChatB" data-participant-2="WSB"><polygon fill="#181818" points="1151.8994,695.498,1141.8994,699.498,1151.8994,703.498,1147.8994,699.498" style="stroke:#181818;stroke-width:1;"/><line style="stroke:#181818;stroke-width:1;" x1="1145.8994" x2="1306.7534" y1="699.498" y2="699.498"/><text fill="#000000" font-family="sans-serif" font-size="13" lengthAdjust="spacing" textLength="124.2427" x="1157.8994" y="694.7559">messageRead event</text></g><g class="message" data-participant-1="WSB" data-participant-2="WSServer"><polygon fill="#181818" points="608.3887,724.8086,598.3887,728.8086,608.3887,732.8086,604.3887,728.8086" style="stroke:#181818;stroke-width:1;"/><line style="stroke:#181818;stroke-width:1;" x1="602.3887" x2="1139.8994" y1="728.8086" y2="728.8086"/><text fill="#000000" font-family="sans-serif" font-size="13" lengthAdjust="spacing" textLength="75.3022" x="614.3887" y="724.0664">read receipt</text></g><g class="message" data-participant-1="WSServer" data-participant-2="MsgService"><polygon fill="#181818" points="741.0752,754.1191,751.0752,758.1191,741.0752,762.1191,745.0752,758.1191" style="stroke:#181818;stroke-width:1;"/><line style="stroke:#181818;stroke-width:1;" x1="597.3887" x2="747.0752" y1="758.1191" y2="758.1191"/><text fill="#000000" font-family="sans-serif" font-size="13" lengthAdjust="spacing" textLength="87.1089" x="604.3887" y="753.377">markAsRead()</text></g><g class="message" data-participant-1="MsgService" data-participant-2="DB"><polygon fill="#181818" points="1001.5332,783.4297,1011.5332,787.4297,1001.5332,791.4297,1005.5332,787.4297" style="stroke:#181818;stroke-width:1;"/><line style="stroke:#181818;stroke-width:1;" x1="753.0752" x2="1007.5332" y1="787.4297" y2="787.4297"/><text fill="#000000" font-family="sans-serif" font-size="13" lengthAdjust="spacing" textLength="121.5957" x="760.0752" y="782.6875">updateReadStatus()</text></g><g class="message" data-participant-1="MsgService" data-participant-2="WSServer"><polygon fill="#181818" points="608.3887,812.7402,598.3887,816.7402,608.3887,820.7402,604.3887,816.7402" style="stroke:#181818;stroke-width:1;"/><line style="stroke:#181818;stroke-width:1;" x1="602.3887" x2="752.0752" y1="816.7402" y2="816.7402"/><text fill="#000000" font-family="sans-serif" font-size="13" lengthAdjust="spacing" textLength="102.8447" x="614.3887" y="811.998">readConfirmed()</text></g><g class="message" data-participant-1="WSServer" data-participant-2="WSA"><polygon fill="#181818" points="403.7319,842.0508,393.7319,846.0508,403.7319,850.0508,399.7319,846.0508" style="stroke:#181818;stroke-width:1;"/><line style="stroke:#181818;stroke-width:1;" x1="397.7319" x2="586.3887" y1="846.0508" y2="846.0508"/><text fill="#000000" font-family="sans-serif" font-size="13" lengthAdjust="spacing" textLength="170.6567" x="409.7319" y="841.3086">messageRead confirmation</text></g><g class="message" data-participant-1="WSA" data-participant-2="ChatA"><polygon fill="#181818" points="229.6963,871.3613,219.6963,875.3613,229.6963,879.3613,225.6963,875.3613" style="stroke:#181818;stroke-width:1;"/><line style="stroke:#181818;stroke-width:1;" x1="223.6963" x2="381.7319" y1="875.3613" y2="875.3613"/><text fill="#000000" font-family="sans-serif" font-size="13" lengthAdjust="spacing" textLength="118.1426" x="235.6963" y="870.6191">showReadReceipt()</text></g><g class="message" data-participant-1="ChatA" data-participant-2="UserA"><polygon fill="#181818" points="70.7046,900.6719,60.7046,904.6719,70.7046,908.6719,66.7046,904.6719" style="stroke:#181818;stroke-width:1;"/><line style="stroke:#181818;stroke-width:1;stroke-dasharray:2,2;" x1="64.7046" x2="212.6963" y1="904.6719" y2="904.6719"/><text fill="#000000" font-family="sans-serif" font-size="13" lengthAdjust="spacing" textLength="124.9917" x="76.7046" y="899.9297">Show read indicator</text></g><!--SRC=[bPJDZjem4CVlVeeH9pZ00-oXKW8zS42gDhHxDicGM2HsP1jMl7t77n0d15NT0rhRl_dwpqoii2t27t720xTb0sluHDwkZw93EA0nl1QoXk9kB7QCzLnRKOgUImkBtmOrPB0ikERDQW7SWBlAnXIvAori6qu_gkkLH6azwwucx1UU2bLUaD1M40UP9x-Ajro1-eOwKk4mHfCQw5MKwDc3gUDnJ6-L90-6Mw4aP7lFPlifOpfbO9Vxrrt-ZnBoc5p-7xBaCqBdi3poUwlqe7JEc1SSrZ-2cl01ntkFqFcYaL48SUCMezOiG4IJeiGQb5NG1vUh0NPoCqTuC8XAT7GA5RSyXQFgx8cIsQ0l6VPQbMGx4obf0-CjjNiFnRMkqJZz3VoK_DHYnO3-4e_ady0FGDbmMUBWrt5FtzGsTvQA_jUYRYnPR1iiBt1M6Ym93bnMO48y41sbUSEEsc2y8OLOJoinGtAUgJ0DHseoDivpbpihViEPucbowFabHfIv8ADg6G_xQiMIM6GvYVFQfbz1TF8nCaqLJnj6yqcs4hyFqz5naylSSnmonrN2z2s_pnGLffS5qDNcvvHCYaPzF-SoIIWO91S-Nh1A8XQM5WBilNURhD7GmXXyX7ca7v-5h4J9hTAFj1Dr8c8ijrSpKI0RtcbgnDaveLO_Lk6nOOOgENfi_mX42iJLYXKxRX7M5OI9NZURpMAcDFeIL4zb9XN5Qu_WZMPpfYJj7ZMMA7hxVWaxhY-PSOuesPaXlVQqrpvGuRLveIOHwKjv5hhpy_KgOvft6SYtMZheCwG_gwEV75_aqDZnmCGlqEWkcmvPnlu2]--></g></svg>