<svg xmlns="http://www.w3.org/2000/svg" xmlns:xlink="http://www.w3.org/1999/xlink" contentStyleType="text/css" data-diagram-type="SEQUENCE" height="963px" preserveAspectRatio="none" style="width:1826px;height:963px;background:#FFFFFF;" version="1.1" viewBox="0 0 1826 963" width="1826px" zoomAndPan="magnify"><title>VibeMatch - User Registration &amp; Personality Quiz Flow</title><defs/><g><text fill="#000000" font-family="sans-serif" font-size="14" font-weight="bold" lengthAdjust="spacing" textLength="395.2676" x="711.4429" y="28.5352">VibeMatch - User Registration &amp; Personality Quiz Flow</text><g><title>ExpressAPI</title><rect fill="#FFFFFF" height="205.1738" style="stroke:#181818;stroke-width:1;" width="10" x="597.0625" y="222.9082"/></g><g><title>ExpressAPI</title><rect fill="#FFFFFF" height="275.7949" style="stroke:#181818;stroke-width:1;" width="10" x="597.0625" y="559.3242"/></g><g><title>AuthService</title><rect fill="#FFFFFF" height="146.5527" style="stroke:#181818;stroke-width:1;" width="10" x="808.7651" y="252.2188"/></g><g><title>AzureADB2C</title><rect fill="#FFFFFF" height="29.3105" style="stroke:#181818;stroke-width:1;" width="10" x="966.6841" y="281.5293"/></g><g><title>ProfileService</title><rect fill="#FFFFFF" height="217.1738" style="stroke:#181818;stroke-width:1;" width="10" x="1079.2231" y="588.6348"/></g><g><title>GeminiAI</title><rect fill="#FFFFFF" height="32.3105" style="stroke:#181818;stroke-width:1;" width="10" x="1346.8296" y="620.9453"/></g><g><title>CosmosDB</title><rect fill="#FFFFFF" height="29.3105" style="stroke:#181818;stroke-width:1;" width="10" x="1437.9448" y="340.1504"/></g><g><title>CosmosDB</title><rect fill="#FFFFFF" height="29.3105" style="stroke:#181818;stroke-width:1;" width="10" x="1437.9448" y="682.5664"/></g><g><title>GoHighLevel</title><rect fill="#FFFFFF" height="32.3105" style="stroke:#181818;stroke-width:1;" width="10" x="1540.7427" y="744.1875"/></g><g><title>User</title><rect fill="#000000" fill-opacity="0.00000" height="763.4531" width="8" x="19.1826" y="118.9766"/><line style="stroke:#181818;stroke-width:0.5;stroke-dasharray:5,5;" x1="23" x2="23" y1="118.9766" y2="882.4297"/></g><g><title>ReactApp</title><rect fill="#000000" fill-opacity="0.00000" height="763.4531" width="8" x="380.4272" y="118.9766"/><line style="stroke:#181818;stroke-width:0.5;stroke-dasharray:5,5;" x1="384.3906" x2="384.3906" y1="118.9766" y2="882.4297"/></g><g><title>ExpressAPI</title><rect fill="#000000" fill-opacity="0.00000" height="763.4531" width="8" x="598.0625" y="118.9766"/><line style="stroke:#181818;stroke-width:0.5;stroke-dasharray:5,5;" x1="601.9536" x2="601.9536" y1="118.9766" y2="882.4297"/></g><g><title>AuthService</title><rect fill="#000000" fill-opacity="0.00000" height="763.4531" width="8" x="809.7651" y="118.9766"/><line style="stroke:#181818;stroke-width:0.5;stroke-dasharray:5,5;" x1="812.9629" x2="812.9629" y1="118.9766" y2="882.4297"/></g><g><title>AzureADB2C</title><rect fill="#000000" fill-opacity="0.00000" height="763.4531" width="8" x="967.6841" y="118.9766"/><line style="stroke:#181818;stroke-width:0.5;stroke-dasharray:5,5;" x1="971.3647" x2="971.3647" y1="118.9766" y2="882.4297"/></g><g><title>ProfileService</title><rect fill="#000000" fill-opacity="0.00000" height="763.4531" width="8" x="1080.2231" y="118.9766"/><line style="stroke:#181818;stroke-width:0.5;stroke-dasharray:5,5;" x1="1084.0034" x2="1084.0034" y1="118.9766" y2="882.4297"/></g><g><title>GeminiAI</title><rect fill="#000000" fill-opacity="0.00000" height="763.4531" width="8" x="1347.8296" y="118.9766"/><line style="stroke:#181818;stroke-width:0.5;stroke-dasharray:5,5;" x1="1351.0986" x2="1351.0986" y1="118.9766" y2="882.4297"/></g><g><title>CosmosDB</title><rect fill="#000000" fill-opacity="0.00000" height="763.4531" width="8" x="1438.9448" y="118.9766"/><line style="stroke:#181818;stroke-width:0.5;stroke-dasharray:5,5;" x1="1442.5605" x2="1442.5605" y1="118.9766" y2="882.4297"/></g><g><title>GoHighLevel</title><rect fill="#000000" fill-opacity="0.00000" height="763.4531" width="8" x="1541.7427" y="118.9766"/><line style="stroke:#181818;stroke-width:0.5;stroke-dasharray:5,5;" x1="1545.3291" x2="1545.3291" y1="118.9766" y2="882.4297"/></g><g class="participant participant-head" data-participant="User"><text fill="#000000" font-family="sans-serif" font-size="14" lengthAdjust="spacing" textLength="30.3652" x="5" y="116.0234">User</text><ellipse cx="23.1826" cy="50.9883" fill="#E2E2F0" rx="8" ry="8" style="stroke:#181818;stroke-width:0.5;"/><path d="M23.1826,58.9883 L23.1826,85.9883 M10.1826,66.9883 L36.1826,66.9883 M23.1826,85.9883 L10.1826,100.9883 M23.1826,85.9883 L36.1826,100.9883" fill="none" style="stroke:#181818;stroke-width:0.5;"/></g><g class="participant participant-tail" data-participant="User"><text fill="#000000" font-family="sans-serif" font-size="14" lengthAdjust="spacing" textLength="30.3652" x="5" y="894.9648">User</text><ellipse cx="23.1826" cy="906.418" fill="#E2E2F0" rx="8" ry="8" style="stroke:#181818;stroke-width:0.5;"/><path d="M23.1826,914.418 L23.1826,941.418 M10.1826,922.418 L36.1826,922.418 M23.1826,941.418 L10.1826,956.418 M23.1826,941.418 L36.1826,956.418" fill="none" style="stroke:#181818;stroke-width:0.5;"/></g><g class="participant participant-head" data-participant="ReactApp"><rect fill="#E2E2F0" height="30.4883" rx="2.5" ry="2.5" style="stroke:#181818;stroke-width:0.5;" width="78.0732" x="345.3906" y="87.4883"/><text fill="#000000" font-family="sans-serif" font-size="14" lengthAdjust="spacing" textLength="64.0732" x="352.3906" y="108.0234">ReactApp</text></g><g class="participant participant-tail" data-participant="ReactApp"><rect fill="#E2E2F0" height="30.4883" rx="2.5" ry="2.5" style="stroke:#181818;stroke-width:0.5;" width="78.0732" x="345.3906" y="881.4297"/><text fill="#000000" font-family="sans-serif" font-size="14" lengthAdjust="spacing" textLength="64.0732" x="352.3906" y="901.9648">ReactApp</text></g><g class="participant participant-head" data-participant="ExpressAPI"><rect fill="#E2E2F0" height="30.4883" rx="2.5" ry="2.5" style="stroke:#181818;stroke-width:0.5;" width="88.2178" x="557.9536" y="87.4883"/><text fill="#000000" font-family="sans-serif" font-size="14" lengthAdjust="spacing" textLength="74.2178" x="564.9536" y="108.0234">ExpressAPI</text></g><g class="participant participant-tail" data-participant="ExpressAPI"><rect fill="#E2E2F0" height="30.4883" rx="2.5" ry="2.5" style="stroke:#181818;stroke-width:0.5;" width="88.2178" x="557.9536" y="881.4297"/><text fill="#000000" font-family="sans-serif" font-size="14" lengthAdjust="spacing" textLength="74.2178" x="564.9536" y="901.9648">ExpressAPI</text></g><g class="participant participant-head" data-participant="AuthService"><rect fill="#E2E2F0" height="30.4883" rx="2.5" ry="2.5" style="stroke:#181818;stroke-width:0.5;" width="93.6045" x="766.9629" y="87.4883"/><text fill="#000000" font-family="sans-serif" font-size="14" lengthAdjust="spacing" textLength="79.6045" x="773.9629" y="108.0234">AuthService</text></g><g class="participant participant-tail" data-participant="AuthService"><rect fill="#E2E2F0" height="30.4883" rx="2.5" ry="2.5" style="stroke:#181818;stroke-width:0.5;" width="93.6045" x="766.9629" y="881.4297"/><text fill="#000000" font-family="sans-serif" font-size="14" lengthAdjust="spacing" textLength="79.6045" x="773.9629" y="901.9648">AuthService</text></g><g class="participant participant-head" data-participant="AzureADB2C"><rect fill="#E2E2F0" height="30.4883" rx="2.5" ry="2.5" style="stroke:#181818;stroke-width:0.5;" width="100.6387" x="921.3647" y="87.4883"/><text fill="#000000" font-family="sans-serif" font-size="14" lengthAdjust="spacing" textLength="86.6387" x="928.3647" y="108.0234">AzureADB2C</text></g><g class="participant participant-tail" data-participant="AzureADB2C"><rect fill="#E2E2F0" height="30.4883" rx="2.5" ry="2.5" style="stroke:#181818;stroke-width:0.5;" width="100.6387" x="921.3647" y="881.4297"/><text fill="#000000" font-family="sans-serif" font-size="14" lengthAdjust="spacing" textLength="86.6387" x="928.3647" y="901.9648">AzureADB2C</text></g><g class="participant participant-head" data-participant="ProfileService"><rect fill="#E2E2F0" height="30.4883" rx="2.5" ry="2.5" style="stroke:#181818;stroke-width:0.5;" width="104.4395" x="1032.0034" y="87.4883"/><text fill="#000000" font-family="sans-serif" font-size="14" lengthAdjust="spacing" textLength="90.4395" x="1039.0034" y="108.0234">ProfileService</text></g><g class="participant participant-tail" data-participant="ProfileService"><rect fill="#E2E2F0" height="30.4883" rx="2.5" ry="2.5" style="stroke:#181818;stroke-width:0.5;" width="104.4395" x="1032.0034" y="881.4297"/><text fill="#000000" font-family="sans-serif" font-size="14" lengthAdjust="spacing" textLength="90.4395" x="1039.0034" y="901.9648">ProfileService</text></g><g class="participant participant-head" data-participant="GeminiAI"><rect fill="#E2E2F0" height="30.4883" rx="2.5" ry="2.5" style="stroke:#181818;stroke-width:0.5;" width="75.4619" x="1314.0986" y="87.4883"/><text fill="#000000" font-family="sans-serif" font-size="14" lengthAdjust="spacing" textLength="61.4619" x="1321.0986" y="108.0234">GeminiAI</text></g><g class="participant participant-tail" data-participant="GeminiAI"><rect fill="#E2E2F0" height="30.4883" rx="2.5" ry="2.5" style="stroke:#181818;stroke-width:0.5;" width="75.4619" x="1314.0986" y="881.4297"/><text fill="#000000" font-family="sans-serif" font-size="14" lengthAdjust="spacing" textLength="61.4619" x="1321.0986" y="901.9648">GeminiAI</text></g><g class="participant participant-head" data-participant="CosmosDB"><rect fill="#E2E2F0" height="30.4883" rx="2.5" ry="2.5" style="stroke:#181818;stroke-width:0.5;" width="86.7686" x="1399.5605" y="87.4883"/><text fill="#000000" font-family="sans-serif" font-size="14" lengthAdjust="spacing" textLength="72.7686" x="1406.5605" y="108.0234">CosmosDB</text></g><g class="participant participant-tail" data-participant="CosmosDB"><rect fill="#E2E2F0" height="30.4883" rx="2.5" ry="2.5" style="stroke:#181818;stroke-width:0.5;" width="86.7686" x="1399.5605" y="881.4297"/><text fill="#000000" font-family="sans-serif" font-size="14" lengthAdjust="spacing" textLength="72.7686" x="1406.5605" y="901.9648">CosmosDB</text></g><g class="participant participant-head" data-participant="GoHighLevel"><rect fill="#E2E2F0" height="30.4883" rx="2.5" ry="2.5" style="stroke:#181818;stroke-width:0.5;" width="98.8271" x="1496.3291" y="87.4883"/><text fill="#000000" font-family="sans-serif" font-size="14" lengthAdjust="spacing" textLength="84.8271" x="1503.3291" y="108.0234">GoHighLevel</text></g><g class="participant participant-tail" data-participant="GoHighLevel"><rect fill="#E2E2F0" height="30.4883" rx="2.5" ry="2.5" style="stroke:#181818;stroke-width:0.5;" width="98.8271" x="1496.3291" y="881.4297"/><text fill="#000000" font-family="sans-serif" font-size="14" lengthAdjust="spacing" textLength="84.8271" x="1503.3291" y="901.9648">GoHighLevel</text></g><g><title>ExpressAPI</title><rect fill="#FFFFFF" height="205.1738" style="stroke:#181818;stroke-width:1;" width="10" x="597.0625" y="222.9082"/></g><g><title>ExpressAPI</title><rect fill="#FFFFFF" height="275.7949" style="stroke:#181818;stroke-width:1;" width="10" x="597.0625" y="559.3242"/></g><g><title>AuthService</title><rect fill="#FFFFFF" height="146.5527" style="stroke:#181818;stroke-width:1;" width="10" x="808.7651" y="252.2188"/></g><g><title>AzureADB2C</title><rect fill="#FFFFFF" height="29.3105" style="stroke:#181818;stroke-width:1;" width="10" x="966.6841" y="281.5293"/></g><g><title>ProfileService</title><rect fill="#FFFFFF" height="217.1738" style="stroke:#181818;stroke-width:1;" width="10" x="1079.2231" y="588.6348"/></g><g><title>GeminiAI</title><rect fill="#FFFFFF" height="32.3105" style="stroke:#181818;stroke-width:1;" width="10" x="1346.8296" y="620.9453"/></g><g><title>CosmosDB</title><rect fill="#FFFFFF" height="29.3105" style="stroke:#181818;stroke-width:1;" width="10" x="1437.9448" y="340.1504"/></g><g><title>CosmosDB</title><rect fill="#FFFFFF" height="29.3105" style="stroke:#181818;stroke-width:1;" width="10" x="1437.9448" y="682.5664"/></g><g><title>GoHighLevel</title><rect fill="#FFFFFF" height="32.3105" style="stroke:#181818;stroke-width:1;" width="10" x="1540.7427" y="744.1875"/></g><rect fill="#EEEEEE" height="3" style="stroke:#EEEEEE;stroke-width:1;" width="1819.1533" x="0" y="149.6318"/><line style="stroke:#000000;stroke-width:1;" x1="0" x2="1819.1533" y1="149.6318" y2="149.6318"/><line style="stroke:#000000;stroke-width:1;" x1="0" x2="1819.1533" y1="152.6318" y2="152.6318"/><rect fill="#EEEEEE" height="23.3105" style="stroke:#000000;stroke-width:2;" width="143.5874" x="837.783" y="138.9766"/><text fill="#000000" font-family="sans-serif" font-size="13" font-weight="bold" lengthAdjust="spacing" textLength="125.3027" x="843.783" y="155.5449">Registration Phase</text><g class="message" data-participant-1="User" data-participant-2="ReactApp"><polygon fill="#181818" points="372.4272,189.5977,382.4272,193.5977,372.4272,197.5977,376.4272,193.5977" style="stroke:#181818;stroke-width:1;"/><line style="stroke:#181818;stroke-width:1;" x1="23.1826" x2="378.4272" y1="193.5977" y2="193.5977"/><text fill="#000000" font-family="sans-serif" font-size="13" lengthAdjust="spacing" textLength="148.1353" x="30.1826" y="188.8555">Enter email &amp; password</text></g><g class="message" data-participant-1="ReactApp" data-participant-2="ExpressAPI"><polygon fill="#181818" points="585.0625,218.9082,595.0625,222.9082,585.0625,226.9082,589.0625,222.9082" style="stroke:#181818;stroke-width:1;"/><line style="stroke:#181818;stroke-width:1;" x1="384.4272" x2="591.0625" y1="222.9082" y2="222.9082"/><text fill="#000000" font-family="sans-serif" font-size="13" lengthAdjust="spacing" textLength="152.8452" x="391.4272" y="218.166">POST /api/auth/register</text></g><g class="message" data-participant-1="ExpressAPI" data-participant-2="AuthService"><polygon fill="#181818" points="796.7651,248.2188,806.7651,252.2188,796.7651,256.2188,800.7651,252.2188" style="stroke:#181818;stroke-width:1;"/><line style="stroke:#181818;stroke-width:1;" x1="607.0625" x2="802.7651" y1="252.2188" y2="252.2188"/><text fill="#000000" font-family="sans-serif" font-size="13" lengthAdjust="spacing" textLength="114.499" x="614.0625" y="247.4766">validateUserData()</text></g><g class="message" data-participant-1="AuthService" data-participant-2="AzureADB2C"><polygon fill="#181818" points="954.6841,277.5293,964.6841,281.5293,954.6841,285.5293,958.6841,281.5293" style="stroke:#181818;stroke-width:1;"/><line style="stroke:#181818;stroke-width:1;" x1="818.7651" x2="960.6841" y1="281.5293" y2="281.5293"/><text fill="#000000" font-family="sans-serif" font-size="13" lengthAdjust="spacing" textLength="75.1563" x="825.7651" y="276.7871">createUser()</text></g><g class="message" data-participant-1="AzureADB2C" data-participant-2="AuthService"><polygon fill="#181818" points="829.7651,306.8398,819.7651,310.8398,829.7651,314.8398,825.7651,310.8398" style="stroke:#181818;stroke-width:1;"/><line style="stroke:#181818;stroke-width:1;stroke-dasharray:2,2;" x1="823.7651" x2="970.6841" y1="310.8398" y2="310.8398"/><text fill="#000000" font-family="sans-serif" font-size="13" lengthAdjust="spacing" textLength="123.9189" x="835.7651" y="306.0977">userCreated(userId)</text></g><g class="message" data-participant-1="AuthService" data-participant-2="CosmosDB"><polygon fill="#181818" points="1425.9448,336.1504,1435.9448,340.1504,1425.9448,344.1504,1429.9448,340.1504" style="stroke:#181818;stroke-width:1;"/><line style="stroke:#181818;stroke-width:1;" x1="818.7651" x2="1431.9448" y1="340.1504" y2="340.1504"/><text fill="#000000" font-family="sans-serif" font-size="13" lengthAdjust="spacing" textLength="104.457" x="825.7651" y="335.4082">saveUserProfile()</text></g><g class="message" data-participant-1="CosmosDB" data-participant-2="AuthService"><polygon fill="#181818" points="829.7651,365.4609,819.7651,369.4609,829.7651,373.4609,825.7651,369.4609" style="stroke:#181818;stroke-width:1;"/><line style="stroke:#181818;stroke-width:1;stroke-dasharray:2,2;" x1="823.7651" x2="1441.9448" y1="369.4609" y2="369.4609"/><text fill="#000000" font-family="sans-serif" font-size="13" lengthAdjust="spacing" textLength="77.3589" x="835.7651" y="364.7188">profileSaved</text></g><g class="message" data-participant-1="AuthService" data-participant-2="ExpressAPI"><polygon fill="#181818" points="618.0625,394.7715,608.0625,398.7715,618.0625,402.7715,614.0625,398.7715" style="stroke:#181818;stroke-width:1;"/><line style="stroke:#181818;stroke-width:1;stroke-dasharray:2,2;" x1="612.0625" x2="812.7651" y1="398.7715" y2="398.7715"/><text fill="#000000" font-family="sans-serif" font-size="13" lengthAdjust="spacing" textLength="177.7026" x="624.0625" y="394.0293">registrationComplete(token)</text></g><g class="message" data-participant-1="ExpressAPI" data-participant-2="ReactApp"><polygon fill="#181818" points="395.4272,424.082,385.4272,428.082,395.4272,432.082,391.4272,428.082" style="stroke:#181818;stroke-width:1;"/><line style="stroke:#181818;stroke-width:1;stroke-dasharray:2,2;" x1="389.4272" x2="601.0625" y1="428.082" y2="428.082"/><text fill="#000000" font-family="sans-serif" font-size="13" lengthAdjust="spacing" textLength="106.5962" x="401.4272" y="423.3398">token and userId</text></g><g class="message" data-participant-1="ReactApp" data-participant-2="User"><polygon fill="#181818" points="34.1826,453.3926,24.1826,457.3926,34.1826,461.3926,30.1826,457.3926" style="stroke:#181818;stroke-width:1;"/><line style="stroke:#181818;stroke-width:1;stroke-dasharray:2,2;" x1="28.1826" x2="383.4272" y1="457.3926" y2="457.3926"/><text fill="#000000" font-family="sans-serif" font-size="13" lengthAdjust="spacing" textLength="138.5313" x="40.1826" y="452.6504">Show personality quiz</text></g><rect fill="#EEEEEE" height="3" style="stroke:#EEEEEE;stroke-width:1;" width="1819.1533" x="0" y="486.0479"/><line style="stroke:#000000;stroke-width:1;" x1="0" x2="1819.1533" y1="486.0479" y2="486.0479"/><line style="stroke:#000000;stroke-width:1;" x1="0" x2="1819.1533" y1="489.0479" y2="489.0479"/><rect fill="#EEEEEE" height="23.3105" style="stroke:#000000;stroke-width:2;" width="171.7646" x="823.6943" y="475.3926"/><text fill="#000000" font-family="sans-serif" font-size="13" font-weight="bold" lengthAdjust="spacing" textLength="153.48" x="829.6943" y="491.9609">Personality Quiz Phase</text><g class="message" data-participant-1="User" data-participant-2="ReactApp"><polygon fill="#181818" points="372.4272,526.0137,382.4272,530.0137,372.4272,534.0137,376.4272,530.0137" style="stroke:#181818;stroke-width:1;"/><line style="stroke:#181818;stroke-width:1;" x1="23.1826" x2="378.4272" y1="530.0137" y2="530.0137"/><text fill="#000000" font-family="sans-serif" font-size="13" lengthAdjust="spacing" textLength="169.8442" x="30.1826" y="525.2715">Complete 8 quiz questions</text></g><g class="message" data-participant-1="ReactApp" data-participant-2="ExpressAPI"><polygon fill="#181818" points="585.0625,555.3242,595.0625,559.3242,585.0625,563.3242,589.0625,559.3242" style="stroke:#181818;stroke-width:1;"/><line style="stroke:#181818;stroke-width:1;" x1="384.4272" x2="591.0625" y1="559.3242" y2="559.3242"/><text fill="#000000" font-family="sans-serif" font-size="13" lengthAdjust="spacing" textLength="193.6353" x="391.4272" y="554.582">POST /api/personality/analyze</text></g><g class="message" data-participant-1="ExpressAPI" data-participant-2="ProfileService"><polygon fill="#181818" points="1067.2231,584.6348,1077.2231,588.6348,1067.2231,592.6348,1071.2231,588.6348" style="stroke:#181818;stroke-width:1;"/><line style="stroke:#181818;stroke-width:1;" x1="607.0625" x2="1073.2231" y1="588.6348" y2="588.6348"/><text fill="#000000" font-family="sans-serif" font-size="13" lengthAdjust="spacing" textLength="153.2959" x="614.0625" y="583.8926">processQuizResponses()</text></g><g class="message" data-participant-1="ProfileService" data-participant-2="GeminiAI"><polygon fill="#181818" points="1334.8296,616.9453,1344.8296,620.9453,1334.8296,624.9453,1338.8296,620.9453" style="stroke:#181818;stroke-width:1;"/><line style="stroke:#181818;stroke-width:1;" x1="1089.2231" x2="1340.8296" y1="620.9453" y2="620.9453"/><text fill="#000000" font-family="sans-serif" font-size="13" lengthAdjust="spacing" textLength="188.8237" x="1096.2231" y="616.2031">analyzePersonality(responses)</text></g><path d="M1361,601.6348 L1361,626.6348 L1746,626.6348 L1746,611.6348 L1736,601.6348 L1361,601.6348" fill="#FEFFDD" style="stroke:#181818;stroke-width:0.5;"/><path d="M1736,601.6348 L1736,611.6348 L1746,611.6348 L1736,601.6348" fill="#FEFFDD" style="stroke:#181818;stroke-width:0.5;"/><text fill="#000000" font-family="sans-serif" font-size="13" lengthAdjust="spacing" textLength="364.4063" x="1367" y="619.2031">Send quiz data to Gemini API for personality type analysis</text><g class="message" data-participant-1="GeminiAI" data-participant-2="ProfileService"><polygon fill="#181818" points="1100.2231,649.2559,1090.2231,653.2559,1100.2231,657.2559,1096.2231,653.2559" style="stroke:#181818;stroke-width:1;"/><line style="stroke:#181818;stroke-width:1;stroke-dasharray:2,2;" x1="1094.2231" x2="1350.8296" y1="653.2559" y2="653.2559"/><text fill="#000000" font-family="sans-serif" font-size="13" lengthAdjust="spacing" textLength="233.6064" x="1106.2231" y="648.5137">personalityResult(type, traits, scores)</text></g><g class="message" data-participant-1="ProfileService" data-participant-2="CosmosDB"><polygon fill="#181818" points="1425.9448,678.5664,1435.9448,682.5664,1425.9448,686.5664,1429.9448,682.5664" style="stroke:#181818;stroke-width:1;"/><line style="stroke:#181818;stroke-width:1;" x1="1089.2231" x2="1431.9448" y1="682.5664" y2="682.5664"/><text fill="#000000" font-family="sans-serif" font-size="13" lengthAdjust="spacing" textLength="133.9673" x="1096.2231" y="677.8242">savePersonalityData()</text></g><g class="message" data-participant-1="CosmosDB" data-participant-2="ProfileService"><polygon fill="#181818" points="1100.2231,707.877,1090.2231,711.877,1100.2231,715.877,1096.2231,711.877" style="stroke:#181818;stroke-width:1;"/><line style="stroke:#181818;stroke-width:1;stroke-dasharray:2,2;" x1="1094.2231" x2="1441.9448" y1="711.877" y2="711.877"/><text fill="#000000" font-family="sans-serif" font-size="13" lengthAdjust="spacing" textLength="135.0654" x="1106.2231" y="707.1348">personalityDataSaved</text></g><g class="message" data-participant-1="ProfileService" data-participant-2="GoHighLevel"><polygon fill="#181818" points="1528.7427,740.1875,1538.7427,744.1875,1528.7427,748.1875,1532.7427,744.1875" style="stroke:#181818;stroke-width:1;"/><line style="stroke:#181818;stroke-width:1;" x1="1089.2231" x2="1534.7427" y1="744.1875" y2="744.1875"/><text fill="#000000" font-family="sans-serif" font-size="13" lengthAdjust="spacing" textLength="104.8252" x="1096.2231" y="739.4453">syncUserProfile()</text></g><path d="M1555,724.877 L1555,749.877 L1818,749.877 L1818,734.877 L1808,724.877 L1555,724.877" fill="#FEFFDD" style="stroke:#181818;stroke-width:0.5;"/><path d="M1808,724.877 L1808,734.877 L1818,734.877 L1808,724.877" fill="#FEFFDD" style="stroke:#181818;stroke-width:0.5;"/><text fill="#000000" font-family="sans-serif" font-size="13" lengthAdjust="spacing" textLength="242.4106" x="1561" y="742.4453">Add user to CRM with personality data</text><g class="message" data-participant-1="GoHighLevel" data-participant-2="ProfileService"><polygon fill="#181818" points="1100.2231,772.498,1090.2231,776.498,1100.2231,780.498,1096.2231,776.498" style="stroke:#181818;stroke-width:1;"/><line style="stroke:#181818;stroke-width:1;stroke-dasharray:2,2;" x1="1094.2231" x2="1544.7427" y1="776.498" y2="776.498"/><text fill="#000000" font-family="sans-serif" font-size="13" lengthAdjust="spacing" textLength="84.9697" x="1106.2231" y="771.7559">profileSynced</text></g><g class="message" data-participant-1="ProfileService" data-participant-2="ExpressAPI"><polygon fill="#181818" points="618.0625,801.8086,608.0625,805.8086,618.0625,809.8086,614.0625,805.8086" style="stroke:#181818;stroke-width:1;"/><line style="stroke:#181818;stroke-width:1;stroke-dasharray:2,2;" x1="612.0625" x2="1083.2231" y1="805.8086" y2="805.8086"/><text fill="#000000" font-family="sans-serif" font-size="13" lengthAdjust="spacing" textLength="190.4106" x="624.0625" y="801.0664">personalityAnalysisComplete()</text></g><g class="message" data-participant-1="ExpressAPI" data-participant-2="ReactApp"><polygon fill="#181818" points="395.4272,831.1191,385.4272,835.1191,395.4272,839.1191,391.4272,835.1191" style="stroke:#181818;stroke-width:1;"/><line style="stroke:#181818;stroke-width:1;stroke-dasharray:2,2;" x1="389.4272" x2="601.0625" y1="835.1191" y2="835.1191"/><text fill="#000000" font-family="sans-serif" font-size="13" lengthAdjust="spacing" textLength="181.7397" x="401.4272" y="830.377">personalityType and insights</text></g><g class="message" data-participant-1="ReactApp" data-participant-2="User"><polygon fill="#181818" points="34.1826,860.4297,24.1826,864.4297,34.1826,868.4297,30.1826,864.4297" style="stroke:#181818;stroke-width:1;"/><line style="stroke:#181818;stroke-width:1;stroke-dasharray:2,2;" x1="28.1826" x2="383.4272" y1="864.4297" y2="864.4297"/><text fill="#000000" font-family="sans-serif" font-size="13" lengthAdjust="spacing" textLength="337.2446" x="40.1826" y="859.6875">Show personality results and prompt for video profile</text></g><!--SRC=[fLHTZzem47pth_1JnKc7aFfKdKIb75pRategXMlVtMJlOZN4hjT0uTTtRKAo3W6Tr1S-7E_ixCnElFOLo9_w5pmfdvToB7yWEBc4LutUAQzDBT_91JWqjQgqtyll6tsGdogp4qBbthXO8AnoNkVQgjfJCJt8h4qE7_vQ1uZPuZ4vpZQ-N87RwXpIyyF6GJQ_VpzBZXVElEWAXYe-mrhNEalXPmRN1kVtwKtpHR-MNs4BbH3JQJhiebG8SZeL8Wen_jYE8-_aG-tf3DPALwIALOWxumhHtg3RtPnqV_5jzImdokg9eZadBZOYjUYwtYeFN1N1AWc72KD0MzA-e8B0QQwy6jrq65n2mSi2IYiZWUGE6eYal5EQtHwVKTXGtImY5AFm-x6u4GKCmVH9d4mW45JRIA3naVDehMgldtEmZVs4Kl3cRMtQkc-7OqRFpDfMu67apM-eqr6ueDoLT1bYeLHr8OzoS0ZkQxSTL1-NwawkIhEJbgNg3wKgBkDPrAukv6aA-I4Yq0TWc0xVifEi_qJHz_u0RzdCD8D7Lt9w7DWk0Irr1-JEza8hUW04USekWJL4c0mZTm9bc6tQQqF_7ENP1rc1t8X2K5WKETJSau7w2xshkEH-R-7O3ZMAbi9uSCIkZaRSL7uKgcybBPFsU2inDoxmOolGCXoOjvS8Dcm_tCEfkCOl85m9o83utUimyDdN-OM4ylTc8djM73CG19yjd-HE-pAHEhWXU9_nXJsA1yGWPP-yiFi3zFURzSqQSzki9mRrr_9oqXdayt5f2gbh3DFZVwNUnLt224ZJhwsFMxhL1PYJ7E8V]--></g></svg>