<svg xmlns="http://www.w3.org/2000/svg" xmlns:xlink="http://www.w3.org/1999/xlink" contentStyleType="text/css" data-diagram-type="SEQUENCE" height="1571px" preserveAspectRatio="none" style="width:1566px;height:1571px;background:#FFFFFF;" version="1.1" viewBox="0 0 1566 1571" width="1566px" zoomAndPan="magnify"><title>VibeMatch - Community Platform Architecture</title><defs/><g><text fill="#000000" font-family="sans-serif" font-size="14" font-weight="bold" lengthAdjust="spacing" textLength="335.6787" x="613.8352" y="28.5352">VibeMatch - Community Platform Architecture</text><g><title>CommunityPage</title><rect fill="#000000" fill-opacity="0.00000" height="1461.8066" width="8" x="78.2002" y="73.9766"/><line style="stroke:#181818;stroke-width:0.5;stroke-dasharray:5,5;" x1="82" x2="82" y1="73.9766" y2="1535.7832"/></g><g><title>CommunityDetails</title><rect fill="#000000" fill-opacity="0.00000" height="1461.8066" width="8" x="219.8433" y="73.9766"/><line style="stroke:#181818;stroke-width:0.5;stroke-dasharray:5,5;" x1="223.4004" x2="223.4004" y1="73.9766" y2="1535.7832"/></g><g><title>PostComponents</title><rect fill="#000000" fill-opacity="0.00000" height="1461.8066" width="8" x="363.8003" y="73.9766"/><line style="stroke:#181818;stroke-width:0.5;stroke-dasharray:5,5;" x1="367.2861" x2="367.2861" y1="73.9766" y2="1535.7832"/></g><g><title>EventComponents</title><rect fill="#000000" fill-opacity="0.00000" height="1461.8066" width="8" x="506.7524" y="73.9766"/><line style="stroke:#181818;stroke-width:0.5;stroke-dasharray:5,5;" x1="510.3145" x2="510.3145" y1="73.9766" y2="1535.7832"/></g><g><title>CommunityService</title><rect fill="#000000" fill-opacity="0.00000" height="1461.8066" width="8" x="655.0571" y="73.9766"/><line style="stroke:#181818;stroke-width:0.5;stroke-dasharray:5,5;" x1="658.1904" x2="658.1904" y1="73.9766" y2="1535.7832"/></g><g><title>ContentService</title><rect fill="#000000" fill-opacity="0.00000" height="1461.8066" width="8" x="792.5576" y="73.9766"/><line style="stroke:#181818;stroke-width:0.5;stroke-dasharray:5,5;" x1="795.9238" x2="795.9238" y1="73.9766" y2="1535.7832"/></g><g><title>EventService</title><rect fill="#000000" fill-opacity="0.00000" height="1461.8066" width="8" x="909.1367" y="73.9766"/><line style="stroke:#181818;stroke-width:0.5;stroke-dasharray:5,5;" x1="912.1914" x2="912.1914" y1="73.9766" y2="1535.7832"/></g><g><title>DiscoveryService</title><rect fill="#000000" fill-opacity="0.00000" height="1461.8066" width="8" x="1031.5127" y="73.9766"/><line style="stroke:#181818;stroke-width:0.5;stroke-dasharray:5,5;" x1="1035.082" x2="1035.082" y1="73.9766" y2="1535.7832"/></g><g><title>CommunityMatching</title><rect fill="#000000" fill-opacity="0.00000" height="1461.8066" width="8" x="1194.5771" y="73.9766"/><line style="stroke:#181818;stroke-width:0.5;stroke-dasharray:5,5;" x1="1198.2012" x2="1198.2012" y1="73.9766" y2="1535.7832"/></g><g><title>CommunitiesDB</title><rect fill="#000000" fill-opacity="0.00000" height="1461.8066" width="8" x="1343.2578" y="73.9766"/><line style="stroke:#181818;stroke-width:0.5;stroke-dasharray:5,5;" x1="1346.9531" x2="1346.9531" y1="73.9766" y2="1535.7832"/></g><g><title>ActivityCache</title><rect fill="#000000" fill-opacity="0.00000" height="1461.8066" width="8" x="1467.0796" y="73.9766"/><line style="stroke:#181818;stroke-width:0.5;stroke-dasharray:5,5;" x1="1470.5625" x2="1470.5625" y1="73.9766" y2="1535.7832"/></g><g class="participant participant-head" data-participant="CommunityPage"><rect fill="#E2E2F0" height="30.4883" rx="2.5" ry="2.5" style="stroke:#181818;stroke-width:0.5;" width="124.4004" x="20" y="42.4883"/><text fill="#000000" font-family="sans-serif" font-size="14" lengthAdjust="spacing" textLength="110.4004" x="27" y="63.0234">CommunityPage</text></g><g class="participant participant-tail" data-participant="CommunityPage"><rect fill="#E2E2F0" height="30.4883" rx="2.5" ry="2.5" style="stroke:#181818;stroke-width:0.5;" width="124.4004" x="20" y="1534.7832"/><text fill="#000000" font-family="sans-serif" font-size="14" lengthAdjust="spacing" textLength="110.4004" x="27" y="1555.3184">CommunityPage</text></g><g class="participant participant-head" data-participant="CommunityDetails"><rect fill="#E2E2F0" height="30.4883" rx="2.5" ry="2.5" style="stroke:#181818;stroke-width:0.5;" width="138.8857" x="154.4004" y="42.4883"/><text fill="#000000" font-family="sans-serif" font-size="14" lengthAdjust="spacing" textLength="124.8857" x="161.4004" y="63.0234">CommunityDetails</text></g><g class="participant participant-tail" data-participant="CommunityDetails"><rect fill="#E2E2F0" height="30.4883" rx="2.5" ry="2.5" style="stroke:#181818;stroke-width:0.5;" width="138.8857" x="154.4004" y="1534.7832"/><text fill="#000000" font-family="sans-serif" font-size="14" lengthAdjust="spacing" textLength="124.8857" x="161.4004" y="1555.3184">CommunityDetails</text></g><g class="participant participant-head" data-participant="PostComponents"><rect fill="#E2E2F0" height="30.4883" rx="2.5" ry="2.5" style="stroke:#181818;stroke-width:0.5;" width="129.0283" x="303.2861" y="42.4883"/><text fill="#000000" font-family="sans-serif" font-size="14" lengthAdjust="spacing" textLength="115.0283" x="310.2861" y="63.0234">PostComponents</text></g><g class="participant participant-tail" data-participant="PostComponents"><rect fill="#E2E2F0" height="30.4883" rx="2.5" ry="2.5" style="stroke:#181818;stroke-width:0.5;" width="129.0283" x="303.2861" y="1534.7832"/><text fill="#000000" font-family="sans-serif" font-size="14" lengthAdjust="spacing" textLength="115.0283" x="310.2861" y="1555.3184">PostComponents</text></g><g class="participant participant-head" data-participant="EventComponents"><rect fill="#E2E2F0" height="30.4883" rx="2.5" ry="2.5" style="stroke:#181818;stroke-width:0.5;" width="136.876" x="442.3145" y="42.4883"/><text fill="#000000" font-family="sans-serif" font-size="14" lengthAdjust="spacing" textLength="122.876" x="449.3145" y="63.0234">EventComponents</text></g><g class="participant participant-tail" data-participant="EventComponents"><rect fill="#E2E2F0" height="30.4883" rx="2.5" ry="2.5" style="stroke:#181818;stroke-width:0.5;" width="136.876" x="442.3145" y="1534.7832"/><text fill="#000000" font-family="sans-serif" font-size="14" lengthAdjust="spacing" textLength="122.876" x="449.3145" y="1555.3184">EventComponents</text></g><g class="participant participant-head" data-participant="CommunityService"><rect fill="#E2E2F0" height="30.4883" rx="2.5" ry="2.5" style="stroke:#181818;stroke-width:0.5;" width="139.7334" x="589.1904" y="42.4883"/><text fill="#000000" font-family="sans-serif" font-size="14" lengthAdjust="spacing" textLength="125.7334" x="596.1904" y="63.0234">CommunityService</text></g><g class="participant participant-tail" data-participant="CommunityService"><rect fill="#E2E2F0" height="30.4883" rx="2.5" ry="2.5" style="stroke:#181818;stroke-width:0.5;" width="139.7334" x="589.1904" y="1534.7832"/><text fill="#000000" font-family="sans-serif" font-size="14" lengthAdjust="spacing" textLength="125.7334" x="596.1904" y="1555.3184">CommunityService</text></g><g class="participant participant-head" data-participant="ContentService"><rect fill="#E2E2F0" height="30.4883" rx="2.5" ry="2.5" style="stroke:#181818;stroke-width:0.5;" width="115.2676" x="738.9238" y="42.4883"/><text fill="#000000" font-family="sans-serif" font-size="14" lengthAdjust="spacing" textLength="101.2676" x="745.9238" y="63.0234">ContentService</text></g><g class="participant participant-tail" data-participant="ContentService"><rect fill="#E2E2F0" height="30.4883" rx="2.5" ry="2.5" style="stroke:#181818;stroke-width:0.5;" width="115.2676" x="738.9238" y="1534.7832"/><text fill="#000000" font-family="sans-serif" font-size="14" lengthAdjust="spacing" textLength="101.2676" x="745.9238" y="1555.3184">ContentService</text></g><g class="participant participant-head" data-participant="EventService"><rect fill="#E2E2F0" height="30.4883" rx="2.5" ry="2.5" style="stroke:#181818;stroke-width:0.5;" width="97.8906" x="864.1914" y="42.4883"/><text fill="#000000" font-family="sans-serif" font-size="14" lengthAdjust="spacing" textLength="83.8906" x="871.1914" y="63.0234">EventService</text></g><g class="participant participant-tail" data-participant="EventService"><rect fill="#E2E2F0" height="30.4883" rx="2.5" ry="2.5" style="stroke:#181818;stroke-width:0.5;" width="97.8906" x="864.1914" y="1534.7832"/><text fill="#000000" font-family="sans-serif" font-size="14" lengthAdjust="spacing" textLength="83.8906" x="871.1914" y="1555.3184">EventService</text></g><g class="participant participant-head" data-participant="DiscoveryService"><rect fill="#E2E2F0" height="30.4883" rx="2.5" ry="2.5" style="stroke:#181818;stroke-width:0.5;" width="126.8613" x="972.082" y="42.4883"/><text fill="#000000" font-family="sans-serif" font-size="14" lengthAdjust="spacing" textLength="112.8613" x="979.082" y="63.0234">DiscoveryService</text></g><g class="participant participant-tail" data-participant="DiscoveryService"><rect fill="#E2E2F0" height="30.4883" rx="2.5" ry="2.5" style="stroke:#181818;stroke-width:0.5;" width="126.8613" x="972.082" y="1534.7832"/><text fill="#000000" font-family="sans-serif" font-size="14" lengthAdjust="spacing" textLength="112.8613" x="979.082" y="1555.3184">DiscoveryService</text></g><g class="participant participant-head" data-participant="CommunityMatching"><rect fill="#E2E2F0" height="30.4883" rx="2.5" ry="2.5" style="stroke:#181818;stroke-width:0.5;" width="154.752" x="1121.2012" y="42.4883"/><text fill="#000000" font-family="sans-serif" font-size="14" lengthAdjust="spacing" textLength="140.752" x="1128.2012" y="63.0234">CommunityMatching</text></g><g class="participant participant-tail" data-participant="CommunityMatching"><rect fill="#E2E2F0" height="30.4883" rx="2.5" ry="2.5" style="stroke:#181818;stroke-width:0.5;" width="154.752" x="1121.2012" y="1534.7832"/><text fill="#000000" font-family="sans-serif" font-size="14" lengthAdjust="spacing" textLength="140.752" x="1128.2012" y="1555.3184">CommunityMatching</text></g><g class="participant participant-head" data-participant="CommunitiesDB"><rect fill="#E2E2F0" height="30.4883" rx="2.5" ry="2.5" style="stroke:#181818;stroke-width:0.5;" width="122.6094" x="1285.9531" y="42.4883"/><text fill="#000000" font-family="sans-serif" font-size="14" lengthAdjust="spacing" textLength="108.6094" x="1292.9531" y="63.0234">CommunitiesDB</text></g><g class="participant participant-tail" data-participant="CommunitiesDB"><rect fill="#E2E2F0" height="30.4883" rx="2.5" ry="2.5" style="stroke:#181818;stroke-width:0.5;" width="122.6094" x="1285.9531" y="1534.7832"/><text fill="#000000" font-family="sans-serif" font-size="14" lengthAdjust="spacing" textLength="108.6094" x="1292.9531" y="1555.3184">CommunitiesDB</text></g><g class="participant participant-head" data-participant="ActivityCache"><rect fill="#E2E2F0" height="30.4883" rx="2.5" ry="2.5" style="stroke:#181818;stroke-width:0.5;" width="105.0342" x="1418.5625" y="42.4883"/><text fill="#000000" font-family="sans-serif" font-size="14" lengthAdjust="spacing" textLength="91.0342" x="1425.5625" y="63.0234">ActivityCache</text></g><g class="participant participant-tail" data-participant="ActivityCache"><rect fill="#E2E2F0" height="30.4883" rx="2.5" ry="2.5" style="stroke:#181818;stroke-width:0.5;" width="105.0342" x="1418.5625" y="1534.7832"/><text fill="#000000" font-family="sans-serif" font-size="14" lengthAdjust="spacing" textLength="91.0342" x="1425.5625" y="1555.3184">ActivityCache</text></g><path d="M5,88.9766 L5,159.9766 L159,159.9766 L159,98.9766 L149,88.9766 L5,88.9766" fill="#FEFFDD" style="stroke:#181818;stroke-width:0.5;"/><path d="M149,88.9766 L149,98.9766 L159,98.9766 L149,88.9766" fill="#FEFFDD" style="stroke:#181818;stroke-width:0.5;"/><text fill="#000000" font-family="sans-serif" font-size="13" lengthAdjust="spacing" textLength="133.6118" x="11" y="106.5449">Community Frontend</text><text fill="#000000" font-family="sans-serif" font-size="13" lengthAdjust="spacing" textLength="110.7285" x="11" y="121.8555">- Community List</text><text fill="#000000" font-family="sans-serif" font-size="13" lengthAdjust="spacing" textLength="102.3052" x="11" y="137.166">- Search &amp; Filter</text><text fill="#000000" font-family="sans-serif" font-size="13" lengthAdjust="spacing" textLength="102.4385" x="11" y="152.4766">- Category Tabs</text><path d="M151,170.2188 L151,256.2188 L295,256.2188 L295,180.2188 L285,170.2188 L151,170.2188" fill="#FEFFDD" style="stroke:#181818;stroke-width:0.5;"/><path d="M285,170.2188 L285,180.2188 L295,180.2188 L285,170.2188" fill="#FEFFDD" style="stroke:#181818;stroke-width:0.5;"/><text fill="#000000" font-family="sans-serif" font-size="13" lengthAdjust="spacing" textLength="120.0786" x="157" y="187.7871">Community Details</text><text fill="#000000" font-family="sans-serif" font-size="13" lengthAdjust="spacing" textLength="89.248" x="157" y="203.0977">- Member List</text><text fill="#000000" font-family="sans-serif" font-size="13" lengthAdjust="spacing" textLength="72.0459" x="157" y="218.4082">- Post Feed</text><text fill="#000000" font-family="sans-serif" font-size="13" lengthAdjust="spacing" textLength="105.6187" x="157" y="233.7188">- Event Calendar</text><text fill="#000000" font-family="sans-serif" font-size="13" lengthAdjust="spacing" textLength="123.0684" x="157" y="249.0293">- Join/Leave Button</text><path d="M296,266.7715 L296,352.7715 L438,352.7715 L438,276.7715 L428,266.7715 L296,266.7715" fill="#FEFFDD" style="stroke:#181818;stroke-width:0.5;"/><path d="M428,266.7715 L428,276.7715 L438,276.7715 L428,266.7715" fill="#FEFFDD" style="stroke:#181818;stroke-width:0.5;"/><text fill="#000000" font-family="sans-serif" font-size="13" lengthAdjust="spacing" textLength="112.0552" x="302" y="284.3398">Post Management</text><text fill="#000000" font-family="sans-serif" font-size="13" lengthAdjust="spacing" textLength="89.3115" x="302" y="299.6504">- Post Creator</text><text fill="#000000" font-family="sans-serif" font-size="13" lengthAdjust="spacing" textLength="72.084" x="302" y="314.9609">- Post Card</text><text fill="#000000" font-family="sans-serif" font-size="13" lengthAdjust="spacing" textLength="121.3862" x="302" y="330.2715">- Comment Thread</text><text fill="#000000" font-family="sans-serif" font-size="13" lengthAdjust="spacing" textLength="85.9409" x="302" y="345.582">- Like System</text><path d="M440,363.3242 L440,449.3242 L580,449.3242 L580,373.3242 L570,363.3242 L440,363.3242" fill="#FEFFDD" style="stroke:#181818;stroke-width:0.5;"/><path d="M570,363.3242 L570,373.3242 L580,373.3242 L570,363.3242" fill="#FEFFDD" style="stroke:#181818;stroke-width:0.5;"/><text fill="#000000" font-family="sans-serif" font-size="13" lengthAdjust="spacing" textLength="119.3423" x="446" y="380.8926">Event Management</text><text fill="#000000" font-family="sans-serif" font-size="13" lengthAdjust="spacing" textLength="96.5986" x="446" y="396.2031">- Event Creator</text><text fill="#000000" font-family="sans-serif" font-size="13" lengthAdjust="spacing" textLength="79.3711" x="446" y="411.5137">- Event Card</text><text fill="#000000" font-family="sans-serif" font-size="13" lengthAdjust="spacing" textLength="91.3174" x="446" y="426.8242">- RSVP System</text><text fill="#000000" font-family="sans-serif" font-size="13" lengthAdjust="spacing" textLength="101.188" x="446" y="442.1348">- Calendar View</text><path d="M574,459.877 L574,545.877 L743,545.877 L743,469.877 L733,459.877 L574,459.877" fill="#FEFFDD" style="stroke:#181818;stroke-width:0.5;"/><path d="M733,459.877 L733,469.877 L743,469.877 L733,459.877" fill="#FEFFDD" style="stroke:#181818;stroke-width:0.5;"/><text fill="#000000" font-family="sans-serif" font-size="13" lengthAdjust="spacing" textLength="107.0977" x="580" y="477.4453">Backend Services</text><text fill="#000000" font-family="sans-serif" font-size="13" lengthAdjust="spacing" textLength="121.0308" x="580" y="492.7559">- CRUD Operations</text><text fill="#000000" font-family="sans-serif" font-size="13" lengthAdjust="spacing" textLength="148.3511" x="580" y="508.0664">- Member Management</text><text fill="#000000" font-family="sans-serif" font-size="13" lengthAdjust="spacing" textLength="129.1177" x="580" y="523.377">- Permission System</text><text fill="#000000" font-family="sans-serif" font-size="13" lengthAdjust="spacing" textLength="99.5059" x="580" y="538.6875">- Search Engine</text><path d="M717,556.4297 L717,642.4297 L875,642.4297 L875,566.4297 L865,556.4297 L717,556.4297" fill="#FEFFDD" style="stroke:#181818;stroke-width:0.5;"/><path d="M865,556.4297 L865,566.4297 L875,566.4297 L865,556.4297" fill="#FEFFDD" style="stroke:#181818;stroke-width:0.5;"/><text fill="#000000" font-family="sans-serif" font-size="13" lengthAdjust="spacing" textLength="135.478" x="723" y="573.998">Content Management</text><text fill="#000000" font-family="sans-serif" font-size="13" lengthAdjust="spacing" textLength="123.6904" x="723" y="589.3086">- Post Management</text><text fill="#000000" font-family="sans-serif" font-size="13" lengthAdjust="spacing" textLength="121.8369" x="723" y="604.6191">- Comment System</text><text fill="#000000" font-family="sans-serif" font-size="13" lengthAdjust="spacing" textLength="97.6016" x="723" y="619.9297">- Media Upload</text><text fill="#000000" font-family="sans-serif" font-size="13" lengthAdjust="spacing" textLength="137.6108" x="723" y="635.2402">- Content Moderation</text><path d="M832,652.9824 L832,738.9824 L993,738.9824 L993,662.9824 L983,652.9824 L832,652.9824" fill="#FEFFDD" style="stroke:#181818;stroke-width:0.5;"/><path d="M983,652.9824 L983,662.9824 L993,662.9824 L983,652.9824" fill="#FEFFDD" style="stroke:#181818;stroke-width:0.5;"/><text fill="#000000" font-family="sans-serif" font-size="13" lengthAdjust="spacing" textLength="119.3423" x="838" y="670.5508">Event Management</text><text fill="#000000" font-family="sans-serif" font-size="13" lengthAdjust="spacing" textLength="85.6553" x="838" y="685.8613">- Event CRUD</text><text fill="#000000" font-family="sans-serif" font-size="13" lengthAdjust="spacing" textLength="101.5625" x="838" y="701.1719">- RSVP Tracking</text><text fill="#000000" font-family="sans-serif" font-size="13" lengthAdjust="spacing" textLength="133.6689" x="838" y="716.4824">- Notification System</text><text fill="#000000" font-family="sans-serif" font-size="13" lengthAdjust="spacing" textLength="140.8672" x="838" y="731.793">- Calendar Integration</text><path d="M941,749.5352 L941,835.5352 L1129,835.5352 L1129,759.5352 L1119,749.5352 L941,749.5352" fill="#FEFFDD" style="stroke:#181818;stroke-width:0.5;"/><path d="M1119,749.5352 L1119,759.5352 L1129,759.5352 L1119,749.5352" fill="#FEFFDD" style="stroke:#181818;stroke-width:0.5;"/><text fill="#000000" font-family="sans-serif" font-size="13" lengthAdjust="spacing" textLength="107.25" x="947" y="767.1035">Discovery Engine</text><text fill="#000000" font-family="sans-serif" font-size="13" lengthAdjust="spacing" textLength="167.7622" x="947" y="782.4141">- Recommendation Engine</text><text fill="#000000" font-family="sans-serif" font-size="13" lengthAdjust="spacing" textLength="135.6748" x="947" y="797.7246">- Trending Algorithm</text><text fill="#000000" font-family="sans-serif" font-size="13" lengthAdjust="spacing" textLength="153.9243" x="947" y="813.0352">- User Interest Matching</text><text fill="#000000" font-family="sans-serif" font-size="13" lengthAdjust="spacing" textLength="165.001" x="947" y="828.3457">- Community Suggestions</text><path d="M1063,846.0879 L1063,932.0879 L1333,932.0879 L1333,856.0879 L1323,846.0879 L1063,846.0879" fill="#FEFFDD" style="stroke:#181818;stroke-width:0.5;"/><path d="M1323,846.0879 L1323,856.0879 L1333,856.0879 L1323,846.0879" fill="#FEFFDD" style="stroke:#181818;stroke-width:0.5;"/><text fill="#000000" font-family="sans-serif" font-size="13" lengthAdjust="spacing" textLength="122.5225" x="1069" y="863.6563">Enhanced Matching</text><text fill="#000000" font-family="sans-serif" font-size="13" lengthAdjust="spacing" textLength="171.2407" x="1069" y="878.9668">- Shared Interest Detection</text><text fill="#000000" font-family="sans-serif" font-size="13" lengthAdjust="spacing" textLength="249.8374" x="1069" y="894.2773">- Community-based Recommendations</text><text fill="#000000" font-family="sans-serif" font-size="13" lengthAdjust="spacing" textLength="183.041" x="1069" y="909.5879">- Event Attendance Matching</text><text fill="#000000" font-family="sans-serif" font-size="13" lengthAdjust="spacing" textLength="180.0132" x="1069" y="924.8984">- Social Discovery Algorithm</text><path d="M1261,942.6406 L1261,1028.6406 L1433,1028.6406 L1433,952.6406 L1423,942.6406 L1261,942.6406" fill="#FEFFDD" style="stroke:#181818;stroke-width:0.5;"/><path d="M1423,942.6406 L1423,952.6406 L1433,952.6406 L1423,942.6406" fill="#FEFFDD" style="stroke:#181818;stroke-width:0.5;"/><text fill="#000000" font-family="sans-serif" font-size="13" lengthAdjust="spacing" textLength="80.7676" x="1267" y="960.209">Data Storage</text><text fill="#000000" font-family="sans-serif" font-size="13" lengthAdjust="spacing" textLength="135.2051" x="1267" y="975.5195">- Community Profiles</text><text fill="#000000" font-family="sans-serif" font-size="13" lengthAdjust="spacing" textLength="151.4043" x="1267" y="990.8301">- Member Relationships</text><text fill="#000000" font-family="sans-serif" font-size="13" lengthAdjust="spacing" textLength="130.2666" x="1267" y="1006.1406">- Posts &amp; Comments</text><text fill="#000000" font-family="sans-serif" font-size="13" lengthAdjust="spacing" textLength="107.0342" x="1267" y="1021.4512">- Events &amp; RSVPs</text><path d="M1382,1039.1934 L1382,1110.1934 L1559,1110.1934 L1559,1049.1934 L1549,1039.1934 L1382,1039.1934" fill="#FEFFDD" style="stroke:#181818;stroke-width:0.5;"/><path d="M1549,1039.1934 L1549,1049.1934 L1559,1049.1934 L1549,1039.1934" fill="#FEFFDD" style="stroke:#181818;stroke-width:0.5;"/><text fill="#000000" font-family="sans-serif" font-size="13" lengthAdjust="spacing" textLength="121.3735" x="1388" y="1056.7617">Performance Cache</text><text fill="#000000" font-family="sans-serif" font-size="13" lengthAdjust="spacing" textLength="91.3301" x="1388" y="1072.0723">- Recent Posts</text><text fill="#000000" font-family="sans-serif" font-size="13" lengthAdjust="spacing" textLength="111.9155" x="1388" y="1087.3828">- Active Members</text><text fill="#000000" font-family="sans-serif" font-size="13" lengthAdjust="spacing" textLength="156.3491" x="1388" y="1102.6934">- Trending Communities</text><g class="message" data-participant-1="CommunityPage" data-participant-2="CommunityService"><polygon fill="#181818" points="647.0571,1132.7461,657.0571,1136.7461,647.0571,1140.7461,651.0571,1136.7461" style="stroke:#181818;stroke-width:1;"/><line style="stroke:#181818;stroke-width:1;" x1="82.2002" x2="653.0571" y1="1136.7461" y2="1136.7461"/><text fill="#000000" font-family="sans-serif" font-size="13" lengthAdjust="spacing" textLength="106.9136" x="89.2002" y="1132.0039">Get communities</text></g><g class="message" data-participant-1="CommunityDetails" data-participant-2="CommunityService"><polygon fill="#181818" points="647.0571,1162.0566,657.0571,1166.0566,647.0571,1170.0566,651.0571,1166.0566" style="stroke:#181818;stroke-width:1;"/><line style="stroke:#181818;stroke-width:1;" x1="223.8433" x2="653.0571" y1="1166.0566" y2="1166.0566"/><text fill="#000000" font-family="sans-serif" font-size="13" lengthAdjust="spacing" textLength="141.8003" x="230.8433" y="1161.3145">Get community details</text></g><g class="message" data-participant-1="CommunityDetails" data-participant-2="ContentService"><polygon fill="#181818" points="784.5576,1191.3672,794.5576,1195.3672,784.5576,1199.3672,788.5576,1195.3672" style="stroke:#181818;stroke-width:1;"/><line style="stroke:#181818;stroke-width:1;" x1="223.8433" x2="790.5576" y1="1195.3672" y2="1195.3672"/><text fill="#000000" font-family="sans-serif" font-size="13" lengthAdjust="spacing" textLength="59.8965" x="230.8433" y="1190.625">Get posts</text></g><g class="message" data-participant-1="CommunityDetails" data-participant-2="EventService"><polygon fill="#181818" points="901.1367,1220.6777,911.1367,1224.6777,901.1367,1228.6777,905.1367,1224.6777" style="stroke:#181818;stroke-width:1;"/><line style="stroke:#181818;stroke-width:1;" x1="223.8433" x2="907.1367" y1="1224.6777" y2="1224.6777"/><text fill="#000000" font-family="sans-serif" font-size="13" lengthAdjust="spacing" textLength="66.3838" x="230.8433" y="1219.9355">Get events</text></g><g class="message" data-participant-1="PostComponents" data-participant-2="ContentService"><polygon fill="#181818" points="784.5576,1249.9883,794.5576,1253.9883,784.5576,1257.9883,788.5576,1253.9883" style="stroke:#181818;stroke-width:1;"/><line style="stroke:#181818;stroke-width:1;" x1="367.8003" x2="790.5576" y1="1253.9883" y2="1253.9883"/><text fill="#000000" font-family="sans-serif" font-size="13" lengthAdjust="spacing" textLength="74.3564" x="374.8003" y="1249.2461">CRUD posts</text></g><g class="message" data-participant-1="EventComponents" data-participant-2="EventService"><polygon fill="#181818" points="901.1367,1279.2988,911.1367,1283.2988,901.1367,1287.2988,905.1367,1283.2988" style="stroke:#181818;stroke-width:1;"/><line style="stroke:#181818;stroke-width:1;" x1="510.7524" x2="907.1367" y1="1283.2988" y2="1283.2988"/><text fill="#000000" font-family="sans-serif" font-size="13" lengthAdjust="spacing" textLength="80.8438" x="517.7524" y="1278.5566">CRUD events</text></g><g class="message" data-participant-1="CommunityService" data-participant-2="CommunitiesDB"><polygon fill="#181818" points="1335.2578,1308.6094,1345.2578,1312.6094,1335.2578,1316.6094,1339.2578,1312.6094" style="stroke:#181818;stroke-width:1;"/><line style="stroke:#181818;stroke-width:1;" x1="659.0571" x2="1341.2578" y1="1312.6094" y2="1312.6094"/><text fill="#000000" font-family="sans-serif" font-size="13" lengthAdjust="spacing" textLength="138.5059" x="666.0571" y="1307.8672">Store community data</text></g><g class="message" data-participant-1="ContentService" data-participant-2="CommunitiesDB"><polygon fill="#181818" points="1335.2578,1337.9199,1345.2578,1341.9199,1335.2578,1345.9199,1339.2578,1341.9199" style="stroke:#181818;stroke-width:1;"/><line style="stroke:#181818;stroke-width:1;" x1="796.5576" x2="1341.2578" y1="1341.9199" y2="1341.9199"/><text fill="#000000" font-family="sans-serif" font-size="13" lengthAdjust="spacing" textLength="168.1812" x="803.5576" y="1337.1777">Store posts and comments</text></g><g class="message" data-participant-1="EventService" data-participant-2="CommunitiesDB"><polygon fill="#181818" points="1335.2578,1367.2305,1345.2578,1371.2305,1335.2578,1375.2305,1339.2578,1371.2305" style="stroke:#181818;stroke-width:1;"/><line style="stroke:#181818;stroke-width:1;" x1="913.1367" x2="1341.2578" y1="1371.2305" y2="1371.2305"/><text fill="#000000" font-family="sans-serif" font-size="13" lengthAdjust="spacing" textLength="146.4849" x="920.1367" y="1366.4883">Store events and RSVPs</text></g><g class="message" data-participant-1="DiscoveryService" data-participant-2="CommunitiesDB"><polygon fill="#181818" points="1335.2578,1396.541,1345.2578,1400.541,1335.2578,1404.541,1339.2578,1400.541" style="stroke:#181818;stroke-width:1;"/><line style="stroke:#181818;stroke-width:1;" x1="1035.5127" x2="1341.2578" y1="1400.541" y2="1400.541"/><text fill="#000000" font-family="sans-serif" font-size="13" lengthAdjust="spacing" textLength="136.9189" x="1042.5127" y="1395.7988">Read community data</text></g><g class="message" data-participant-1="CommunityService" data-participant-2="ActivityCache"><polygon fill="#181818" points="1459.0796,1425.8516,1469.0796,1429.8516,1459.0796,1433.8516,1463.0796,1429.8516" style="stroke:#181818;stroke-width:1;"/><line style="stroke:#181818;stroke-width:1;" x1="659.0571" x2="1465.0796" y1="1429.8516" y2="1429.8516"/><text fill="#000000" font-family="sans-serif" font-size="13" lengthAdjust="spacing" textLength="144.2378" x="666.0571" y="1425.1094">Cache community data</text></g><g class="message" data-participant-1="DiscoveryService" data-participant-2="ActivityCache"><polygon fill="#181818" points="1459.0796,1455.1621,1469.0796,1459.1621,1459.0796,1463.1621,1463.0796,1459.1621" style="stroke:#181818;stroke-width:1;"/><line style="stroke:#181818;stroke-width:1;" x1="1035.5127" x2="1465.0796" y1="1459.1621" y2="1459.1621"/><text fill="#000000" font-family="sans-serif" font-size="13" lengthAdjust="spacing" textLength="127.3784" x="1042.5127" y="1454.4199">Cache trending data</text></g><g class="message" data-participant-1="CommunityService" data-participant-2="CommunityMatching"><polygon fill="#181818" points="1186.5771,1484.4727,1196.5771,1488.4727,1186.5771,1492.4727,1190.5771,1488.4727" style="stroke:#181818;stroke-width:1;"/><line style="stroke:#181818;stroke-width:1;" x1="659.0571" x2="1192.5771" y1="1488.4727" y2="1488.4727"/><text fill="#000000" font-family="sans-serif" font-size="13" lengthAdjust="spacing" textLength="115.0386" x="666.0571" y="1483.7305">Share activity data</text></g><g class="message" data-participant-1="DiscoveryService" data-participant-2="CommunityMatching"><polygon fill="#181818" points="1186.5771,1513.7832,1196.5771,1517.7832,1186.5771,1521.7832,1190.5771,1517.7832" style="stroke:#181818;stroke-width:1;"/><line style="stroke:#181818;stroke-width:1;" x1="1035.5127" x2="1192.5771" y1="1517.7832" y2="1517.7832"/><text fill="#000000" font-family="sans-serif" font-size="13" lengthAdjust="spacing" textLength="139.0645" x="1042.5127" y="1513.041">Get recommendations</text></g><!--SRC=[XLN1RXen4BtlLrWvz1RrtaCb0adLAhG8I4wz63FiMbbiP0zK_7t7NYzuZ6bFKHupyzuypyoYnXx4kzx0NABgnAEOslt-Q3IUnQANkBDkBoPETHf1uT51qnoaGwtqGHeK3vVeXMpXGKWl678dU0OeTUzvV09voi9wf8Y3DM1mIE0G3ty-4LR45zWTIIjm9wsA5X9OfXYaGZmXXogIyk0SuA4pxPKzWMDYIl2E_lXyshIyWH6j9sdmioUM414UF56eJrHgAbKtA698qnYB8892_lJYIpPABouwjFrjyW5xrHu3iW994oO-YHVT8xWO915QwyvYBJU-of76XT4aB1IOmtv3uID561hn0X0Ln1SWYfuKoKZtmshp-HNa2SJJ4T6Qd98F7176OdDfgCizGPVwKmSIhRl-Bzsbuy2uxYWW8g_w0yJgx17sELCngaGrIELSIVwLREndO5kktXUfzk3aq2OjEVofEfa6YzYUfFgWO96GQEHq-JOJlmxW96fhScyB1y3jjVSKav6dbtqshJR5gEGR4nyn0ZLREJIQUIMPmrPByNRehKnsfr9scrJVU7pb_OV1rFZ5pxKZQsYH0l3Jejvf5IlNZFvEzEqjSRd8H7w1aaEH3bJiS3lKl_wmTWII137fQJCqTf7rpSF0w21QDUmxtxFLiMtfr_1yrG4Oiu8TffD6mPPLMdNI4NHXeJMZZm6LOpIF6-afYkltLpyd62v0gCwBMwLbdrbnQQ-cDHweu9n4ALOq__HilDc5iplTGpweI-W7CPq- -76iFDsRD4jNaG4CxyryOlSkh3-uy5cCdKGiFLjeCbOE_ySaI0eyUx-ibwRXD_FnQsqjlm4AbINTtC3_fvt5DdrUwyd5DeRKGsYb6bwiK0Y6w5xJ5BUoLZiUbA5uUUzkQyVWiVXDZrdVus24cO2yRHgKfj1mDosg4f8ke4gJqJ0zTnC7XJ5p69-RPQ-aBkbZK2gjzbWEuF2toAmnrXDn7CJxZBNJ4A-0aAdaVT9QRXWHnmz3ynS0]--></g></svg>