<svg xmlns="http://www.w3.org/2000/svg" xmlns:xlink="http://www.w3.org/1999/xlink" contentStyleType="text/css" data-diagram-type="SEQUENCE" height="1739px" preserveAspectRatio="none" style="width:1265px;height:1739px;background:#FFFFFF;" version="1.1" viewBox="0 0 1265 1739" width="1265px" zoomAndPan="magnify"><title>VibeMatch - Database Entity Relationships</title><defs/><g><text fill="#000000" font-family="sans-serif" font-size="14" font-weight="bold" lengthAdjust="spacing" textLength="308.8613" x="476.9036" y="28.5352">VibeMatch - Database Entity Relationships</text><g><title>users</title><rect fill="#000000" fill-opacity="0.00000" height="1630.2227" width="8" x="112.2451" y="73.9766"/><line style="stroke:#181818;stroke-width:0.5;stroke-dasharray:5,5;" x1="116" x2="116" y1="73.9766" y2="1704.1992"/></g><g><title>profiles</title><rect fill="#000000" fill-opacity="0.00000" height="1630.2227" width="8" x="191.2412" y="73.9766"/><line style="stroke:#181818;stroke-width:0.5;stroke-dasharray:5,5;" x1="194.5825" x2="194.5825" y1="73.9766" y2="1704.1992"/></g><g><title>personality_data</title><rect fill="#000000" fill-opacity="0.00000" height="1630.2227" width="8" x="296.7256" y="73.9766"/><line style="stroke:#181818;stroke-width:0.5;stroke-dasharray:5,5;" x1="299.8999" x2="299.8999" y1="73.9766" y2="1704.1992"/></g><g><title>matches</title><rect fill="#000000" fill-opacity="0.00000" height="1630.2227" width="8" x="404.9683" y="73.9766"/><line style="stroke:#181818;stroke-width:0.5;stroke-dasharray:5,5;" x1="408.5513" x2="408.5513" y1="73.9766" y2="1704.1992"/></g><g><title>interactions</title><rect fill="#000000" fill-opacity="0.00000" height="1630.2227" width="8" x="497.4404" y="73.9766"/><line style="stroke:#181818;stroke-width:0.5;stroke-dasharray:5,5;" x1="501.3853" x2="501.3853" y1="73.9766" y2="1704.1992"/></g><g><title>messages</title><rect fill="#000000" fill-opacity="0.00000" height="1630.2227" width="8" x="594.7661" y="73.9766"/><line style="stroke:#181818;stroke-width:0.5;stroke-dasharray:5,5;" x1="598.4956" x2="598.4956" y1="73.9766" y2="1704.1992"/></g><g><title>communities</title><rect fill="#000000" fill-opacity="0.00000" height="1630.2227" width="8" x="695.814" y="73.9766"/><line style="stroke:#181818;stroke-width:0.5;stroke-dasharray:5,5;" x1="699.0366" x2="699.0366" y1="73.9766" y2="1704.1992"/></g><g><title>community_members</title><rect fill="#000000" fill-opacity="0.00000" height="1630.2227" width="8" x="836.7427" y="73.9766"/><line style="stroke:#181818;stroke-width:0.5;stroke-dasharray:5,5;" x1="840.5913" x2="840.5913" y1="73.9766" y2="1704.1992"/></g><g><title>posts</title><rect fill="#000000" fill-opacity="0.00000" height="1630.2227" width="8" x="952.3545" y="73.9766"/><line style="stroke:#181818;stroke-width:0.5;stroke-dasharray:5,5;" x1="955.894" x2="955.894" y1="73.9766" y2="1704.1992"/></g><g><title>events</title><rect fill="#000000" fill-opacity="0.00000" height="1630.2227" width="8" x="1016.7686" y="73.9766"/><line style="stroke:#181818;stroke-width:0.5;stroke-dasharray:5,5;" x1="1019.8149" x2="1019.8149" y1="73.9766" y2="1704.1992"/></g><g><title>event_rsvps</title><rect fill="#000000" fill-opacity="0.00000" height="1630.2227" width="8" x="1150.6655" y="73.9766"/><line style="stroke:#181818;stroke-width:0.5;stroke-dasharray:5,5;" x1="1153.7505" x2="1153.7505" y1="73.9766" y2="1704.1992"/></g><g class="participant participant-head" data-participant="users"><rect fill="#E2E2F0" height="30.4883" rx="2.5" ry="2.5" style="stroke:#181818;stroke-width:0.5;" width="50.4902" x="91" y="42.4883"/><text fill="#000000" font-family="sans-serif" font-size="14" lengthAdjust="spacing" textLength="36.4902" x="98" y="63.0234">users</text></g><g class="participant participant-tail" data-participant="users"><rect fill="#E2E2F0" height="30.4883" rx="2.5" ry="2.5" style="stroke:#181818;stroke-width:0.5;" width="50.4902" x="91" y="1703.1992"/><text fill="#000000" font-family="sans-serif" font-size="14" lengthAdjust="spacing" textLength="36.4902" x="98" y="1723.7344">users</text></g><g class="participant participant-head" data-participant="profiles"><rect fill="#E2E2F0" height="30.4883" rx="2.5" ry="2.5" style="stroke:#181818;stroke-width:0.5;" width="65.3174" x="162.5825" y="42.4883"/><text fill="#000000" font-family="sans-serif" font-size="14" lengthAdjust="spacing" textLength="51.3174" x="169.5825" y="63.0234">profiles</text></g><g class="participant participant-tail" data-participant="profiles"><rect fill="#E2E2F0" height="30.4883" rx="2.5" ry="2.5" style="stroke:#181818;stroke-width:0.5;" width="65.3174" x="162.5825" y="1703.1992"/><text fill="#000000" font-family="sans-serif" font-size="14" lengthAdjust="spacing" textLength="51.3174" x="169.5825" y="1723.7344">profiles</text></g><g class="participant participant-head" data-participant="personality"><rect fill="#E2E2F0" height="30.4883" rx="2.5" ry="2.5" style="stroke:#181818;stroke-width:0.5;" width="125.6514" x="237.8999" y="42.4883"/><text fill="#000000" font-family="sans-serif" font-size="14" lengthAdjust="spacing" textLength="111.6514" x="244.8999" y="63.0234">personality_data</text></g><g class="participant participant-tail" data-participant="personality"><rect fill="#E2E2F0" height="30.4883" rx="2.5" ry="2.5" style="stroke:#181818;stroke-width:0.5;" width="125.6514" x="237.8999" y="1703.1992"/><text fill="#000000" font-family="sans-serif" font-size="14" lengthAdjust="spacing" textLength="111.6514" x="244.8999" y="1723.7344">personality_data</text></g><g class="participant participant-head" data-participant="matches"><rect fill="#E2E2F0" height="30.4883" rx="2.5" ry="2.5" style="stroke:#181818;stroke-width:0.5;" width="70.834" x="373.5513" y="42.4883"/><text fill="#000000" font-family="sans-serif" font-size="14" lengthAdjust="spacing" textLength="56.834" x="380.5513" y="63.0234">matches</text></g><g class="participant participant-tail" data-participant="matches"><rect fill="#E2E2F0" height="30.4883" rx="2.5" ry="2.5" style="stroke:#181818;stroke-width:0.5;" width="70.834" x="373.5513" y="1703.1992"/><text fill="#000000" font-family="sans-serif" font-size="14" lengthAdjust="spacing" textLength="56.834" x="380.5513" y="1723.7344">matches</text></g><g class="participant participant-head" data-participant="interactions"><rect fill="#E2E2F0" height="30.4883" rx="2.5" ry="2.5" style="stroke:#181818;stroke-width:0.5;" width="94.1104" x="454.3853" y="42.4883"/><text fill="#000000" font-family="sans-serif" font-size="14" lengthAdjust="spacing" textLength="80.1104" x="461.3853" y="63.0234">interactions</text></g><g class="participant participant-tail" data-participant="interactions"><rect fill="#E2E2F0" height="30.4883" rx="2.5" ry="2.5" style="stroke:#181818;stroke-width:0.5;" width="94.1104" x="454.3853" y="1703.1992"/><text fill="#000000" font-family="sans-serif" font-size="14" lengthAdjust="spacing" textLength="80.1104" x="461.3853" y="1723.7344">interactions</text></g><g class="participant participant-head" data-participant="messages"><rect fill="#E2E2F0" height="30.4883" rx="2.5" ry="2.5" style="stroke:#181818;stroke-width:0.5;" width="80.541" x="558.4956" y="42.4883"/><text fill="#000000" font-family="sans-serif" font-size="14" lengthAdjust="spacing" textLength="66.541" x="565.4956" y="63.0234">messages</text></g><g class="participant participant-tail" data-participant="messages"><rect fill="#E2E2F0" height="30.4883" rx="2.5" ry="2.5" style="stroke:#181818;stroke-width:0.5;" width="80.541" x="558.4956" y="1703.1992"/><text fill="#000000" font-family="sans-serif" font-size="14" lengthAdjust="spacing" textLength="66.541" x="565.4956" y="1723.7344">messages</text></g><g class="participant participant-head" data-participant="communities"><rect fill="#E2E2F0" height="30.4883" rx="2.5" ry="2.5" style="stroke:#181818;stroke-width:0.5;" width="101.5547" x="649.0366" y="42.4883"/><text fill="#000000" font-family="sans-serif" font-size="14" lengthAdjust="spacing" textLength="87.5547" x="656.0366" y="63.0234">communities</text></g><g class="participant participant-tail" data-participant="communities"><rect fill="#E2E2F0" height="30.4883" rx="2.5" ry="2.5" style="stroke:#181818;stroke-width:0.5;" width="101.5547" x="649.0366" y="1703.1992"/><text fill="#000000" font-family="sans-serif" font-size="14" lengthAdjust="spacing" textLength="87.5547" x="656.0366" y="1723.7344">communities</text></g><g class="participant participant-head" data-participant="community_members"><rect fill="#E2E2F0" height="30.4883" rx="2.5" ry="2.5" style="stroke:#181818;stroke-width:0.5;" width="160.3027" x="760.5913" y="42.4883"/><text fill="#000000" font-family="sans-serif" font-size="14" lengthAdjust="spacing" textLength="146.3027" x="767.5913" y="63.0234">community_members</text></g><g class="participant participant-tail" data-participant="community_members"><rect fill="#E2E2F0" height="30.4883" rx="2.5" ry="2.5" style="stroke:#181818;stroke-width:0.5;" width="160.3027" x="760.5913" y="1703.1992"/><text fill="#000000" font-family="sans-serif" font-size="14" lengthAdjust="spacing" textLength="146.3027" x="767.5913" y="1723.7344">community_members</text></g><g class="participant participant-head" data-participant="posts"><rect fill="#E2E2F0" height="30.4883" rx="2.5" ry="2.5" style="stroke:#181818;stroke-width:0.5;" width="50.9209" x="930.894" y="42.4883"/><text fill="#000000" font-family="sans-serif" font-size="14" lengthAdjust="spacing" textLength="36.9209" x="937.894" y="63.0234">posts</text></g><g class="participant participant-tail" data-participant="posts"><rect fill="#E2E2F0" height="30.4883" rx="2.5" ry="2.5" style="stroke:#181818;stroke-width:0.5;" width="50.9209" x="930.894" y="1703.1992"/><text fill="#000000" font-family="sans-serif" font-size="14" lengthAdjust="spacing" textLength="36.9209" x="937.894" y="1723.7344">posts</text></g><g class="participant participant-head" data-participant="events"><rect fill="#E2E2F0" height="30.4883" rx="2.5" ry="2.5" style="stroke:#181818;stroke-width:0.5;" width="57.9072" x="991.8149" y="42.4883"/><text fill="#000000" font-family="sans-serif" font-size="14" lengthAdjust="spacing" textLength="43.9072" x="998.8149" y="63.0234">events</text></g><g class="participant participant-tail" data-participant="events"><rect fill="#E2E2F0" height="30.4883" rx="2.5" ry="2.5" style="stroke:#181818;stroke-width:0.5;" width="57.9072" x="991.8149" y="1703.1992"/><text fill="#000000" font-family="sans-serif" font-size="14" lengthAdjust="spacing" textLength="43.9072" x="998.8149" y="1723.7344">events</text></g><g class="participant participant-head" data-participant="event_rsvps"><rect fill="#E2E2F0" height="30.4883" rx="2.5" ry="2.5" style="stroke:#181818;stroke-width:0.5;" width="93.8301" x="1107.7505" y="42.4883"/><text fill="#000000" font-family="sans-serif" font-size="14" lengthAdjust="spacing" textLength="79.8301" x="1114.7505" y="63.0234">event_rsvps</text></g><g class="participant participant-tail" data-participant="event_rsvps"><rect fill="#E2E2F0" height="30.4883" rx="2.5" ry="2.5" style="stroke:#181818;stroke-width:0.5;" width="93.8301" x="1107.7505" y="1703.1992"/><text fill="#000000" font-family="sans-serif" font-size="14" lengthAdjust="spacing" textLength="79.8301" x="1114.7505" y="1723.7344">event_rsvps</text></g><path d="M5,88.9766 L5,189.9766 L227,189.9766 L227,98.9766 L217,88.9766 L5,88.9766" fill="#FEFFDD" style="stroke:#181818;stroke-width:0.5;"/><path d="M217,88.9766 L217,98.9766 L227,98.9766 L217,88.9766" fill="#FEFFDD" style="stroke:#181818;stroke-width:0.5;"/><text fill="#000000" font-family="sans-serif" font-size="13" lengthAdjust="spacing" textLength="94.9229" x="11" y="106.5449">Core User Data</text><text fill="#000000" font-family="sans-serif" font-size="13" lengthAdjust="spacing" textLength="87.4263" x="11" y="121.8555">- id (UUID PK)</text><text fill="#000000" font-family="sans-serif" font-size="13" lengthAdjust="spacing" textLength="150.4966" x="11" y="137.166">- email, password_hash</text><text fill="#000000" font-family="sans-serif" font-size="13" lengthAdjust="spacing" textLength="155.5303" x="11" y="152.4766">- created_at, updated_at</text><text fill="#000000" font-family="sans-serif" font-size="13" lengthAdjust="spacing" textLength="201.6777" x="11" y="167.7871">- is_premium, subscription_end</text><text fill="#000000" font-family="sans-serif" font-size="13" lengthAdjust="spacing" textLength="186.5703" x="11" y="183.0977">- azure_ad_id, ghl_contact_id</text><path d="M106,200.8398 L106,317.8398 L283,317.8398 L283,210.8398 L273,200.8398 L106,200.8398" fill="#FEFFDD" style="stroke:#181818;stroke-width:0.5;"/><path d="M273,200.8398 L273,210.8398 L283,210.8398 L273,200.8398" fill="#FEFFDD" style="stroke:#181818;stroke-width:0.5;"/><text fill="#000000" font-family="sans-serif" font-size="13" lengthAdjust="spacing" textLength="105.4092" x="112" y="218.4082">User Profile Data</text><text fill="#000000" font-family="sans-serif" font-size="13" lengthAdjust="spacing" textLength="87.4263" x="112" y="233.7188">- id (UUID PK)</text><text fill="#000000" font-family="sans-serif" font-size="13" lengthAdjust="spacing" textLength="85.3569" x="112" y="249.0293">- user_id (FK)</text><text fill="#000000" font-family="sans-serif" font-size="13" lengthAdjust="spacing" textLength="156.146" x="112" y="264.3398">- display_name, age, bio</text><text fill="#000000" font-family="sans-serif" font-size="13" lengthAdjust="spacing" textLength="127.6577" x="112" y="279.6504">- location, video_url</text><text fill="#000000" font-family="sans-serif" font-size="13" lengthAdjust="spacing" textLength="146.3135" x="112" y="294.9609">- interests, looking_for</text><text fill="#000000" font-family="sans-serif" font-size="13" lengthAdjust="spacing" textLength="138.0107" x="112" y="310.2715">- distance_preference</text><path d="M192,328.0137 L192,445.0137 L409,445.0137 L409,338.0137 L399,328.0137 L192,328.0137" fill="#FEFFDD" style="stroke:#181818;stroke-width:0.5;"/><path d="M399,328.0137 L399,338.0137 L409,338.0137 L399,328.0137" fill="#FEFFDD" style="stroke:#181818;stroke-width:0.5;"/><text fill="#000000" font-family="sans-serif" font-size="13" lengthAdjust="spacing" textLength="124.668" x="198" y="345.582">Personality Analysis</text><text fill="#000000" font-family="sans-serif" font-size="13" lengthAdjust="spacing" textLength="87.4263" x="198" y="360.8926">- id (UUID PK)</text><text fill="#000000" font-family="sans-serif" font-size="13" lengthAdjust="spacing" textLength="99.125" x="198" y="376.2031">- profile_id (FK)</text><text fill="#000000" font-family="sans-serif" font-size="13" lengthAdjust="spacing" textLength="152.8325" x="198" y="391.5137">- quiz_responses (JSON)</text><text fill="#000000" font-family="sans-serif" font-size="13" lengthAdjust="spacing" textLength="196.1553" x="198" y="406.8242">- personality_type, trait_scores</text><text fill="#000000" font-family="sans-serif" font-size="13" lengthAdjust="spacing" textLength="141.2354" x="198" y="422.1348">- compatibility_matrix</text><text fill="#000000" font-family="sans-serif" font-size="13" lengthAdjust="spacing" textLength="122.2622" x="198" y="437.4453">- ai_insights (JSON)</text><path d="M314,455.1875 L314,556.1875 L502,556.1875 L502,465.1875 L492,455.1875 L314,455.1875" fill="#FEFFDD" style="stroke:#181818;stroke-width:0.5;"/><path d="M492,455.1875 L492,465.1875 L502,465.1875 L492,455.1875" fill="#FEFFDD" style="stroke:#181818;stroke-width:0.5;"/><text fill="#000000" font-family="sans-serif" font-size="13" lengthAdjust="spacing" textLength="126.4136" x="320" y="472.7559">Match Relationships</text><text fill="#000000" font-family="sans-serif" font-size="13" lengthAdjust="spacing" textLength="87.4263" x="320" y="488.0664">- id (UUID PK)</text><text fill="#000000" font-family="sans-serif" font-size="13" lengthAdjust="spacing" textLength="167.6416" x="320" y="503.377">- user_a_id, user_b_id (FK)</text><text fill="#000000" font-family="sans-serif" font-size="13" lengthAdjust="spacing" textLength="133.8403" x="320" y="518.6875">- compatibility_score</text><text fill="#000000" font-family="sans-serif" font-size="13" lengthAdjust="spacing" textLength="122.2622" x="320" y="533.998">- ai_insights (JSON)</text><text fill="#000000" font-family="sans-serif" font-size="13" lengthAdjust="spacing" textLength="138.4043" x="320" y="549.3086">- created_at, is_active</text><path d="M395,567.0508 L395,653.0508 L607,653.0508 L607,577.0508 L597,567.0508 L395,567.0508" fill="#FEFFDD" style="stroke:#181818;stroke-width:0.5;"/><path d="M597,567.0508 L597,577.0508 L607,577.0508 L597,567.0508" fill="#FEFFDD" style="stroke:#181818;stroke-width:0.5;"/><text fill="#000000" font-family="sans-serif" font-size="13" lengthAdjust="spacing" textLength="79.2378" x="401" y="584.6191">User Actions</text><text fill="#000000" font-family="sans-serif" font-size="13" lengthAdjust="spacing" textLength="87.4263" x="401" y="599.9297">- id (UUID PK)</text><text fill="#000000" font-family="sans-serif" font-size="13" lengthAdjust="spacing" textLength="183.3521" x="401" y="615.2402">- user_id, target_user_id (FK)</text><text fill="#000000" font-family="sans-serif" font-size="13" lengthAdjust="spacing" textLength="191.6167" x="401" y="630.5508">- action (like/pass/super_like)</text><text fill="#000000" font-family="sans-serif" font-size="13" lengthAdjust="spacing" textLength="177.8169" x="401" y="645.8613">- timestamp, context (JSON)</text><path d="M491,663.6035 L491,764.6035 L706,764.6035 L706,673.6035 L696,663.6035 L491,663.6035" fill="#FEFFDD" style="stroke:#181818;stroke-width:0.5;"/><path d="M696,663.6035 L696,673.6035 L706,673.6035 L696,663.6035" fill="#FEFFDD" style="stroke:#181818;stroke-width:0.5;"/><text fill="#000000" font-family="sans-serif" font-size="13" lengthAdjust="spacing" textLength="94.0659" x="497" y="681.1719">Chat Messages</text><text fill="#000000" font-family="sans-serif" font-size="13" lengthAdjust="spacing" textLength="87.4263" x="497" y="696.4824">- id (UUID PK)</text><text fill="#000000" font-family="sans-serif" font-size="13" lengthAdjust="spacing" textLength="166.353" x="497" y="711.793">- match_id, sender_id (FK)</text><text fill="#000000" font-family="sans-serif" font-size="13" lengthAdjust="spacing" textLength="156.3491" x="497" y="727.1035">- content, message_type</text><text fill="#000000" font-family="sans-serif" font-size="13" lengthAdjust="spacing" textLength="133.3135" x="497" y="742.4141">- timestamp, read_at</text><text fill="#000000" font-family="sans-serif" font-size="13" lengthAdjust="spacing" textLength="194.2573" x="497" y="757.7246">- ai_generated, ai_suggestions</text><path d="M584,775.4668 L584,861.4668 L814,861.4668 L814,785.4668 L804,775.4668 L584,775.4668" fill="#FEFFDD" style="stroke:#181818;stroke-width:0.5;"/><path d="M804,775.4668 L804,785.4668 L814,785.4668 L804,775.4668" fill="#FEFFDD" style="stroke:#181818;stroke-width:0.5;"/><text fill="#000000" font-family="sans-serif" font-size="13" lengthAdjust="spacing" textLength="122.4907" x="590" y="793.0352">Community Groups</text><text fill="#000000" font-family="sans-serif" font-size="13" lengthAdjust="spacing" textLength="87.4263" x="590" y="808.3457">- id (UUID PK)</text><text fill="#000000" font-family="sans-serif" font-size="13" lengthAdjust="spacing" textLength="187.5034" x="590" y="823.6563">- name, description, category</text><text fill="#000000" font-family="sans-serif" font-size="13" lengthAdjust="spacing" textLength="169.7554" x="590" y="838.9668">- member_count, is_public</text><text fill="#000000" font-family="sans-serif" font-size="13" lengthAdjust="spacing" textLength="209.5171" x="590" y="854.2773">- created_by (FK), settings (JSON)</text><path d="M720,872.0195 L720,958.0195 L960,958.0195 L960,882.0195 L950,872.0195 L720,872.0195" fill="#FEFFDD" style="stroke:#181818;stroke-width:0.5;"/><path d="M950,872.0195 L950,882.0195 L960,882.0195 L950,872.0195" fill="#FEFFDD" style="stroke:#181818;stroke-width:0.5;"/><text fill="#000000" font-family="sans-serif" font-size="13" lengthAdjust="spacing" textLength="154.8701" x="726" y="889.5879">Community Membership</text><text fill="#000000" font-family="sans-serif" font-size="13" lengthAdjust="spacing" textLength="87.4263" x="726" y="904.8984">- id (UUID PK)</text><text fill="#000000" font-family="sans-serif" font-size="13" lengthAdjust="spacing" textLength="182.4888" x="726" y="920.209">- community_id, user_id (FK)</text><text fill="#000000" font-family="sans-serif" font-size="13" lengthAdjust="spacing" textLength="219.9399" x="726" y="935.5195">- role (member/moderator/admin)</text><text fill="#000000" font-family="sans-serif" font-size="13" lengthAdjust="spacing" textLength="197.2407" x="726" y="950.8301">- joined_at, permissions (JSON)</text><path d="M846,968.5723 L846,1069.5723 L1065,1069.5723 L1065,978.5723 L1055,968.5723 L846,968.5723" fill="#FEFFDD" style="stroke:#181818;stroke-width:0.5;"/><path d="M1055,968.5723 L1055,978.5723 L1065,978.5723 L1055,968.5723" fill="#FEFFDD" style="stroke:#181818;stroke-width:0.5;"/><text fill="#000000" font-family="sans-serif" font-size="13" lengthAdjust="spacing" textLength="110.2017" x="852" y="986.1406">Community Posts</text><text fill="#000000" font-family="sans-serif" font-size="13" lengthAdjust="spacing" textLength="87.4263" x="852" y="1001.4512">- id (UUID PK)</text><text fill="#000000" font-family="sans-serif" font-size="13" lengthAdjust="spacing" textLength="196.7139" x="852" y="1016.7617">- community_id, author_id (FK)</text><text fill="#000000" font-family="sans-serif" font-size="13" lengthAdjust="spacing" textLength="179.6958" x="852" y="1032.0723">- content, media_urls (JSON)</text><text fill="#000000" font-family="sans-serif" font-size="13" lengthAdjust="spacing" textLength="198.8467" x="852" y="1047.3828">- likes_count, comments_count</text><text fill="#000000" font-family="sans-serif" font-size="13" lengthAdjust="spacing" textLength="145.4756" x="852" y="1062.6934">- created_at, is_pinned</text><path d="M910,1080.4355 L910,1181.4355 L1130,1181.4355 L1130,1090.4355 L1120,1080.4355 L910,1080.4355" fill="#FEFFDD" style="stroke:#181818;stroke-width:0.5;"/><path d="M1120,1080.4355 L1120,1090.4355 L1130,1090.4355 L1120,1080.4355" fill="#FEFFDD" style="stroke:#181818;stroke-width:0.5;"/><text fill="#000000" font-family="sans-serif" font-size="13" lengthAdjust="spacing" textLength="117.4888" x="916" y="1098.0039">Community Events</text><text fill="#000000" font-family="sans-serif" font-size="13" lengthAdjust="spacing" textLength="87.4263" x="916" y="1113.3145">- id (UUID PK)</text><text fill="#000000" font-family="sans-serif" font-size="13" lengthAdjust="spacing" textLength="199.7988" x="916" y="1128.625">- community_id, creator_id (FK)</text><text fill="#000000" font-family="sans-serif" font-size="13" lengthAdjust="spacing" textLength="191.3247" x="916" y="1143.9355">- title, description, event_date</text><text fill="#000000" font-family="sans-serif" font-size="13" lengthAdjust="spacing" textLength="165.4136" x="916" y="1159.2461">- location, max_attendees</text><text fill="#000000" font-family="sans-serif" font-size="13" lengthAdjust="spacing" textLength="80.6343" x="916" y="1174.5566">- rsvp_count</text><path d="M1050,1192.2988 L1050,1278.2988 L1258,1278.2988 L1258,1202.2988 L1248,1192.2988 L1050,1192.2988" fill="#FEFFDD" style="stroke:#181818;stroke-width:0.5;"/><path d="M1248,1192.2988 L1248,1202.2988 L1258,1202.2988 L1248,1192.2988" fill="#FEFFDD" style="stroke:#181818;stroke-width:0.5;"/><text fill="#000000" font-family="sans-serif" font-size="13" lengthAdjust="spacing" textLength="104.8823" x="1056" y="1209.8672">Event Responses</text><text fill="#000000" font-family="sans-serif" font-size="13" lengthAdjust="spacing" textLength="87.4263" x="1056" y="1225.1777">- id (UUID PK)</text><text fill="#000000" font-family="sans-serif" font-size="13" lengthAdjust="spacing" textLength="146.1675" x="1056" y="1240.4883">- event_id, user_id (FK)</text><text fill="#000000" font-family="sans-serif" font-size="13" lengthAdjust="spacing" textLength="187.6685" x="1056" y="1255.7988">- rsvp_status (yes/no/maybe)</text><text fill="#000000" font-family="sans-serif" font-size="13" lengthAdjust="spacing" textLength="72.4585" x="1056" y="1271.1094">- rsvp_date</text><g class="message" data-participant-1="users" data-participant-2="profiles"><polygon fill="#181818" points="183.2412,1301.1621,193.2412,1305.1621,183.2412,1309.1621,187.2412,1305.1621" style="stroke:#181818;stroke-width:1;"/><line style="stroke:#181818;stroke-width:1;" x1="116.2451" x2="189.2412" y1="1305.1621" y2="1305.1621"/><text fill="#000000" font-family="sans-serif" font-size="13" lengthAdjust="spacing" textLength="54.9961" x="123.2451" y="1300.4199">has (1:1)</text></g><g class="message" data-participant-1="profiles" data-participant-2="personality"><polygon fill="#181818" points="288.7256,1330.4727,298.7256,1334.4727,288.7256,1338.4727,292.7256,1334.4727" style="stroke:#181818;stroke-width:1;"/><line style="stroke:#181818;stroke-width:1;" x1="195.2412" x2="294.7256" y1="1334.4727" y2="1334.4727"/><text fill="#000000" font-family="sans-serif" font-size="13" lengthAdjust="spacing" textLength="54.9961" x="202.2412" y="1329.7305">has (1:1)</text></g><g class="message" data-participant-1="users" data-participant-2="interactions"><polygon fill="#181818" points="489.4404,1359.7832,499.4404,1363.7832,489.4404,1367.7832,493.4404,1363.7832" style="stroke:#181818;stroke-width:1;"/><line style="stroke:#181818;stroke-width:1;" x1="116.2451" x2="495.4404" y1="1363.7832" y2="1363.7832"/><text fill="#000000" font-family="sans-serif" font-size="13" lengthAdjust="spacing" textLength="104.2095" x="123.2451" y="1359.041">creates (1:many)</text></g><g class="message" data-participant-1="users" data-participant-2="matches"><polygon fill="#181818" points="396.9683,1389.0938,406.9683,1393.0938,396.9683,1397.0938,400.9683,1393.0938" style="stroke:#181818;stroke-width:1;"/><line style="stroke:#181818;stroke-width:1;" x1="116.2451" x2="402.9683" y1="1393.0938" y2="1393.0938"/><text fill="#000000" font-family="sans-serif" font-size="13" lengthAdjust="spacing" textLength="177.1694" x="123.2451" y="1388.3516">participates_in (many:many)</text></g><g class="message" data-participant-1="matches" data-participant-2="messages"><polygon fill="#181818" points="586.7661,1418.4043,596.7661,1422.4043,586.7661,1426.4043,590.7661,1422.4043" style="stroke:#181818;stroke-width:1;"/><line style="stroke:#181818;stroke-width:1;" x1="408.9683" x2="592.7661" y1="1422.4043" y2="1422.4043"/><text fill="#000000" font-family="sans-serif" font-size="13" lengthAdjust="spacing" textLength="112.2837" x="415.9683" y="1417.6621">contains (1:many)</text></g><g class="message" data-participant-1="users" data-participant-2="communities"><polygon fill="#181818" points="687.814,1447.7148,697.814,1451.7148,687.814,1455.7148,691.814,1451.7148" style="stroke:#181818;stroke-width:1;"/><line style="stroke:#181818;stroke-width:1;" x1="116.2451" x2="693.814" y1="1451.7148" y2="1451.7148"/><text fill="#000000" font-family="sans-serif" font-size="13" lengthAdjust="spacing" textLength="104.2095" x="123.2451" y="1446.9727">creates (1:many)</text></g><g class="message" data-participant-1="users" data-participant-2="community_members"><polygon fill="#181818" points="828.7427,1477.0254,838.7427,1481.0254,828.7427,1485.0254,832.7427,1481.0254" style="stroke:#181818;stroke-width:1;"/><line style="stroke:#181818;stroke-width:1;" x1="116.2451" x2="834.7427" y1="1481.0254" y2="1481.0254"/><text fill="#000000" font-family="sans-serif" font-size="13" lengthAdjust="spacing" textLength="89.4702" x="123.2451" y="1476.2832">joins (1:many)</text></g><g class="message" data-participant-1="communities" data-participant-2="community_members"><polygon fill="#181818" points="828.7427,1506.3359,838.7427,1510.3359,828.7427,1514.3359,832.7427,1510.3359" style="stroke:#181818;stroke-width:1;"/><line style="stroke:#181818;stroke-width:1;" x1="699.814" x2="834.7427" y1="1510.3359" y2="1510.3359"/><text fill="#000000" font-family="sans-serif" font-size="13" lengthAdjust="spacing" textLength="80.9517" x="706.814" y="1505.5938">has (1:many)</text></g><g class="message" data-participant-1="communities" data-participant-2="posts"><polygon fill="#181818" points="944.3545,1535.6465,954.3545,1539.6465,944.3545,1543.6465,948.3545,1539.6465" style="stroke:#181818;stroke-width:1;"/><line style="stroke:#181818;stroke-width:1;" x1="699.814" x2="950.3545" y1="1539.6465" y2="1539.6465"/><text fill="#000000" font-family="sans-serif" font-size="13" lengthAdjust="spacing" textLength="112.2837" x="706.814" y="1534.9043">contains (1:many)</text></g><g class="message" data-participant-1="users" data-participant-2="posts"><polygon fill="#181818" points="944.3545,1564.957,954.3545,1568.957,944.3545,1572.957,948.3545,1568.957" style="stroke:#181818;stroke-width:1;"/><line style="stroke:#181818;stroke-width:1;" x1="116.2451" x2="950.3545" y1="1568.957" y2="1568.957"/><text fill="#000000" font-family="sans-serif" font-size="13" lengthAdjust="spacing" textLength="107.1865" x="123.2451" y="1564.2148">authors (1:many)</text></g><g class="message" data-participant-1="communities" data-participant-2="events"><polygon fill="#181818" points="1008.7686,1594.2676,1018.7686,1598.2676,1008.7686,1602.2676,1012.7686,1598.2676" style="stroke:#181818;stroke-width:1;"/><line style="stroke:#181818;stroke-width:1;" x1="699.814" x2="1014.7686" y1="1598.2676" y2="1598.2676"/><text fill="#000000" font-family="sans-serif" font-size="13" lengthAdjust="spacing" textLength="93.2471" x="706.814" y="1593.5254">hosts (1:many)</text></g><g class="message" data-participant-1="users" data-participant-2="events"><polygon fill="#181818" points="1008.7686,1623.5781,1018.7686,1627.5781,1008.7686,1631.5781,1012.7686,1627.5781" style="stroke:#181818;stroke-width:1;"/><line style="stroke:#181818;stroke-width:1;" x1="116.2451" x2="1014.7686" y1="1627.5781" y2="1627.5781"/><text fill="#000000" font-family="sans-serif" font-size="13" lengthAdjust="spacing" textLength="104.2095" x="123.2451" y="1622.8359">creates (1:many)</text></g><g class="message" data-participant-1="events" data-participant-2="event_rsvps"><polygon fill="#181818" points="1142.6655,1652.8887,1152.6655,1656.8887,1142.6655,1660.8887,1146.6655,1656.8887" style="stroke:#181818;stroke-width:1;"/><line style="stroke:#181818;stroke-width:1;" x1="1020.7686" x2="1148.6655" y1="1656.8887" y2="1656.8887"/><text fill="#000000" font-family="sans-serif" font-size="13" lengthAdjust="spacing" textLength="109.897" x="1027.7686" y="1652.1465">receives (1:many)</text></g><g class="message" data-participant-1="users" data-participant-2="event_rsvps"><polygon fill="#181818" points="1142.6655,1682.1992,1152.6655,1686.1992,1142.6655,1690.1992,1146.6655,1686.1992" style="stroke:#181818;stroke-width:1;"/><line style="stroke:#181818;stroke-width:1;" x1="116.2451" x2="1148.6655" y1="1686.1992" y2="1686.1992"/><text fill="#000000" font-family="sans-serif" font-size="13" lengthAdjust="spacing" textLength="99.8613" x="123.2451" y="1681.457">makes (1:many)</text></g><!--SRC=[XLLDZzGu4Btthx0uDL96BQvpG4B0hW0DZ5WD9oIhadWwnSHsi9tU2R-UyaSIkpiDfxZib_AhgbTbXwuNx1lMuWvSqx4RzWuSr605UwySkebz5JqurCfsEDZTRW3ZiC41b6ClHYkCVS70ih0g3mUZ7x4NyNms63i3qMzQGKytyPPkZk1riqHBpp5vJEiIWCe90qtW6r3vnfalOIqSPsV9A26Dbd9Kw32XCdiRE74fP3tdv6BtB7HjNKgENvM7uYHKEetBZMDkx6d8CD7UxPHsWkcJCB4gx9QzrKQm1p92TR-h6uOjspyyV7Z7xZ-zzBQGW7t51h3sVsrQte7j_7vZ13ZHSd0L6uSshOC7omSZ98woOdQiRMDmy6dcGhN-77wDHd1eEROLEtOzRxHoL0coSugBC6uZmVjeNoNgG-9-yvzejsY77YQkG8gAKGqhLgFs9xrkWd0hTi9MQ3wQFZZqYX2Ky8eG-WdLaJzgarmvK8tmSJqIXfO5qrMLHFO-izxGTx9ej_Yc-7BAFqVynOd2G9gamFSV__loEMApPd3JGA4u0-YuRQX-mJj9Qg2WQWmOQW63po7Po55PF7PkzfSpJwr2h6EJ5orzDSaGAXUMTKw_v12uRLCurmyfndVYgSXgtg2p1jv4ym_bfyo0EGh7p-KGFR5zZq_YuDLyi2EbbNix01nIhpkGGyMy8CMpsqfO6WU-TJfmx2xPMun2SWCbIyelsOGR58MU78Qgdh6W1CqjHIay2aNfe8nLthBZaMwDmokZbysXqDnfpB1_ZHwt2ngxenLBbrBqTCjHcod44EOJTUYeOfs6iUwnoGjOJo4g7wLpr3HREhiOU0MxkxX7cjjYkFwxg2vBfD4q4lRHwq7grkT8cmEq4bK0_D2eaioet1Aj3OAwv1XcRS7htk_ydHAChjFNgjiY-FcIAzyhpiufzQxy58_sHcCCg8X_JZIE_OBf-x3rTwh1TydL-NV-J07nqV0plHoN4fw9blDgZfBtxqfaVa4mlZd4Cd2ZoPAcskOR4txOBA-_WFh1ZPJ1ITY3qWS9KotMKqzpjuiFsith_DcWfuhjNzs-UhbRDZsWcDOhPl5mDdXYFG9AWfeou3ezboUOW3JiI924JF0PvNzOfqTuyr1bRbU_PHTVlt-hgxpSCspkwieVAGER-BadBjck-KwGs0NNNIsgxS8FbuuMm4N0wMJ6BCeoeX7qQ5nrjW0bFEMetm00]--></g></svg>